{
.appVersion = "3311";
.formatVersion = 3;
DisplayStrings = (
"“I think true modernists wanted open-source design one hundred years ago, but back then it wasn’t possible. One of modernism’s core flaws was the huge amount of power that ended up in the hands of a few big firms. The movment was supposed to be about the democratization of design—that was their big idea—but somewhere along the line it became nothing more than an aesthetic.” 


Rena Bold 144

“Bitcoin is a swarm of cyber hornets serving the goddess of wisdom, feeding on the fire of truth, exponentially growing ever smarter, faster, and stronger behind a wall of encrypted energy.”

—Michael Saylor",
"rstuvwxyzß.,:;-–—”!? ",
"أشهد يا إلهي بأنك خلقتني لعرفانك وع/behDotless-ar.medi بادتك ",
"أشهد في هذا الح/twodotshorizontalbelow-ar ين بعجزي وقوّتك وضعفي واقتدارك وفقري وغنآئك  ",
"لا إله إلا أنت المهيمن القيّوم ",
"ح",
"/hah-ar.fina",
"/hah-ar.medi",
"/dotabove-ar خ",
"/hah-ar.fina/khah-ar.fina",
"/hah-ar.fina/khah-ar.fina",
"ح خ",
"/khah-ar.medi",
"/hah-ar.init/jeem-ar.init",
"ج",
"د",
"/dotcenter-ar",
"/dotbelow-ar",
"/dotabove-ar",
"/dal-ar.fina/thal-ar.fina",
"/thal-ar.fina",
"ذ",
"/dal-ar.fina",
"ر"
);
axes = (
{
name = "Optical size";
tag = opsz;
},
{
name = Weight;
tag = wght;
}
);
classes = (
{
automatic = 1;

glyphs = (
{
color = 5;
glyphname = A;
kernLeft = A;
kernRight = A;
lastChange = "2024-08-04 21:18:43 +0000";
layers = (
{
anchors = (
{
name = bottom;
pos = (384,0);
},
{
name = top;
pos = (384,800);
}
);
layerId = m01;
shapes = (
{
closed = 1;
nodes = (
(108,0,l),
(124,16,l),
(200,216,l),
(216,232,l),
(552,232,l),
(568,216,l),
(644,16,l),
(660,0,l),
(712,0,l),
(728,16,l),
(728,104,l),
(464,784,l),
(444,800,l),
(320,800,l),
(304,784,l),
(40,104,l),
(40,16,l),
(56,0,l)
);
},
{
closed = 1;
nodes = (
(244,340,l),
(376,696,l),
(392,696,l),
(524,340,l),
(512,328,l),
(256,328,l)
);
}
);
width = 768;
},
{
anchors = (
{
name = bottom;
pos = (368,0);
},
{
name = top;
pos = (368,800);
}
);
layerId = m002;
shapes = (
{
closed = 1;
nodes = (
(92,0,l),
(108,16,l),
(184,216,l),
(200,232,l),
(536,232,l),
(552,216,l),
(628,16,l),
(644,0,l),
(696,0,l),
(712,16,l),
(712,104,l),
(448,784,l),
(428,800,l),
(304,800,l),
(288,784,l),
(24,104,l),
(24,16,l),
(40,0,l)
);
},
{
closed = 1;
nodes = (
(228,340,l),
(360,696,l),
(376,696,l),
(508,340,l),
(496,328,l),
(240,328,l)
);
}
);
width = 736;
},
{
anchors = (
{
name = bottom;
pos = (384,0);
},
{
name = top;
pos = (384,800);
}
);
layerId = m003;
shapes = (
{
closed = 1;
nodes = (
(108,0,l),
(124,16,l),
(200,216,l),
(216,232,l),
(552,232,l),
(568,216,l),
(644,16,l),
(660,0,l),
(712,0,l),
(728,16,l),
(728,104,l),
(464,784,l),
(444,800,l),
(320,800,l),
(304,784,l),
(40,104,l),
(40,16,l),
(56,0,l)
);
},
{
closed = 1;
nodes = (
(244,340,l),
(376,696,l),
(392,696,l),
(524,340,l),
(512,328,l),
(256,328,l)
);
}
);
width = 768;
},
{
anchors = (
{
name = bottom;
pos = (376,0);
},
{
name = top;
pos = (376,800);
}
);
layerId = m004;
shapes = (
{
closed = 1;
nodes = (
(176,0,l),
(192,16,l),
(228,132,l),
(240,144,l),
(504,144,l),
(516,132,l),
(552,16,l),
(568,0,l),
(724,0,l),
(740,16,l),
(740,80,l),
(484,784,l),
(468,800,l),
(284,800,l),
(268,784,l),
(16,80,l),
(16,16,l),
(32,0,l)
);
},
{
closed = 1;
nodes = (
(280,300,l),
(368,576,l),
(380,576,l),
(464,300,l),
(452,288,l),
(292,288,l)
);
}
);
width = 756;
}
);
unicode = 65;
},
{
color = 5;
glyphname = Aogonek;
lastChange = "2024-08-01 05:20:46 +0000";
layers = (
{
layerId = m01;
shapes = (
{
closed = 1;
nodes = (
(176,0,l),
(192,16,l),
(228,132,l),
(240,144,l),
(504,144,l),
(516,132,l),
(552,16,l),
(568,0,l),
(616,0,l),
(616,-12,l),
(572,-28,o),
(544,-60,o),
(544,-100,cs),
(544,-156,o),
(580,-196,o),
(656,-196,cs),
(692,-196,o),
(720,-188,o),
(736,-180,c),
(752,-164,l),
(752,-112,l),
(736,-96,l),
(720,-96,ls),
(692,-96,o),
(668,-84,o),
(668,-60,cs),
(668,-44,o),
(688,-28,o),
(724,0,c),
(740,16,l),
(740,80,l),
(484,784,l),
(468,800,l),
(284,800,l),
(268,784,l),
(16,80,l),
(16,16,l),
(32,0,l)
);
},
{
closed = 1;
nodes = (
(280,300,l),
(368,576,l),
(380,576,l),
(464,300,l),
(452,288,l),
(292,288,l)
);
}
);
width = 600;
},
{
layerId = m002;
shapes = (
{
closed = 1;
nodes = (
(176,0,l),
(192,16,l),
(228,132,l),
(240,144,l),
(504,144,l),
(516,132,l),
(552,16,l),
(568,0,l),
(616,0,l),
(616,-12,l),
(572,-28,o),
(544,-60,o),
(544,-100,cs),
(544,-156,o),
(580,-196,o),
(656,-196,cs),
(692,-196,o),
(720,-188,o),
(736,-180,c),
(752,-164,l),
(752,-112,l),
(736,-96,l),
(720,-96,ls),
(692,-96,o),
(668,-84,o),
(668,-60,cs),
(668,-44,o),
(688,-28,o),
(724,0,c),
(740,16,l),
(740,80,l),
(484,784,l),
(468,800,l),
(284,800,l),
(268,784,l),
(16,80,l),
(16,16,l),
(32,0,l)
);
},
{
closed = 1;
nodes = (
(280,300,l),
(368,576,l),
(380,576,l),
(464,300,l),
(452,288,l),
(292,288,l)
);
}
);
width = 600;
},
{
layerId = m003;
shapes = (
{
closed = 1;
nodes = (
(176,0,l),
(192,16,l),
(228,132,l),
(240,144,l),
(504,144,l),
(516,132,l),
(552,16,l),
(568,0,l),
(616,0,l),
(616,-12,l),
(572,-28,o),
(544,-60,o),
(544,-100,cs),
(544,-156,o),
(580,-196,o),
(656,-196,cs),
(692,-196,o),
(720,-188,o),
(736,-180,c),
(752,-164,l),
(752,-112,l),
(736,-96,l),
(720,-96,ls),
(692,-96,o),
(668,-84,o),
(668,-60,cs),
(668,-44,o),
(688,-28,o),
(724,0,c),
(740,16,l),
(740,80,l),
(484,784,l),
(468,800,l),
(284,800,l),
(268,784,l),
(16,80,l),
(16,16,l),
(32,0,l)
);
},
{
closed = 1;
nodes = (
(280,300,l),
(368,576,l),
(380,576,l),
(464,300,l),
(452,288,l),
(292,288,l)
);
}
);
width = 600;
},
{
layerId = m004;
shapes = (
{
closed = 1;
nodes = (
(176,0,l),
(192,16,l),
(228,132,l),
(240,144,l),
(504,144,l),
(516,132,l),
(552,16,l),
(568,0,l),
(616,0,l),
(616,-12,l),
(572,-28,o),
(544,-60,o),
(544,-100,cs),
(544,-156,o),
(580,-196,o),
(656,-196,cs),
(692,-196,o),
(720,-188,o),
(736,-180,c),
(752,-164,l),
(752,-112,l),
(736,-96,l),
(720,-96,ls),
(692,-96,o),
(668,-84,o),
(668,-60,cs),
(668,-44,o),
(688,-28,o),
(724,0,c),
(740,16,l),
(740,80,l),
(484,784,l),
(468,800,l),
(284,800,l),
(268,784,l),
(16,80,l),
(16,16,l),
(32,0,l)
);
},
{
closed = 1;
nodes = (
(280,300,l),
(368,576,l),
(380,576,l),
(464,300,l),
(452,288,l),
(292,288,l)
);
}
);
width = 756;
}
);
unicode = 260;
},
{
color = 5;
glyphname = AE;
lastChange = "2024-07-26 07:00:53 +0000";
layers = (
{
layerId = m01;
shapes = (
{
closed = 1;
nodes = (
(1048,0,l),
(1064,16,l),
(1064,152,l),
(1048,168,l),
(688,168,l),
(676,180,l),
(676,324,l),
(688,336,l),
(992,336,l),
(1008,352,l),
(1008,480,l),
(992,496,l),
(688,496,l),
(676,508,l),
(676,624,l),
(688,636,l),
(1048,636,l),
(1064,652,l),
(1064,784,l),
(1048,800,l),
(284,800,l),
(268,784,l),
(16,80,l),
(16,16,l),
(32,0,l),
(176,0,l),
(192,16,l),
(228,132,l),
(240,144,l),
(464,144,l),
(476,132,l),
(476,16,l),
(492,0,l)
);
},
{
closed = 1;
nodes = (
(392,640,l),
(464,640,l),
(476,628,l),
(476,300,l),
(464,288,l),
(292,288,l),
(280,300,l)
);
}
);
width = 600;
},
{
layerId = m002;
shapes = (
{
closed = 1;
nodes = (
(1048,0,l),
(1064,16,l),
(1064,152,l),
(1048,168,l),
(688,168,l),
(676,180,l),
(676,324,l),
(688,336,l),
(992,336,l),
(1008,352,l),
(1008,480,l),
(992,496,l),
(688,496,l),
(676,508,l),
(676,624,l),
(688,636,l),
(1048,636,l),
(1064,652,l),
(1064,784,l),
(1048,800,l),
(284,800,l),
(268,784,l),
(16,80,l),
(16,16,l),
(32,0,l),
(176,0,l),
(192,16,l),
(228,132,l),
(240,144,l),
(464,144,l),
(476,132,l),
(476,16,l),
(492,0,l)
);
},
{
closed = 1;
nodes = (
(392,640,l),
(464,640,l),
(476,628,l),
(476,300,l),
(464,288,l),
(292,288,l),
(280,300,l)
);
}
);
width = 600;
},
{
layerId = m003;
shapes = (
{
closed = 1;
nodes = (
(1048,0,l),
(1064,16,l),
(1064,152,l),
(1048,168,l),
(688,168,l),
(676,180,l),
(676,324,l),
(688,336,l),
(992,336,l),
(1008,352,l),
(1008,480,l),
(992,496,l),
(688,496,l),
(676,508,l),
(676,624,l),
(688,636,l),
(1048,636,l),
(1064,652,l),
(1064,784,l),
(1048,800,l),
(284,800,l),
(268,784,l),
(16,80,l),
(16,16,l),
(32,0,l),
(176,0,l),
(192,16,l),
(228,132,l),
(240,144,l),
(464,144,l),
(476,132,l),
(476,16,l),
(492,0,l)
);
},
{
closed = 1;
nodes = (
(392,640,l),
(464,640,l),
(476,628,l),
(476,300,l),
(464,288,l),
(292,288,l),
(280,300,l)
);
}
);
width = 600;
},
{
layerId = m004;
shapes = (
{
closed = 1;
nodes = (
(1048,0,l),
(1064,16,l),
(1064,152,l),
(1048,168,l),
(688,168,l),
(676,180,l),
(676,324,l),
(688,336,l),
(992,336,l),
(1008,352,l),
(1008,480,l),
(992,496,l),
(688,496,l),
(676,508,l),
(676,624,l),
(688,636,l),
(1048,636,l),
(1064,652,l),
(1064,784,l),
(1048,800,l),
(284,800,l),
(268,784,l),
(16,80,l),
(16,16,l),
(32,0,l),
(176,0,l),
(192,16,l),
(228,132,l),
(240,144,l),
(464,144,l),
(476,132,l),
(476,16,l),
(492,0,l)
);
},
{
closed = 1;
nodes = (
(392,640,l),
(464,640,l),
(476,628,l),
(476,300,l),
(464,288,l),
(292,288,l),
(280,300,l)
);
}
);
width = 1080;
}
);
unicode = 198;
},
{
color = 5;
glyphname = B;
kernLeft = H;
kernRight = B;
lastChange = "2024-07-24 19:44:28 +0000";
layers = (
{
layerId = m01;
shapes = (
{
closed = 1;
nodes = (
(448,0,ls),
(604,0,o),
(704,76,o),
(704,232,cs),
(704,336,o),
(636,396,o),
(568,420,c),
(568,436,l),
(624,464,o),
(668,508,o),
(668,596,cs),
(668,736,o),
(552,800,o),
(412,800,cs),
(80,800,l),
(64,784,l),
(64,16,l),
(80,0,l)
);
},
{
closed = 1;
nodes = (
(176,476,l),
(176,692,l),
(188,704,l),
(408,704,ls),
(504,704,o),
(552,672,o),
(552,584,cs),
(552,496,o),
(504,464,o),
(408,464,cs),
(188,464,l)
);
},
{
closed = 1;
nodes = (
(176,108,l),
(176,356,l),
(188,368,l),
(448,368,ls),
(540,368,o),
(588,328,o),
(588,232,cs),
(588,136,o),
(540,96,o),
(448,96,cs),
(188,96,l)
);
}
);
width = 736;
},
{
layerId = m002;
shapes = (
{
closed = 1;
nodes = (
(420,0,ls),
(576,0,o),
(676,76,o),
(676,232,cs),
(676,336,o),
(608,396,o),
(540,420,c),
(540,436,l),
(596,464,o),
(640,508,o),
(640,596,cs),
(640,736,o),
(524,800,o),
(384,800,cs),
(52,800,l),
(36,784,l),
(36,16,l),
(52,0,l)
);
},
{
closed = 1;
nodes = (
(148,476,l),
(148,692,l),
(160,704,l),
(380,704,ls),
(476,704,o),
(524,672,o),
(524,584,cs),
(524,496,o),
(476,464,o),
(380,464,cs),
(160,464,l)
);
},
{
closed = 1;
nodes = (
(148,108,l),
(148,356,l),
(160,368,l),
(420,368,ls),
(512,368,o),
(560,328,o),
(560,232,cs),
(560,136,o),
(512,96,o),
(420,96,cs),
(160,96,l)
);
}
);
width = 708;
},
{
layerId = m003;
shapes = (
{
closed = 1;
nodes = (
(448,0,ls),
(604,0,o),
(704,76,o),
(704,232,cs),
(704,336,o),
(636,396,o),
(568,420,c),
(568,436,l),
(624,464,o),
(668,508,o),
(668,596,cs),
(668,736,o),
(552,800,o),
(412,800,cs),
(80,800,l),
(64,784,l),
(64,16,l),
(80,0,l)
);
},
{
closed = 1;
nodes = (
(176,476,l),
(176,692,l),
(188,704,l),
(408,704,ls),
(504,704,o),
(552,672,o),
(552,584,cs),
(552,496,o),
(504,464,o),
(408,464,cs),
(188,464,l)
);
},
{
closed = 1;
nodes = (
(176,108,l),
(176,356,l),
(188,368,l),
(448,368,ls),
(540,368,o),
(588,328,o),
(588,232,cs),
(588,136,o),
(540,96,o),
(448,96,cs),
(188,96,l)
);
}
);
width = 736;
},
{
layerId = m004;
shapes = (
{
closed = 1;
nodes = (
(432,0,ls),
(588,0,o),
(708,76,o),
(708,232,cs),
(708,336,o),
(644,404,o),
(576,428,c),
(576,444,l),
(632,472,o),
(676,508,o),
(676,596,cs),
(676,736,o),
(556,800,o),
(416,800,cs),
(48,800,l),
(32,784,l),
(32,16,l),
(48,0,l)
);
},
{
closed = 1;
nodes = (
(232,496,l),
(232,632,l),
(244,644,l),
(392,644,ls),
(448,644,o),
(488,620,o),
(488,564,cs),
(488,508,o),
(448,484,o),
(392,484,cs),
(244,484,l)
);
},
{
closed = 1;
nodes = (
(232,172,l),
(232,336,l),
(244,348,l),
(404,348,ls),
(468,348,o),
(512,320,o),
(512,256,cs),
(512,192,o),
(476,160,o),
(412,160,cs),
(244,160,l)
);
}
);
width = 732;
}
);
unicode = 66;
},
{
color = 5;
glyphname = C;
kernLeft = O;
kernRight = C;
lastChange = "2024-07-25 06:57:00 +0000";
layers = (
{
anchors = (
{
name = bottom;
pos = (420,0);
},
{
name = top;
pos = (424,800);
}
);
layerId = m01;
shapes = (
{
closed = 1;
nodes = (
(640,-16,o),
(740,124,o),
(760,252,c),
(760,268,l),
(744,284,l),
(664,284,l),
(648,268,l),
(632,176,o),
(572,84,o),
(424,84,cs),
(256,84,o),
(180,216,o),
(180,400,cs),
(180,584,o),
(256,716,o),
(424,716,cs),
(572,716,o),
(624,656,o),
(644,576,c),
(660,560,l),
(740,560,l),
(756,576,l),
(756,592,l),
(736,724,o),
(636,816,o),
(424,816,cs),
(192,816,o),
(64,648,o),
(64,400,cs),
(64,152,o),
(192,-16,o),
(424,-16,cs)
);
}
);
width = 820;
},
{
associatedMasterId = m01;
layerId = "64175680-2DAC-4C0C-AE61-49F6460695C3";
name = "Mar 25, 24 at 23:29";
shapes = (
{
closed = 1;
nodes = (
(664,-16,o),
(792,152,o),
(792,400,cs),
(792,648,o),
(664,816,o),
(416,816,cs),
(168,816,o),
(40,648,o),
(40,400,cs),
(40,152,o),
(168,-16,o),
(416,-16,cs)
);
},
{
closed = 1;
nodes = (
(232,88,o),
(152,216,o),
(152,400,cs),
(152,584,o),
(232,712,o),
(416,712,cs),
(600,712,o),
(680,584,o),
(680,400,cs),
(680,216,o),
(600,88,o),
(416,88,cs)
);
}
);
width = 832;
},
{
anchors = (
{
name = bottom;
pos = (388,0);
},
{
name = top;
pos = (392,800);
}
);
layerId = m002;
shapes = (
{
closed = 1;
nodes = (
(609,-16,o),
(708,124,o),
(728,252,c),
(728,268,l),
(712,284,l),
(632,284,l),
(616,268,l),
(600,176,o),
(540,84,o),
(392,84,cs),
(224,84,o),
(148,216,o),
(148,400,cs),
(148,584,o),
(224,716,o),
(392,716,cs),
(540,716,o),
(592,656,o),
(612,576,c),
(628,560,l),
(708,560,l),
(724,576,l),
(724,592,l),
(704,724,o),
(602,816,o),
(392,816,cs),
(160,816,o),
(32,648,o),
(32,400,cs),
(32,152,o),
(160,-16,o),
(392,-16,cs)
);
}
);
width = 744;
},
{
associatedMasterId = m002;
layerId = "CA9A74CC-DEFC-4913-90A3-D0844CC6A59B";
name = "Mar 25, 24 at 23:29";
shapes = (
{
closed = 1;
nodes = (
(664,-16,o),
(792,152,o),
(792,400,cs),
(792,648,o),
(664,816,o),
(416,816,cs),
(168,816,o),
(40,648,o),
(40,400,cs),
(40,152,o),
(168,-16,o),
(416,-16,cs)
);
},
{
closed = 1;
nodes = (
(232,88,o),
(152,216,o),
(152,400,cs),
(152,584,o),
(232,712,o),
(416,712,cs),
(600,712,o),
(680,584,o),
(680,400,cs),
(680,216,o),
(600,88,o),
(416,88,cs)
);
}
);
width = 832;
},
{
anchors = (
{
name = bottom;
pos = (420,0);
},
{
name = top;
pos = (424,800);
}
);
layerId = m003;
shapes = (
{
closed = 1;
nodes = (
(633,-16,o),
(740,112,o),
(768,248,c),
(768,264,l),
(752,280,l),
(580,280,l),
(564,264,l),
(548,192,o),
(472,156,o),
(408,156,cs),
(280,156,o),
(224,272,o),
(224,400,cs),
(224,528,o),
(280,644,o),
(408,644,cs),
(472,644,o),
(540,612,o),
(564,544,c),
(580,528,l),
(744,528,l),
(760,544,l),
(760,560,l),
(736,692,o),
(616,816,o),
(408,816,cs),
(172,816,o),
(16,636,o),
(16,400,cs),
(16,164,o),
(172,-16,o),
(408,-16,cs)
);
}
);
width = 820;
},
{
associatedMasterId = m003;
layerId = "F531D969-8569-4E7B-A043-F92C89391030";
name = "Mar 25, 24 at 23:29";
shapes = (
{
closed = 1;
nodes = (
(664,-16,o),
(792,152,o),
(792,400,cs),
(792,648,o),
(664,816,o),
(416,816,cs),
(168,816,o),
(40,648,o),
(40,400,cs),
(40,152,o),
(168,-16,o),
(416,-16,cs)
);
},
{
closed = 1;
nodes = (
(232,88,o),
(152,216,o),
(152,400,cs),
(152,584,o),
(232,712,o),
(416,712,cs),
(600,712,o),
(680,584,o),
(680,400,cs),
(680,216,o),
(600,88,o),
(416,88,cs)
);
}
);
width = 832;
},
{
anchors = (
{
name = bottom;
pos = (412,0);
},
{
name = top;
pos = (416,800);
}
);
layerId = m004;
shapes = (
{
closed = 1;
nodes = (
(640,-16,o),
(748,112,o),
(776,248,c),
(776,264,l),
(760,280,l),
(588,280,l),
(572,264,l),
(556,192,o),
(480,152,o),
(416,152,cs),
(288,152,o),
(232,272,o),
(232,400,cs),
(232,528,o),
(288,648,o),
(416,648,cs),
(480,648,o),
(548,612,o),
(572,544,c),
(588,528,l),
(752,528,l),
(768,544,l),
(768,560,l),
(744,692,o),
(624,816,o),
(416,816,cs),
(180,816,o),
(24,636,o),
(24,400,cs),
(24,164,o),
(180,-16,o),
(416,-16,cs)
);
}
);
width = 796;
},
{
anchors = (
{
name = bottom;
pos = (404,0);
},
{
name = top;
pos = (408,800);
}
);
associatedMasterId = m004;
backgroundImage = {
imagePath = "/Users/eli/Desktop/Screenshot 2024-07-23 at 7.52.15 PM.png";
pos = (-6888,-3456);
scale = (5.93,5.93);
};
layerId = "AEE1C9D5-3510-458A-B545-8858F1849F5D";
name = "Jul 23, 24 at 20:10";
shapes = (
{
closed = 1;
nodes = (
(644,-16,o),
(800,164,o),
(800,400,cs),
(800,636,o),
(644,816,o),
(408,816,cs),
(172,816,o),
(16,636,o),
(16,400,cs),
(16,164,o),
(172,-16,o),
(408,-16,cs)
);
},
{
closed = 1;
nodes = (
(224,528,o),
(280,644,o),
(408,644,cs),
(536,644,o),
(592,528,o),
(592,400,cs),
(592,272,o),
(536,156,o),
(408,156,cs),
(280,156,o),
(224,272,o),
(224,400,cs)
);
}
);
width = 792;
}
);
unicode = 67;
},
{
color = 5;
glyphname = Ccedilla;
lastChange = "2024-07-31 05:19:58 +0000";
layers = (
{
layerId = m01;
shapes = (
{
closed = 1;
nodes = (
(336,-212,o),
(388,-180,o),
(388,-124,cs),
(388,-72,o),
(352,-48,o),
(316,-48,cs),
(304,-48,o),
(288,-48,o),
(276,-52,c),
(272,-44,l),
(313,-15,l),
(515,-3,o),
(613,119,o),
(640,248,c),
(640,264,l),
(624,280,l),
(452,280,l),
(436,264,l),
(420,192,o),
(344,152,o),
(280,152,cs),
(152,152,o),
(96,272,o),
(96,400,cs),
(96,528,o),
(152,648,o),
(280,648,cs),
(344,648,o),
(412,612,o),
(436,544,c),
(452,528,l),
(616,528,l),
(632,544,l),
(632,560,l),
(608,692,o),
(488,816,o),
(280,816,cs),
(44,816,o),
(-112,636,o),
(-112,400,cs),
(-112,179,o),
(24,8,o),
(236,-12,c),
(236,-20,l),
(184,-76,l),
(200,-104,l),
(212,-104,l),
(220,-100,o),
(232,-96,o),
(244,-96,cs),
(264,-96,o),
(280,-108,o),
(280,-124,cs),
(280,-148,o),
(264,-160,o),
(224,-160,cs),
(196,-160,o),
(184,-156,o),
(156,-144,c),
(144,-144,l),
(128,-172,l),
(128,-184,l),
(160,-200,o),
(196,-212,o),
(248,-212,cs)
);
}
);
width = 600;
},
{
layerId = m002;
shapes = (
{
closed = 1;
nodes = (
(336,-212,o),
(388,-180,o),
(388,-124,cs),
(388,-72,o),
(352,-48,o),
(316,-48,cs),
(304,-48,o),
(288,-48,o),
(276,-52,c),
(272,-44,l),
(313,-15,l),
(515,-3,o),
(613,119,o),
(640,248,c),
(640,264,l),
(624,280,l),
(452,280,l),
(436,264,l),
(420,192,o),
(344,152,o),
(280,152,cs),
(152,152,o),
(96,272,o),
(96,400,cs),
(96,528,o),
(152,648,o),
(280,648,cs),
(344,648,o),
(412,612,o),
(436,544,c),
(452,528,l),
(616,528,l),
(632,544,l),
(632,560,l),
(608,692,o),
(488,816,o),
(280,816,cs),
(44,816,o),
(-112,636,o),
(-112,400,cs),
(-112,179,o),
(24,8,o),
(236,-12,c),
(236,-20,l),
(184,-76,l),
(200,-104,l),
(212,-104,l),
(220,-100,o),
(232,-96,o),
(244,-96,cs),
(264,-96,o),
(280,-108,o),
(280,-124,cs),
(280,-148,o),
(264,-160,o),
(224,-160,cs),
(196,-160,o),
(184,-156,o),
(156,-144,c),
(144,-144,l),
(128,-172,l),
(128,-184,l),
(160,-200,o),
(196,-212,o),
(248,-212,cs)
);
}
);
width = 600;
},
{
layerId = m003;
shapes = (
{
closed = 1;
nodes = (
(336,-212,o),
(388,-180,o),
(388,-124,cs),
(388,-72,o),
(352,-48,o),
(316,-48,cs),
(304,-48,o),
(288,-48,o),
(276,-52,c),
(272,-44,l),
(313,-15,l),
(515,-3,o),
(613,119,o),
(640,248,c),
(640,264,l),
(624,280,l),
(452,280,l),
(436,264,l),
(420,192,o),
(344,152,o),
(280,152,cs),
(152,152,o),
(96,272,o),
(96,400,cs),
(96,528,o),
(152,648,o),
(280,648,cs),
(344,648,o),
(412,612,o),
(436,544,c),
(452,528,l),
(616,528,l),
(632,544,l),
(632,560,l),
(608,692,o),
(488,816,o),
(280,816,cs),
(44,816,o),
(-112,636,o),
(-112,400,cs),
(-112,179,o),
(24,8,o),
(236,-12,c),
(236,-20,l),
(184,-76,l),
(200,-104,l),
(212,-104,l),
(220,-100,o),
(232,-96,o),
(244,-96,cs),
(264,-96,o),
(280,-108,o),
(280,-124,cs),
(280,-148,o),
(264,-160,o),
(224,-160,cs),
(196,-160,o),
(184,-156,o),
(156,-144,c),
(144,-144,l),
(128,-172,l),
(128,-184,l),
(160,-200,o),
(196,-212,o),
(248,-212,cs)
);
}
);
width = 600;
},
{
layerId = m004;
shapes = (
{
closed = 1;
nodes = (
(472,-212,o),
(524,-180,o),
(524,-124,cs),
(524,-72,o),
(488,-48,o),
(452,-48,cs),
(440,-48,o),
(424,-48,o),
(412,-52,c),
(408,-44,l),
(448,-16,l),
(652,-4,o),
(748,120,o),
(776,248,c),
(776,264,l),
(760,280,l),
(588,280,l),
(572,264,l),
(556,192,o),
(480,152,o),
(416,152,cs),
(288,152,o),
(232,272,o),
(232,400,cs),
(232,528,o),
(288,648,o),
(416,648,cs),
(480,648,o),
(548,612,o),
(572,544,c),
(588,528,l),
(752,528,l),
(768,544,l),
(768,560,l),
(744,692,o),
(624,816,o),
(416,816,cs),
(180,816,o),
(24,636,o),
(24,400,cs),
(24,180,o),
(160,8,o),
(372,-12,c),
(372,-20,l),
(320,-76,l),
(336,-104,l),
(348,-104,l),
(356,-100,o),
(368,-96,o),
(380,-96,cs),
(400,-96,o),
(416,-108,o),
(416,-124,cs),
(416,-148,o),
(400,-160,o),
(360,-160,cs),
(332,-160,o),
(320,-156,o),
(292,-144,c),
(280,-144,l),
(264,-172,l),
(264,-184,l),
(296,-200,o),
(332,-212,o),
(384,-212,cs)
);
}
);
width = 796;
}
);
unicode = 199;
},
{
color = 5;
glyphname = D;
kernLeft = H;
kernRight = O;
lastChange = "2024-08-03 18:38:00 +0000";
layers = (
{
anchors = (
{
name = bottom;
pos = (320,0);
},
{
name = center;
pos = (348,400);
},
{
name = top;
pos = (320,800);
}
);
layerId = m01;
shapes = (
{
closed = 1;
nodes = (
(356,0,ls),
(596,0,o),
(712,160,o),
(712,400,cs),
(712,640,o),
(596,800,o),
(356,800,cs),
(80,800,l),
(64,784,l),
(64,16,l),
(80,0,l)
);
},
{
closed = 1;
nodes = (
(176,108,l),
(176,692,l),
(188,704,l),
(320,704,ls),
(516,704,o),
(596,596,o),
(596,400,cs),
(596,208,o),
(516,96,o),
(320,96,cs),
(188,96,l)
);
}
);
width = 752;
},
{
anchors = (
{
name = bottom;
pos = (292,0);
},
{
name = center;
pos = (320,400);
},
{
name = top;
pos = (292,800);
}
);
layerId = m002;
shapes = (
{
closed = 1;
nodes = (
(324,0,ls),
(564,0,o),
(684,160,o),
(684,400,cs),
(684,640,o),
(564,800,o),
(324,800,cs),
(52,800,l),
(36,784,l),
(36,16,l),
(52,0,l)
);
},
{
closed = 1;
nodes = (
(148,108,l),
(148,692,l),
(160,704,l),
(292,704,ls),
(488,704,o),
(568,596,o),
(568,400,cs),
(568,208,o),
(488,96,o),
(292,96,cs),
(160,96,l)
);
}
);
width = 704;
},
{
anchors = (
{
name = bottom;
pos = (320,0);
},
{
name = center;
pos = (348,400);
},
{
name = top;
pos = (320,800);
}
);
layerId = m003;
shapes = (
{
closed = 1;
nodes = (
(356,0,ls),
(596,0,o),
(712,160,o),
(712,400,cs),
(712,640,o),
(596,800,o),
(356,800,cs),
(80,800,l),
(64,784,l),
(64,16,l),
(80,0,l)
);
},
{
closed = 1;
nodes = (
(176,108,l),
(176,692,l),
(188,704,l),
(320,704,ls),
(516,704,o),
(596,596,o),
(596,400,cs),
(596,208,o),
(516,96,o),
(320,96,cs),
(188,96,l)
);
}
);
width = 752;
},
{
anchors = (
{
name = bottom;
pos = (288,0);
},
{
name = center;
pos = (316,400);
},
{
name = top;
pos = (288,800);
}
);
layerId = m004;
shapes = (
{
closed = 1;
nodes = (
(368,0,ls),
(608,0,o),
(748,160,o),
(748,400,cs),
(748,640,o),
(608,800,o),
(368,800,cs),
(48,800,l),
(32,784,l),
(32,16,l),
(48,0,l)
);
},
{
closed = 1;
nodes = (
(232,180,l),
(232,620,l),
(244,632,l),
(336,632,ls),
(492,632,o),
(540,556,o),
(540,400,cs),
(540,244,o),
(492,168,o),
(336,168,cs),
(244,168,l)
);
}
);
width = 768;
}
);
unicode = 68;
},
{
color = 5;
glyphname = Dcroat;
lastChange = "2024-07-31 05:39:33 +0000";
layers = (
{
layerId = m01;
shapes = (
{
closed = 1;
nodes = (
(408,0,ls),
(648,0,o),
(788,160,o),
(788,400,cs),
(788,640,o),
(648,800,o),
(408,800,cs),
(88,800,l),
(72,784,l),
(72,496,l),
(60,484,l),
(32,484,l),
(16,468,l),
(16,348,l),
(32,332,l),
(60,332,l),
(72,320,l),
(72,16,l),
(88,0,l)
);
},
{
closed = 1;
nodes = (
(272,180,l),
(272,320,l),
(284,332,l),
(432,332,l),
(448,348,l),
(448,468,l),
(432,484,l),
(284,484,l),
(272,496,l),
(272,620,l),
(284,632,l),
(376,632,ls),
(532,632,o),
(580,556,o),
(580,400,cs),
(580,244,o),
(532,168,o),
(376,168,cs),
(284,168,l)
);
}
);
width = 600;
},
{
layerId = m002;
shapes = (
{
closed = 1;
nodes = (
(408,0,ls),
(648,0,o),
(788,160,o),
(788,400,cs),
(788,640,o),
(648,800,o),
(408,800,cs),
(88,800,l),
(72,784,l),
(72,496,l),
(60,484,l),
(32,484,l),
(16,468,l),
(16,348,l),
(32,332,l),
(60,332,l),
(72,320,l),
(72,16,l),
(88,0,l)
);
},
{
closed = 1;
nodes = (
(272,180,l),
(272,320,l),
(284,332,l),
(432,332,l),
(448,348,l),
(448,468,l),
(432,484,l),
(284,484,l),
(272,496,l),
(272,620,l),
(284,632,l),
(376,632,ls),
(532,632,o),
(580,556,o),
(580,400,cs),
(580,244,o),
(532,168,o),
(376,168,cs),
(284,168,l)
);
}
);
width = 600;
},
{
layerId = m003;
shapes = (
{
closed = 1;
nodes = (
(408,0,ls),
(648,0,o),
(788,160,o),
(788,400,cs),
(788,640,o),
(648,800,o),
(408,800,cs),
(88,800,l),
(72,784,l),
(72,496,l),
(60,484,l),
(32,484,l),
(16,468,l),
(16,348,l),
(32,332,l),
(60,332,l),
(72,320,l),
(72,16,l),
(88,0,l)
);
},
{
closed = 1;
nodes = (
(272,180,l),
(272,320,l),
(284,332,l),
(432,332,l),
(448,348,l),
(448,468,l),
(432,484,l),
(284,484,l),
(272,496,l),
(272,620,l),
(284,632,l),
(376,632,ls),
(532,632,o),
(580,556,o),
(580,400,cs),
(580,244,o),
(532,168,o),
(376,168,cs),
(284,168,l)
);
}
);
width = 600;
},
{
layerId = m004;
shapes = (
{
closed = 1;
nodes = (
(408,0,ls),
(648,0,o),
(788,160,o),
(788,400,cs),
(788,640,o),
(648,800,o),
(408,800,cs),
(88,800,l),
(72,784,l),
(72,496,l),
(60,484,l),
(32,484,l),
(16,468,l),
(16,348,l),
(32,332,l),
(60,332,l),
(72,320,l),
(72,16,l),
(88,0,l)
);
},
{
closed = 1;
nodes = (
(272,180,l),
(272,320,l),
(284,332,l),
(432,332,l),
(448,348,l),
(448,468,l),
(432,484,l),
(284,484,l),
(272,496,l),
(272,620,l),
(284,632,l),
(376,632,ls),
(532,632,o),
(580,556,o),
(580,400,cs),
(580,244,o),
(532,168,o),
(376,168,cs),
(284,168,l)
);
}
);
width = 812;
}
);
unicode = 272;
},
{
color = 5;
glyphname = E;
kernLeft = H;
kernRight = E;
lastChange = "2024-08-03 13:21:38 +0000";
layers = (
{
anchors = (
{
name = bottom;
pos = (296,0);
},
{
name = top;
pos = (296,800);
}
);
layerId = m01;
shapes = (
{
closed = 1;
nodes = (
(560,0,l),
(576,16,l),
(576,80,l),
(560,96,l),
(160,96,l),
(144,112,l),
(144,352,l),
(160,368,l),
(536,368,l),
(552,384,l),
(552,448,l),
(536,464,l),
(160,464,l),
(144,480,l),
(144,688,l),
(160,704,l),
(560,704,l),
(576,720,l),
(576,784,l),
(560,800,l),
(48,800,l),
(32,784,l),
(32,16,l),
(48,0,l)
);
}
);
width = 592;
},
{
anchors = (
{
name = bottom;
pos = (300,0);
},
{
name = top;
pos = (300,800);
}
);
layerId = m002;
shapes = (
{
closed = 1;
nodes = (
(564,0,l),
(580,16,l),
(580,80,l),
(564,96,l),
(164,96,l),
(148,112,l),
(148,352,l),
(164,368,l),
(532,368,l),
(548,384,l),
(548,448,l),
(532,464,l),
(164,464,l),
(148,480,l),
(148,688,l),
(164,704,l),
(564,704,l),
(580,720,l),
(580,784,l),
(564,800,l),
(52,800,l),
(36,784,l),
(36,16,l),
(52,0,l)
);
}
);
width = 612;
},
{
anchors = (
{
name = bottom;
pos = (296,0);
},
{
name = top;
pos = (296,800);
}
);
layerId = m003;
shapes = (
{
closed = 1;
nodes = (
(560,0,l),
(576,16,l),
(576,80,l),
(560,96,l),
(160,96,l),
(144,112,l),
(144,352,l),
(160,368,l),
(536,368,l),
(552,384,l),
(552,448,l),
(536,464,l),
(160,464,l),
(144,480,l),
(144,688,l),
(160,704,l),
(560,704,l),
(576,720,l),
(576,784,l),
(560,800,l),
(48,800,l),
(32,784,l),
(32,16,l),
(48,0,l)
);
}
);
width = 592;
},
{
anchors = (
{
name = bottom;
pos = (360,0);
},
{
name = top;
pos = (364,800);
}
);
layerId = m004;
shapes = (
{
closed = 1;
nodes = (
(632,0,l),
(648,16,l),
(648,152,l),
(632,168,l),
(244,168,l),
(232,180,l),
(232,324,l),
(244,336,l),
(568,336,l),
(584,352,l),
(584,480,l),
(568,496,l),
(244,496,l),
(232,508,l),
(232,624,l),
(244,636,l),
(624,636,l),
(640,652,l),
(640,784,l),
(624,800,l),
(48,800,l),
(32,784,l),
(32,16,l),
(48,0,l)
);
}
);
width = 668;
}
);
unicode = 69;
},
{
color = 5;
glyphname = Eogonek;
lastChange = "2024-07-31 06:12:15 +0000";
layers = (
{
layerId = m01;
shapes = (
{
closed = 1;
nodes = (
(472,0,l),
(472,-16,l),
(428,-28,o),
(404,-60,o),
(404,-100,cs),
(404,-156,o),
(452,-196,o),
(528,-196,cs),
(564,-196,o),
(592,-188,o),
(608,-180,c),
(624,-164,l),
(624,-112,l),
(608,-96,l),
(592,-96,ls),
(564,-96,o),
(552,-88,o),
(552,-64,cs),
(552,-48,o),
(560,-28,o),
(596,0,c),
(624,0,l),
(640,16,l),
(640,152,l),
(624,168,l),
(244,168,l),
(232,180,l),
(232,324,l),
(244,336,l),
(568,336,l),
(584,352,l),
(584,480,l),
(568,496,l),
(244,496,l),
(232,508,l),
(232,624,l),
(244,636,l),
(624,636,l),
(640,652,l),
(640,784,l),
(624,800,l),
(48,800,l),
(32,784,l),
(32,16,l),
(48,0,l)
);
}
);
width = 600;
},
{
layerId = m002;
shapes = (
{
closed = 1;
nodes = (
(472,0,l),
(472,-12,l),
(428,-28,o),
(404,-60,o),
(404,-100,cs),
(404,-156,o),
(452,-196,o),
(528,-196,cs),
(564,-196,o),
(592,-188,o),
(608,-180,c),
(624,-164,l),
(624,-112,l),
(608,-96,l),
(592,-96,ls),
(564,-96,o),
(552,-88,o),
(552,-64,cs),
(552,-48,o),
(560,-28,o),
(596,0,c),
(624,0,l),
(640,16,l),
(640,152,l),
(624,168,l),
(244,168,l),
(232,180,l),
(232,324,l),
(244,336,l),
(568,336,l),
(584,352,l),
(584,480,l),
(568,496,l),
(244,496,l),
(232,508,l),
(232,624,l),
(244,636,l),
(624,636,l),
(640,652,l),
(640,784,l),
(624,800,l),
(48,800,l),
(32,784,l),
(32,16,l),
(48,0,l)
);
}
);
width = 600;
},
{
layerId = m003;
shapes = (
{
closed = 1;
nodes = (
(472,0,l),
(472,-12,l),
(428,-28,o),
(404,-60,o),
(404,-100,cs),
(404,-156,o),
(452,-196,o),
(528,-196,cs),
(564,-196,o),
(592,-188,o),
(608,-180,c),
(624,-164,l),
(624,-112,l),
(608,-96,l),
(592,-96,ls),
(564,-96,o),
(552,-88,o),
(552,-64,cs),
(552,-48,o),
(560,-28,o),
(596,0,c),
(624,0,l),
(640,16,l),
(640,152,l),
(624,168,l),
(244,168,l),
(232,180,l),
(232,324,l),
(244,336,l),
(568,336,l),
(584,352,l),
(584,480,l),
(568,496,l),
(244,496,l),
(232,508,l),
(232,624,l),
(244,636,l),
(624,636,l),
(640,652,l),
(640,784,l),
(624,800,l),
(48,800,l),
(32,784,l),
(32,16,l),
(48,0,l)
);
}
);
width = 600;
},
{
layerId = m004;
shapes = (
{
closed = 1;
nodes = (
(472,0,l),
(472,-12,l),
(428,-28,o),
(404,-60,o),
(404,-100,cs),
(404,-156,o),
(452,-196,o),
(528,-196,cs),
(564,-196,o),
(592,-188,o),
(608,-180,c),
(624,-164,l),
(624,-112,l),
(608,-96,l),
(592,-96,ls),
(564,-96,o),
(552,-88,o),
(552,-64,cs),
(552,-48,o),
(560,-28,o),
(596,0,c),
(624,0,l),
(640,16,l),
(640,152,l),
(624,168,l),
(244,168,l),
(232,180,l),
(232,324,l),
(244,336,l),
(568,336,l),
(584,352,l),
(584,480,l),
(568,496,l),
(244,496,l),
(232,508,l),
(232,624,l),
(244,636,l),
(624,636,l),
(640,652,l),
(640,784,l),
(624,800,l),
(48,800,l),
(32,784,l),
(32,16,l),
(48,0,l)
);
}
);
width = 664;
}
);
unicode = 280;
},
{
color = 5;
glyphname = F;
kernLeft = H;
kernRight = F;
lastChange = "2024-07-24 20:11:56 +0000";
layers = (
{
layerId = m01;
shapes = (
{
closed = 1;
nodes = (
(192,0,l),
(208,16,l),
(208,344,l),
(220,356,l),
(536,356,l),
(552,372,l),
(552,436,l),
(536,452,l),
(220,452,l),
(208,464,l),
(208,692,l),
(220,704,l),
(600,704,l),
(616,720,l),
(616,784,l),
(600,800,l),
(112,800,l),
(96,784,l),
(96,16,l),
(112,0,l)
);
}
);
width = 656;
},
{
layerId = m002;
shapes = (
{
closed = 1;
nodes = (
(160,0,l),
(176,16,l),
(176,344,l),
(188,356,l),
(504,356,l),
(520,372,l),
(520,436,l),
(504,452,l),
(188,452,l),
(176,464,l),
(176,692,l),
(188,704,l),
(568,704,l),
(584,720,l),
(584,784,l),
(568,800,l),
(80,800,l),
(64,784,l),
(64,16,l),
(80,0,l)
);
}
);
width = 616;
},
{
layerId = m003;
shapes = (
{
closed = 1;
nodes = (
(192,0,l),
(208,16,l),
(208,344,l),
(220,356,l),
(536,356,l),
(552,372,l),
(552,436,l),
(536,452,l),
(220,452,l),
(208,464,l),
(208,692,l),
(220,704,l),
(600,704,l),
(616,720,l),
(616,784,l),
(600,800,l),
(112,800,l),
(96,784,l),
(96,16,l),
(112,0,l)
);
}
);
width = 656;
},
{
layerId = m004;
shapes = (
{
closed = 1;
nodes = (
(216,0,l),
(232,16,l),
(232,300,l),
(244,312,l),
(552,312,l),
(568,328,l),
(568,460,l),
(552,476,l),
(244,476,l),
(232,488,l),
(232,620,l),
(244,632,l),
(616,632,l),
(632,648,l),
(632,784,l),
(616,800,l),
(48,800,l),
(32,784,l),
(32,16,l),
(48,0,l)
);
}
);
width = 648;
}
);
unicode = 70;
},
{
color = 5;
glyphname = G;
kernLeft = G;
kernRight = G;
lastChange = "2024-08-03 19:40:40 +0000";
layers = (
{
anchors = (
{
name = bottom;
pos = (440,0);
},
{
name = top;
pos = (440,800);
}
);
layerId = m01;
shapes = (
{
closed = 1;
nodes = (
(548,-16,o),
(636,44,o),
(692,120,c),
(708,120,l),
(712,16,l),
(728,0,l),
(784,0,l),
(800,16,l),
(800,416,l),
(784,432,l),
(472,432,l),
(456,416,l),
(456,352,l),
(472,336,l),
(684,336,l),
(696,324,l),
(696,212,o),
(608,84,o),
(440,84,cs),
(256,84,o),
(180,216,o),
(180,400,cs),
(180,584,o),
(256,716,o),
(440,716,cs),
(584,716,o),
(664,640,o),
(676,576,c),
(692,560,l),
(768,560,l),
(784,576,l),
(784,592,l),
(768,704,o),
(672,816,o),
(440,816,cs),
(200,816,o),
(64,640,o),
(64,400,cs),
(64,152,o),
(196,-16,o),
(428,-16,cs)
);
}
);
width = 864;
},
{
associatedMasterId = m01;
layerId = "51D1C8E2-FE34-4DA9-B6DB-6F3F79AC0821";
name = "Mar 13, 24 at 21:47";
shapes = (
{
closed = 1;
nodes = (
(664,-16,o),
(792,152,o),
(792,400,cs),
(792,648,o),
(664,816,o),
(416,816,cs),
(168,816,o),
(40,648,o),
(40,400,cs),
(40,152,o),
(168,-16,o),
(416,-16,cs)
);
},
{
closed = 1;
nodes = (
(232,88,o),
(152,216,o),
(152,400,cs),
(152,584,o),
(232,712,o),
(416,712,cs),
(600,712,o),
(680,584,o),
(680,400,cs),
(680,216,o),
(600,88,o),
(416,88,cs)
);
}
);
width = 780;
},
{
anchors = (
{
name = bottom;
pos = (416,0);
},
{
name = top;
pos = (416,800);
}
);
layerId = m002;
shapes = (
{
closed = 1;
nodes = (
(524,-16,o),
(612,44,o),
(668,120,c),
(684,120,l),
(688,16,l),
(704,0,l),
(760,0,l),
(776,16,l),
(776,416,l),
(760,432,l),
(448,432,l),
(432,416,l),
(432,352,l),
(448,336,l),
(660,336,l),
(672,324,l),
(672,212,o),
(584,84,o),
(416,84,cs),
(232,84,o),
(156,216,o),
(156,400,cs),
(156,584,o),
(232,716,o),
(416,716,cs),
(560,716,o),
(640,640,o),
(652,576,c),
(668,560,l),
(744,560,l),
(760,576,l),
(760,592,l),
(744,704,o),
(646,816,o),
(416,816,cs),
(176,816,o),
(40,640,o),
(40,400,cs),
(40,152,o),
(172,-16,o),
(404,-16,cs)
);
}
);
width = 816;
},
{
associatedMasterId = m002;
layerId = "63F90547-29FE-4CEC-9B60-D692042BC347";
name = "Mar 13, 24 at 21:47";
shapes = (
{
closed = 1;
nodes = (
(664,-16,o),
(792,152,o),
(792,400,cs),
(792,648,o),
(664,816,o),
(416,816,cs),
(168,816,o),
(40,648,o),
(40,400,cs),
(40,152,o),
(168,-16,o),
(416,-16,cs)
);
},
{
closed = 1;
nodes = (
(232,88,o),
(152,216,o),
(152,400,cs),
(152,584,o),
(232,712,o),
(416,712,cs),
(600,712,o),
(680,584,o),
(680,400,cs),
(680,216,o),
(600,88,o),
(416,88,cs)
);
}
);
width = 780;
},
{
anchors = (
{
name = bottom;
pos = (440,0);
},
{
name = top;
pos = (440,800);
}
);
layerId = m003;
shapes = (
{
closed = 1;
nodes = (
(528,-16,o),
(596,16,o),
(648,88,c),
(664,88,l),
(672,16,l),
(688,0,l),
(792,0,l),
(808,16,l),
(808,416,l),
(792,432,l),
(492,432,l),
(476,416,l),
(476,300,l),
(492,284,l),
(608,284,l),
(620,272,l),
(612,192,o),
(528,144,o),
(448,144,cs),
(308,144,o),
(252,260,o),
(252,400,cs),
(252,540,o),
(308,652,o),
(448,652,cs),
(524,652,o),
(580,620,o),
(596,556,c),
(612,540,l),
(776,540,l),
(792,556,l),
(792,572,l),
(764,680,o),
(672,816,o),
(448,816,cs),
(208,816,o),
(44,640,o),
(44,400,cs),
(44,152,o),
(188,-16,o),
(436,-16,cs)
);
}
);
width = 864;
},
{
associatedMasterId = m003;
layerId = "A26014AB-A1B9-4A25-B070-4A46B7411C36";
name = "Mar 13, 24 at 21:47";
shapes = (
{
closed = 1;
nodes = (
(664,-16,o),
(792,152,o),
(792,400,cs),
(792,648,o),
(664,816,o),
(416,816,cs),
(168,816,o),
(40,648,o),
(40,400,cs),
(40,152,o),
(168,-16,o),
(416,-16,cs)
);
},
{
closed = 1;
nodes = (
(232,88,o),
(152,216,o),
(152,400,cs),
(152,584,o),
(232,712,o),
(416,712,cs),
(600,712,o),
(680,584,o),
(680,400,cs),
(680,216,o),
(600,88,o),
(416,88,cs)
);
}
);
width = 780;
},
{
anchors = (
{
name = bottom;
pos = (428,0);
},
{
name = top;
pos = (428,800);
}
);
layerId = m004;
shapes = (
{
closed = 1;
nodes = (
(508,-16,o),
(576,16,o),
(628,88,c),
(644,88,l),
(652,16,l),
(668,0,l),
(772,0,l),
(788,16,l),
(788,416,l),
(772,432,l),
(468,432,l),
(452,416,l),
(452,300,l),
(468,284,l),
(588,284,l),
(600,272,l),
(592,192,o),
(508,148,o),
(428,148,cs),
(288,148,o),
(232,260,o),
(232,400,cs),
(232,540,o),
(288,648,o),
(428,648,cs),
(504,648,o),
(560,620,o),
(576,556,c),
(592,540,l),
(752,540,l),
(768,556,l),
(768,572,l),
(740,680,o),
(652,816,o),
(412,816,cs),
(188,816,o),
(24,640,o),
(24,400,cs),
(24,152,o),
(168,-16,o),
(416,-16,cs)
);
}
);
width = 816;
},
{
associatedMasterId = m004;
layerId = "E8DC0CE2-F37E-4705-8E41-462FDF713D98";
name = "Mar 13, 24 at 21:47";
shapes = (
{
closed = 1;
nodes = (
(664,-16,o),
(792,152,o),
(792,400,cs),
(792,648,o),
(664,816,o),
(416,816,cs),
(168,816,o),
(40,648,o),
(40,400,cs),
(40,152,o),
(168,-16,o),
(416,-16,cs)
);
},
{
closed = 1;
nodes = (
(232,88,o),
(152,216,o),
(152,400,cs),
(152,584,o),
(232,712,o),
(416,712,cs),
(600,712,o),
(680,584,o),
(680,400,cs),
(680,216,o),
(600,88,o),
(416,88,cs)
);
}
);
width = 780;
}
);
unicode = 71;
},
{
color = 5;
glyphname = H;
kernLeft = H;
kernRight = H;
lastChange = "2024-08-05 01:13:55 +0000";
layers = (
{
layerId = m01;
shapes = (
{
closed = 1;
nodes = (
(184,0,l),
(200,16,l),
(200,360,l),
(212,372,l),
(600,372,l),
(612,360,l),
(612,16,l),
(628,0,l),
(708,0,l),
(724,16,l),
(724,784,l),
(708,800,l),
(628,800,l),
(612,784,l),
(612,480,l),
(600,468,l),
(212,468,l),
(200,480,l),
(200,784,l),
(184,800,l),
(104,800,l),
(88,784,l),
(88,16,l),
(104,0,l)
);
}
);
width = 812;
},
{
layerId = m002;
shapes = (
{
closed = 1;
nodes = (
(128,0,l),
(144,16,l),
(144,360,l),
(156,372,l),
(544,372,l),
(556,360,l),
(556,16,l),
(572,0,l),
(652,0,l),
(668,16,l),
(668,784,l),
(652,800,l),
(572,800,l),
(556,784,l),
(556,480,l),
(544,468,l),
(156,468,l),
(144,480,l),
(144,784,l),
(128,800,l),
(48,800,l),
(32,784,l),
(32,16,l),
(48,0,l)
);
}
);
width = 700;
},
{
layerId = m003;
shapes = (
{
closed = 1;
nodes = (
(184,0,l),
(200,16,l),
(200,360,l),
(212,372,l),
(600,372,l),
(612,360,l),
(612,16,l),
(628,0,l),
(708,0,l),
(724,16,l),
(724,784,l),
(708,800,l),
(628,800,l),
(612,784,l),
(612,480,l),
(600,468,l),
(212,468,l),
(200,480,l),
(200,784,l),
(184,800,l),
(104,800,l),
(88,784,l),
(88,16,l),
(104,0,l)
);
}
);
width = 812;
},
{
layerId = m004;
shapes = (
{
closed = 1;
nodes = (
(216,0,l),
(232,16,l),
(232,320,l),
(244,332,l),
(496,332,l),
(508,320,l),
(508,16,l),
(524,0,l),
(692,0,l),
(708,16,l),
(708,784,l),
(692,800,l),
(524,800,l),
(508,784,l),
(508,512,l),
(496,500,l),
(244,500,l),
(232,512,l),
(232,784,l),
(216,800,l),
(48,800,l),
(32,784,l),
(32,16,l),
(48,0,l)
);
}
);
width = 740;
}
);
unicode = 72;
},
{
color = 5;
glyphname = Hbar;
lastChange = "2024-07-31 06:16:12 +0000";
layers = (
{
layerId = m01;
shapes = (
{
closed = 1;
nodes = (
(260,0,l),
(276,16,l),
(276,320,l),
(288,332,l),
(540,332,l),
(552,320,l),
(552,16,l),
(568,0,l),
(736,0,l),
(752,16,l),
(752,564,l),
(764,576,l),
(796,576,l),
(812,592,l),
(812,656,l),
(796,672,l),
(764,672,l),
(752,684,l),
(752,784,l),
(736,800,l),
(568,800,l),
(552,784,l),
(552,688,l),
(540,676,l),
(288,676,l),
(276,688,l),
(276,784,l),
(260,800,l),
(92,800,l),
(76,784,l),
(76,684,l),
(64,672,l),
(32,672,l),
(16,656,l),
(16,592,l),
(32,576,l),
(64,576,l),
(76,564,l),
(76,16,l),
(92,0,l)
);
},
{
closed = 1;
nodes = (
(276,564,l),
(288,576,l),
(540,576,l),
(552,564,l),
(552,512,l),
(540,500,l),
(288,500,l),
(276,512,l)
);
}
);
width = 600;
},
{
layerId = m002;
shapes = (
{
closed = 1;
nodes = (
(260,0,l),
(276,16,l),
(276,320,l),
(288,332,l),
(540,332,l),
(552,320,l),
(552,16,l),
(568,0,l),
(736,0,l),
(752,16,l),
(752,564,l),
(764,576,l),
(796,576,l),
(812,592,l),
(812,656,l),
(796,672,l),
(764,672,l),
(752,684,l),
(752,784,l),
(736,800,l),
(568,800,l),
(552,784,l),
(552,688,l),
(540,676,l),
(288,676,l),
(276,688,l),
(276,784,l),
(260,800,l),
(92,800,l),
(76,784,l),
(76,684,l),
(64,672,l),
(32,672,l),
(16,656,l),
(16,592,l),
(32,576,l),
(64,576,l),
(76,564,l),
(76,16,l),
(92,0,l)
);
},
{
closed = 1;
nodes = (
(276,564,l),
(288,576,l),
(540,576,l),
(552,564,l),
(552,512,l),
(540,500,l),
(288,500,l),
(276,512,l)
);
}
);
width = 600;
},
{
layerId = m003;
shapes = (
{
closed = 1;
nodes = (
(260,0,l),
(276,16,l),
(276,320,l),
(288,332,l),
(540,332,l),
(552,320,l),
(552,16,l),
(568,0,l),
(736,0,l),
(752,16,l),
(752,564,l),
(764,576,l),
(796,576,l),
(812,592,l),
(812,656,l),
(796,672,l),
(764,672,l),
(752,684,l),
(752,784,l),
(736,800,l),
(568,800,l),
(552,784,l),
(552,688,l),
(540,676,l),
(288,676,l),
(276,688,l),
(276,784,l),
(260,800,l),
(92,800,l),
(76,784,l),
(76,684,l),
(64,672,l),
(32,672,l),
(16,656,l),
(16,592,l),
(32,576,l),
(64,576,l),
(76,564,l),
(76,16,l),
(92,0,l)
);
},
{
closed = 1;
nodes = (
(276,564,l),
(288,576,l),
(540,576,l),
(552,564,l),
(552,512,l),
(540,500,l),
(288,500,l),
(276,512,l)
);
}
);
width = 600;
},
{
layerId = m004;
shapes = (
{
closed = 1;
nodes = (
(260,0,l),
(276,16,l),
(276,320,l),
(288,332,l),
(540,332,l),
(552,320,l),
(552,16,l),
(568,0,l),
(736,0,l),
(752,16,l),
(752,564,l),
(764,576,l),
(796,576,l),
(812,592,l),
(812,656,l),
(796,672,l),
(764,672,l),
(752,684,l),
(752,784,l),
(736,800,l),
(568,800,l),
(552,784,l),
(552,688,l),
(540,676,l),
(288,676,l),
(276,688,l),
(276,784,l),
(260,800,l),
(92,800,l),
(76,784,l),
(76,684,l),
(64,672,l),
(32,672,l),
(16,656,l),
(16,592,l),
(32,576,l),
(64,576,l),
(76,564,l),
(76,16,l),
(92,0,l)
);
},
{
closed = 1;
nodes = (
(276,564,l),
(288,576,l),
(540,576,l),
(552,564,l),
(552,512,l),
(540,500,l),
(288,500,l),
(276,512,l)
);
}
);
width = 828;
}
);
unicode = 294;
},
{
color = 5;
glyphname = I;
kernLeft = H;
lastChange = "2024-08-05 01:02:08 +0000";
layers = (
{
anchors = (
{
name = bottom;
pos = (144,0);
},
{
name = top;
pos = (144,800);
}
);
layerId = m01;
shapes = (
{
closed = 1;
nodes = (
(184,0,l),
(200,16,l),
(200,784,l),
(184,800,l),
(104,800,l),
(88,784,l),
(88,16,l),
(104,0,l)
);
}
);
width = 288;
},
{
anchors = (
{
name = bottom;
pos = (88,0);
},
{
name = top;
pos = (88,800);
}
);
layerId = m002;
shapes = (
{
closed = 1;
nodes = (
(128,0,l),
(144,16,l),
(144,784,l),
(128,800,l),
(48,800,l),
(32,784,l),
(32,16,l),
(48,0,l)
);
}
);
width = 176;
},
{
anchors = (
{
name = bottom;
pos = (168,0);
},
{
name = top;
pos = (168,800);
}
);
layerId = m003;
shapes = (
{
closed = 1;
nodes = (
(248,0,l),
(264,16,l),
(264,784,l),
(248,800,l),
(80,800,l),
(64,784,l),
(64,16,l),
(80,0,l)
);
}
);
width = 328;
},
{
anchors = (
{
name = bottom;
pos = (136,0);
},
{
name = top;
pos = (136,800);
}
);
layerId = m004;
shapes = (
{
closed = 1;
nodes = (
(216,0,l),
(232,16,l),
(232,784,l),
(216,800,l),
(48,800,l),
(32,784,l),
(32,16,l),
(48,0,l)
);
}
);
width = 264;
}
);
unicode = 73;
},
{
color = 5;
glyphname = Iogonek;
lastChange = "2024-07-31 06:21:22 +0000";
layers = (
{
layerId = m01;
shapes = (
{
closed = 1;
nodes = (
(92,0,l),
(92,-12,l),
(48,-28,o),
(24,-60,o),
(24,-100,cs),
(24,-156,o),
(72,-196,o),
(148,-196,cs),
(184,-196,o),
(212,-188,o),
(228,-180,c),
(244,-164,l),
(244,-112,l),
(228,-96,l),
(212,-96,ls),
(184,-96,o),
(172,-88,o),
(172,-64,cs),
(172,-48,o),
(180,-28,o),
(216,0,c),
(232,16,l),
(232,784,l),
(216,800,l),
(48,800,l),
(32,784,l),
(32,16,l),
(48,0,l)
);
}
);
width = 600;
},
{
layerId = m002;
shapes = (
{
closed = 1;
nodes = (
(92,0,l),
(92,-12,l),
(48,-28,o),
(24,-60,o),
(24,-100,cs),
(24,-156,o),
(72,-196,o),
(148,-196,cs),
(184,-196,o),
(212,-188,o),
(228,-180,c),
(244,-164,l),
(244,-112,l),
(228,-96,l),
(212,-96,ls),
(184,-96,o),
(172,-88,o),
(172,-64,cs),
(172,-48,o),
(180,-28,o),
(216,0,c),
(232,16,l),
(232,784,l),
(216,800,l),
(48,800,l),
(32,784,l),
(32,16,l),
(48,0,l)
);
}
);
width = 600;
},
{
layerId = m003;
shapes = (
{
closed = 1;
nodes = (
(92,0,l),
(92,-12,l),
(48,-28,o),
(24,-60,o),
(24,-100,cs),
(24,-156,o),
(72,-196,o),
(148,-196,cs),
(184,-196,o),
(212,-188,o),
(228,-180,c),
(244,-164,l),
(244,-112,l),
(228,-96,l),
(212,-96,ls),
(184,-96,o),
(172,-88,o),
(172,-64,cs),
(172,-48,o),
(180,-28,o),
(216,0,c),
(232,16,l),
(232,784,l),
(216,800,l),
(48,800,l),
(32,784,l),
(32,16,l),
(48,0,l)
);
}
);
width = 600;
},
{
layerId = m004;
shapes = (
{
closed = 1;
nodes = (
(92,0,l),
(92,-12,l),
(48,-28,o),
(24,-60,o),
(24,-100,cs),
(24,-156,o),
(72,-196,o),
(148,-196,cs),
(184,-196,o),
(212,-188,o),
(228,-180,c),
(244,-164,l),
(244,-112,l),
(228,-96,l),
(212,-96,ls),
(184,-96,o),
(172,-88,o),
(172,-64,cs),
(172,-48,o),
(180,-28,o),
(216,0,c),
(232,16,l),
(232,784,l),
(216,800,l),
(48,800,l),
(32,784,l),
(32,16,l),
(48,0,l)
);
}
);
width = 264;
}
);
unicode = 302;
},
{
color = 5;
glyphname = J;
lastChange = "2024-07-24 20:41:07 +0000";
layers = (
{
layerId = m01;
shapes = (
{
closed = 1;
nodes = (
(400,-16,o),
(480,72,o),
(480,224,cs),
(480,784,l),
(464,800,l),
(384,800,l),
(368,784,l),
(368,224,ls),
(368,140,o),
(332,84,o),
(248,84,cs),
(164,84,o),
(128,140,o),
(128,224,cs),
(128,260,l),
(112,276,l),
(32,276,l),
(16,260,l),
(16,224,ls),
(16,72,o),
(96,-16,o),
(248,-16,cs)
);
}
);
width = 524;
},
{
layerId = m002;
shapes = (
{
closed = 1;
nodes = (
(400,-16,o),
(480,72,o),
(480,224,cs),
(480,784,l),
(464,800,l),
(384,800,l),
(368,784,l),
(368,224,ls),
(368,140,o),
(332,84,o),
(248,84,cs),
(164,84,o),
(128,140,o),
(128,224,cs),
(128,260,l),
(112,276,l),
(32,276,l),
(16,260,l),
(16,224,ls),
(16,72,o),
(96,-16,o),
(248,-16,cs)
);
}
);
width = 524;
},
{
layerId = m003;
shapes = (
{
closed = 1;
nodes = (
(400,-16,o),
(480,72,o),
(480,224,cs),
(480,784,l),
(464,800,l),
(384,800,l),
(368,784,l),
(368,224,ls),
(368,140,o),
(332,84,o),
(248,84,cs),
(164,84,o),
(128,140,o),
(128,224,cs),
(128,260,l),
(112,276,l),
(32,276,l),
(16,260,l),
(16,224,ls),
(16,72,o),
(96,-16,o),
(248,-16,cs)
);
}
);
width = 524;
},
{
layerId = m004;
shapes = (
{
closed = 1;
nodes = (
(432,-16,o),
(568,68,o),
(568,220,cs),
(568,784,l),
(552,800,l),
(384,800,l),
(368,784,l),
(368,228,ls),
(368,176,o),
(332,152,o),
(280,152,cs),
(228,152,o),
(200,176,o),
(200,228,cs),
(200,296,l),
(184,312,l),
(32,312,l),
(16,296,l),
(16,220,ls),
(16,68,o),
(128,-16,o),
(280,-16,cs)
);
}
);
width = 600;
}
);
unicode = 74;
},
{
color = 5;
glyphname = K;
lastChange = "2024-08-03 13:39:32 +0000";
layers = (
{
anchors = (
{
name = bottom;
pos = (344,0);
}
);
layerId = m01;
shapes = (
{
closed = 1;
nodes = (
(168,0,l),
(184,16,l),
(184,276,l),
(308,396,l),
(320,396,l),
(604,12,l),
(620,0,l),
(664,0,l),
(680,16,l),
(680,84,l),
(396,468,l),
(396,480,l),
(644,720,l),
(644,784,l),
(628,800,l),
(592,800,l),
(568,784,l),
(196,428,l),
(184,428,l),
(184,784,l),
(168,800,l),
(88,800,l),
(72,784,l),
(72,16,l),
(88,0,l)
);
}
);
width = 704;
},
{
anchors = (
{
name = bottom;
pos = (344,0);
}
);
layerId = m002;
shapes = (
{
closed = 1;
nodes = (
(168,0,l),
(184,16,l),
(184,276,l),
(308,396,l),
(320,396,l),
(604,12,l),
(620,0,l),
(664,0,l),
(680,16,l),
(680,84,l),
(396,468,l),
(396,480,l),
(644,720,l),
(644,784,l),
(628,800,l),
(592,800,l),
(568,784,l),
(196,428,l),
(184,428,l),
(184,784,l),
(168,800,l),
(88,800,l),
(72,784,l),
(72,16,l),
(88,0,l)
);
}
);
width = 704;
},
{
anchors = (
{
name = bottom;
pos = (344,0);
}
);
layerId = m003;
shapes = (
{
closed = 1;
nodes = (
(168,0,l),
(184,16,l),
(184,276,l),
(308,396,l),
(320,396,l),
(604,12,l),
(620,0,l),
(664,0,l),
(680,16,l),
(680,84,l),
(396,468,l),
(396,480,l),
(644,720,l),
(644,784,l),
(628,800,l),
(592,800,l),
(568,784,l),
(196,428,l),
(184,428,l),
(184,784,l),
(168,800,l),
(88,800,l),
(72,784,l),
(72,16,l),
(88,0,l)
);
}
);
width = 704;
},
{
anchors = (
{
name = bottom;
pos = (304,0);
}
);
layerId = m004;
shapes = (
{
closed = 1;
nodes = (
(216,0,l),
(232,16,l),
(232,276,l),
(292,340,l),
(304,340,l),
(524,8,l),
(540,0,l),
(692,0,l),
(708,16,l),
(708,80,l),
(440,472,l),
(440,484,l),
(664,720,l),
(664,784,l),
(648,800,l),
(516,800,l),
(492,784,l),
(244,524,l),
(232,524,l),
(232,784,l),
(216,800,l),
(48,800,l),
(32,784,l),
(32,16,l),
(48,0,l)
);
}
);
width = 724;
}
);
unicode = 75;
},
{
color = 5;
glyphname = L;
kernLeft = L;
kernRight = L;
lastChange = "2024-07-24 20:59:48 +0000";
layers = (
{
anchors = (
{
name = bottom;
pos = (328,0);
},
{
name = top;
pos = (152,800);
}
);
layerId = m01;
shapes = (
{
closed = 1;
nodes = (
(596,0,l),
(612,16,l),
(612,80,l),
(596,96,l),
(224,96,l),
(208,112,l),
(208,784,l),
(192,800,l),
(112,800,l),
(96,784,l),
(96,16,l),
(112,0,l)
);
}
);
width = 644;
},
{
anchors = (
{
name = bottom;
pos = (296,0);
},
{
name = top;
pos = (120,800);
}
);
layerId = m002;
shapes = (
{
closed = 1;
nodes = (
(564,0,l),
(580,16,l),
(580,80,l),
(564,96,l),
(192,96,l),
(176,112,l),
(176,784,l),
(160,800,l),
(80,800,l),
(64,784,l),
(64,16,l),
(80,0,l)
);
}
);
width = 604;
},
{
anchors = (
{
name = bottom;
pos = (328,0);
},
{
name = top;
pos = (152,800);
}
);
layerId = m003;
shapes = (
{
closed = 1;
nodes = (
(596,0,l),
(612,16,l),
(612,80,l),
(596,96,l),
(224,96,l),
(208,112,l),
(208,784,l),
(192,800,l),
(112,800,l),
(96,784,l),
(96,16,l),
(112,0,l)
);
}
);
width = 644;
},
{
anchors = (
{
name = bottom;
pos = (264,0);
},
{
name = top;
pos = (88,800);
}
);
layerId = m004;
shapes = (
{
closed = 1;
nodes = (
(572,0,l),
(588,16,l),
(588,152,l),
(572,168,l),
(244,168,l),
(232,180,l),
(232,784,l),
(216,800,l),
(48,800,l),
(32,784,l),
(32,16,l),
(48,0,l)
);
}
);
width = 604;
}
);
unicode = 76;
},
{
color = 5;
glyphname = Lcaron;
lastChange = "2024-07-31 06:23:27 +0000";
layers = (
{
layerId = m01;
shapes = (
{
closed = 1;
nodes = (
(572,0,l),
(588,16,l),
(588,152,l),
(572,168,l),
(244,168,l),
(232,180,l),
(232,784,l),
(216,800,l),
(48,800,l),
(32,784,l),
(32,16,l),
(48,0,l)
);
},
{
closed = 1;
nodes = (
(484,424,o),
(540,520,o),
(540,612,cs),
(540,784,l),
(524,800,l),
(364,800,l),
(348,784,l),
(348,628,l),
(364,612,l),
(424,612,l),
(436,600,l),
(436,544,o),
(412,512,o),
(364,492,c),
(348,476,l),
(348,428,l),
(364,412,l)
);
}
);
width = 600;
},
{
layerId = m002;
shapes = (
{
closed = 1;
nodes = (
(572,0,l),
(588,16,l),
(588,152,l),
(572,168,l),
(244,168,l),
(232,180,l),
(232,784,l),
(216,800,l),
(48,800,l),
(32,784,l),
(32,16,l),
(48,0,l)
);
},
{
closed = 1;
nodes = (
(484,424,o),
(540,520,o),
(540,612,cs),
(540,784,l),
(524,800,l),
(364,800,l),
(348,784,l),
(348,628,l),
(364,612,l),
(424,612,l),
(436,600,l),
(436,544,o),
(412,512,o),
(364,492,c),
(348,476,l),
(348,428,l),
(364,412,l)
);
}
);
width = 600;
},
{
layerId = m003;
shapes = (
{
closed = 1;
nodes = (
(572,0,l),
(588,16,l),
(588,152,l),
(572,168,l),
(244,168,l),
(232,180,l),
(232,784,l),
(216,800,l),
(48,800,l),
(32,784,l),
(32,16,l),
(48,0,l)
);
},
{
closed = 1;
nodes = (
(484,424,o),
(540,520,o),
(540,612,cs),
(540,784,l),
(524,800,l),
(364,800,l),
(348,784,l),
(348,628,l),
(364,612,l),
(424,612,l),
(436,600,l),
(436,544,o),
(412,512,o),
(364,492,c),
(348,476,l),
(348,428,l),
(364,412,l)
);
}
);
width = 600;
},
{
layerId = m004;
shapes = (
{
closed = 1;
nodes = (
(572,0,l),
(588,16,l),
(588,152,l),
(572,168,l),
(244,168,l),
(232,180,l),
(232,784,l),
(216,800,l),
(48,800,l),
(32,784,l),
(32,16,l),
(48,0,l)
);
},
{
closed = 1;
nodes = (
(484,424,o),
(540,520,o),
(540,612,cs),
(540,784,l),
(524,800,l),
(364,800,l),
(348,784,l),
(348,628,l),
(364,612,l),
(424,612,l),
(436,600,l),
(436,544,o),
(412,512,o),
(364,492,c),
(348,476,l),
(348,428,l),
(364,412,l)
);
}
);
width = 604;
}
);
unicode = 317;
},
{
color = 5;
glyphname = Lslash;
lastChange = "2024-07-31 06:28:39 +0000";
layers = (
{
layerId = m01;
shapes = (
{
closed = 1;
nodes = (
(624,0,l),
(640,16,l),
(640,152,l),
(624,168,l),
(296,168,l),
(284,180,l),
(284,340,l),
(292,348,l),
(480,452,l),
(496,468,l),
(496,560,l),
(480,576,l),
(464,576,l),
(296,484,l),
(284,484,l),
(284,784,l),
(268,800,l),
(100,800,l),
(84,784,l),
(84,380,l),
(76,372,l),
(32,344,l),
(16,328,l),
(16,240,l),
(32,224,l),
(48,224,l),
(76,240,l),
(84,240,l),
(84,16,l),
(100,0,l)
);
}
);
width = 600;
},
{
layerId = m002;
shapes = (
{
closed = 1;
nodes = (
(624,0,l),
(640,16,l),
(640,152,l),
(624,168,l),
(296,168,l),
(284,180,l),
(284,340,l),
(292,348,l),
(480,452,l),
(496,468,l),
(496,560,l),
(480,576,l),
(464,576,l),
(296,484,l),
(284,484,l),
(284,784,l),
(268,800,l),
(100,800,l),
(84,784,l),
(84,380,l),
(76,372,l),
(32,344,l),
(16,328,l),
(16,240,l),
(32,224,l),
(48,224,l),
(76,240,l),
(84,240,l),
(84,16,l),
(100,0,l)
);
}
);
width = 600;
},
{
layerId = m003;
shapes = (
{
closed = 1;
nodes = (
(624,0,l),
(640,16,l),
(640,152,l),
(624,168,l),
(296,168,l),
(284,180,l),
(284,340,l),
(292,348,l),
(480,452,l),
(496,468,l),
(496,560,l),
(480,576,l),
(464,576,l),
(296,484,l),
(284,484,l),
(284,784,l),
(268,800,l),
(100,800,l),
(84,784,l),
(84,380,l),
(76,372,l),
(32,344,l),
(16,328,l),
(16,240,l),
(32,224,l),
(48,224,l),
(76,240,l),
(84,240,l),
(84,16,l),
(100,0,l)
);
}
);
width = 600;
},
{
layerId = m004;
shapes = (
{
closed = 1;
nodes = (
(624,0,l),
(640,16,l),
(640,152,l),
(624,168,l),
(296,168,l),
(284,180,l),
(284,340,l),
(292,348,l),
(480,452,l),
(496,468,l),
(496,560,l),
(480,576,l),
(464,576,l),
(296,484,l),
(284,484,l),
(284,784,l),
(268,800,l),
(100,800,l),
(84,784,l),
(84,380,l),
(76,372,l),
(32,344,l),
(16,328,l),
(16,240,l),
(32,224,l),
(48,224,l),
(76,240,l),
(84,240,l),
(84,16,l),
(100,0,l)
);
}
);
width = 656;
}
);
unicode = 321;
},
{
color = 5;
glyphname = M;
lastChange = "2024-08-03 13:19:52 +0000";
layers = (
{
layerId = m01;
shapes = (
{
closed = 1;
nodes = (
(184,0,l),
(200,16,l),
(200,576,l),
(200,704,l),
(216,704,l),
(396,16,l),
(412,0,l),
(564,0,l),
(580,16,l),
(760,704,l),
(776,704,l),
(776,578,l),
(776,16,l),
(792,0,l),
(872,0,l),
(888,16,l),
(888,784,l),
(872,800,l),
(688,800,l),
(672,784,l),
(496,96,l),
(480,96,l),
(304,784,l),
(288,800,l),
(104,800,l),
(88,784,l),
(88,16,l),
(104,0,l)
);
}
);
width = 976;
},
{
layerId = m002;
shapes = (
{
closed = 1;
nodes = (
(132,0,l),
(148,16,l),
(148,555,l),
(148,704,l),
(164,704,l),
(348,16,l),
(364,0,l),
(508,0,l),
(524,16,l),
(708,704,l),
(724,704,l),
(724,547,l),
(724,16,l),
(740,0,l),
(820,0,l),
(836,16,l),
(836,784,l),
(820,800,l),
(640,800,l),
(624,784,l),
(444,96,l),
(428,96,l),
(248,784,l),
(232,800,l),
(52,800,l),
(36,784,l),
(36,16,l),
(52,0,l)
);
}
);
width = 872;
},
{
layerId = m003;
shapes = (
{
closed = 1;
nodes = (
(196,0,l),
(212,16,l),
(212,288,l),
(204,548,l),
(216,548,l),
(352,16,l),
(368,0,l),
(516,0,l),
(532,16,l),
(672,548,l),
(684,548,l),
(676,288,l),
(676,16,l),
(692,0,l),
(844,0,l),
(860,16,l),
(860,784,l),
(844,800,l),
(596,800,l),
(580,784,l),
(448,288,l),
(436,288,l),
(308,784,l),
(292,800,l),
(48,800,l),
(32,784,l),
(32,16,l),
(48,0,l)
);
}
);
width = 892;
},
{
layerId = m004;
shapes = (
{
closed = 1;
nodes = (
(196,0,l),
(212,16,l),
(212,288,l),
(204,548,l),
(216,548,l),
(356,16,l),
(372,0,l),
(516,0,l),
(532,16,l),
(672,548,l),
(684,548,l),
(676,288,l),
(676,16,l),
(692,0,l),
(844,0,l),
(860,16,l),
(860,784,l),
(844,800,l),
(600,800,l),
(584,784,l),
(452,284,l),
(440,284,l),
(304,784,l),
(288,800,l),
(48,800,l),
(32,784,l),
(32,16,l),
(48,0,l)
);
}
);
width = 892;
}
);
unicode = 77;
},
{
color = 5;
glyphname = N;
lastChange = "2024-08-05 00:52:56 +0000";
layers = (
{
anchors = (
{
name = bottom;
pos = (444,0);
},
{
name = top;
pos = (464,800);
}
);
layerId = m01;
shapes = (
{
closed = 1;
nodes = (
(184,0,l),
(200,16,l),
(200,672,l),
(216,672,l),
(260,576,l),
(540,16,l),
(556,0,l),
(708,0,l),
(724,16,l),
(724,784,l),
(708,800,l),
(628,800,l),
(612,784,l),
(612,128,l),
(596,128,l),
(552,224,l),
(272,784,l),
(256,800,l),
(104,800,l),
(88,784,l),
(88,16,l),
(104,0,l)
);
}
);
width = 812;
},
{
anchors = (
{
name = bottom;
pos = (348,0);
},
{
name = top;
pos = (348,800);
}
);
layerId = m002;
shapes = (
{
closed = 1;
nodes = (
(132,0,l),
(148,16,l),
(148,672,l),
(164,672,l),
(208,576,l),
(488,16,l),
(504,0,l),
(656,0,l),
(672,16,l),
(672,784,l),
(656,800,l),
(576,800,l),
(560,784,l),
(560,128,l),
(544,128,l),
(500,224,l),
(220,784,l),
(204,800,l),
(52,800,l),
(36,784,l),
(36,16,l),
(52,0,l)
);
}
);
width = 708;
},
{
anchors = (
{
name = bottom;
pos = (444,0);
},
{
name = top;
pos = (464,800);
}
);
layerId = m003;
shapes = (
{
closed = 1;
nodes = (
(184,0,l),
(200,16,l),
(200,672,l),
(216,672,l),
(260,576,l),
(540,16,l),
(556,0,l),
(708,0,l),
(724,16,l),
(724,784,l),
(708,800,l),
(628,800,l),
(612,784,l),
(612,128,l),
(596,128,l),
(552,224,l),
(272,784,l),
(256,800,l),
(104,800,l),
(88,784,l),
(88,16,l),
(104,0,l)
);
}
);
width = 812;
},
{
anchors = (
{
name = bottom;
pos = (344,0);
},
{
name = top;
pos = (344,800);
}
);
layerId = m004;
shapes = (
{
closed = 1;
nodes = (
(216,0,l),
(232,16,l),
(232,476,l),
(244,476,l),
(292,384,l),
(512,16,l),
(528,0,l),
(708,0,l),
(724,16,l),
(724,784,l),
(708,800,l),
(540,800,l),
(524,784,l),
(524,328,l),
(512,328,l),
(464,416,l),
(244,784,l),
(228,800,l),
(48,800,l),
(32,784,l),
(32,16,l),
(48,0,l)
);
}
);
width = 756;
}
);
unicode = 78;
},
{
color = 5;
glyphname = Eng;
lastChange = "2024-07-31 16:44:55 +0000";
layers = (
{
layerId = m01;
shapes = (
{
closed = 1;
nodes = (
(216,0,l),
(232,16,l),
(232,476,l),
(244,476,l),
(292,384,l),
(528,0,l),
(528,-16,ls),
(528,-72,o),
(485,-92,o),
(436,-92,cs),
(356,-92,l),
(340,-108,l),
(340,-224,l),
(356,-240,l),
(436,-240,ls),
(588,-240,o),
(724,-176,o),
(724,-24,cs),
(724,784,l),
(708,800,l),
(540,800,l),
(524,784,l),
(524,328,l),
(512,328,l),
(464,416,l),
(244,784,l),
(228,800,l),
(48,800,l),
(32,784,l),
(32,16,l),
(48,0,l)
);
}
);
width = 600;
},
{
layerId = m002;
shapes = (
{
closed = 1;
nodes = (
(216,0,l),
(232,16,l),
(232,476,l),
(244,476,l),
(292,384,l),
(528,0,l),
(528,-16,ls),
(528,-72,o),
(485,-92,o),
(436,-92,cs),
(356,-92,l),
(340,-108,l),
(340,-224,l),
(356,-240,l),
(436,-240,ls),
(588,-240,o),
(724,-176,o),
(724,-24,cs),
(724,784,l),
(708,800,l),
(540,800,l),
(524,784,l),
(524,328,l),
(512,328,l),
(464,416,l),
(244,784,l),
(228,800,l),
(48,800,l),
(32,784,l),
(32,16,l),
(48,0,l)
);
}
);
width = 600;
},
{
layerId = m003;
shapes = (
{
closed = 1;
nodes = (
(216,0,l),
(232,16,l),
(232,476,l),
(244,476,l),
(292,384,l),
(528,0,l),
(528,-16,ls),
(528,-72,o),
(485,-92,o),
(436,-92,cs),
(356,-92,l),
(340,-108,l),
(340,-224,l),
(356,-240,l),
(436,-240,ls),
(588,-240,o),
(724,-176,o),
(724,-24,cs),
(724,784,l),
(708,800,l),
(540,800,l),
(524,784,l),
(524,328,l),
(512,328,l),
(464,416,l),
(244,784,l),
(228,800,l),
(48,800,l),
(32,784,l),
(32,16,l),
(48,0,l)
);
}
);
width = 600;
},
{
layerId = m004;
shapes = (
{
closed = 1;
nodes = (
(216,0,l),
(232,16,l),
(232,476,l),
(244,476,l),
(292,384,l),
(528,0,l),
(528,-16,ls),
(528,-72,o),
(485,-92,o),
(436,-92,cs),
(356,-92,l),
(340,-108,l),
(340,-224,l),
(356,-240,l),
(436,-240,ls),
(588,-240,o),
(724,-176,o),
(724,-24,cs),
(724,784,l),
(708,800,l),
(540,800,l),
(524,784,l),
(524,328,l),
(512,328,l),
(464,416,l),
(244,784,l),
(228,800,l),
(48,800,l),
(32,784,l),
(32,16,l),
(48,0,l)
);
}
);
width = 756;
}
);
unicode = 330;
},
{
color = 5;
glyphname = O;
kernLeft = O;
kernRight = O;
lastChange = "2024-08-03 18:37:42 +0000";
layers = (
{
anchors = (
{
name = bottom;
pos = (448,0);
},
{
name = top;
pos = (448,800);
}
);
layerId = m01;
shapes = (
{
closed = 1;
nodes = (
(696,-16,o),
(824,152,o),
(824,400,cs),
(824,648,o),
(696,816,o),
(448,816,cs),
(200,816,o),
(72,648,o),
(72,400,cs),
(72,152,o),
(200,-16,o),
(448,-16,cs)
);
},
{
closed = 1;
nodes = (
(264,84,o),
(188,216,o),
(188,400,cs),
(188,584,o),
(264,716,o),
(448,716,cs),
(632,716,o),
(708,584,o),
(708,400,cs),
(708,216,o),
(632,84,o),
(448,84,cs)
);
}
);
width = 896;
},
{
anchors = (
{
name = bottom;
pos = (396,0);
},
{
name = top;
pos = (396,800);
}
);
layerId = m002;
shapes = (
{
closed = 1;
nodes = (
(644,-16,o),
(772,152,o),
(772,400,cs),
(772,648,o),
(644,816,o),
(396,816,cs),
(148,816,o),
(20,648,o),
(20,400,cs),
(20,152,o),
(148,-16,o),
(396,-16,cs)
);
},
{
closed = 1;
nodes = (
(212,84,o),
(136,216,o),
(136,400,cs),
(136,584,o),
(212,716,o),
(396,716,cs),
(580,716,o),
(656,584,o),
(656,400,cs),
(656,216,o),
(580,84,o),
(396,84,cs)
);
}
);
width = 792;
},
{
anchors = (
{
name = bottom;
pos = (448,0);
},
{
name = top;
pos = (448,800);
}
);
layerId = m003;
shapes = (
{
closed = 1;
nodes = (
(696,-16,o),
(824,152,o),
(824,400,cs),
(824,648,o),
(696,816,o),
(448,816,cs),
(200,816,o),
(72,648,o),
(72,400,cs),
(72,152,o),
(200,-16,o),
(448,-16,cs)
);
},
{
closed = 1;
nodes = (
(264,84,o),
(188,216,o),
(188,400,cs),
(188,584,o),
(264,716,o),
(448,716,cs),
(632,716,o),
(708,584,o),
(708,400,cs),
(708,216,o),
(632,84,o),
(448,84,cs)
);
}
);
width = 896;
},
{
anchors = (
{
name = bottom;
pos = (416,0);
},
{
name = top;
pos = (416,800);
}
);
layerId = m004;
shapes = (
{
closed = 1;
nodes = (
(664,-16,o),
(812,152,o),
(812,400,cs),
(812,648,o),
(664,816,o),
(416,816,cs),
(168,816,o),
(20,648,o),
(20,400,cs),
(20,152,o),
(168,-16,o),
(416,-16,cs)
);
},
{
closed = 1;
nodes = (
(308,152,o),
(228,216,o),
(228,400,cs),
(228,584,o),
(308,648,o),
(416,648,cs),
(528,648,o),
(604,584,o),
(604,400,cs),
(604,216,o),
(528,152,o),
(416,152,cs)
);
}
);
width = 832;
}
);
unicode = 79;
},
{
color = 5;
glyphname = Oslash;
lastChange = "2024-08-02 03:53:51 +0000";
layers = (
{
layerId = m01;
shapes = (
{
closed = 1;
nodes = (
(568,-16,o),
(716,152,o),
(716,400,cs),
(716,512,o),
(684,608,o),
(628,680,c),
(708,768,l),
(708,784,l),
(692,800,l),
(624,800,l),
(608,784,l),
(568,740,l),
(504,788,o),
(420,816,o),
(320,816,cs),
(72,816,o),
(-76,648,o),
(-76,400,cs),
(-76,288,o),
(-44,188,o),
(12,116,c),
(-64,32,l),
(-64,16,l),
(-48,0,l),
(24,0,l),
(40,16,l),
(76,56,l),
(140,12,o),
(224,-16,o),
(320,-16,cs)
);
},
{
closed = 1;
nodes = (
(272,152,o),
(236,160,o),
(204,188,c),
(204,200,l),
(484,520,l),
(496,520,l),
(508,488,o),
(508,452,o),
(508,400,cs),
(508,216,o),
(432,152,o),
(320,152,cs)
);
},
{
closed = 1;
nodes = (
(132,584,o),
(212,648,o),
(320,648,cs),
(372,648,o),
(412,636,o),
(444,604,c),
(444,592,l),
(160,276,l),
(148,276,l),
(140,308,o),
(132,348,o),
(132,400,cs)
);
}
);
width = 600;
},
{
layerId = m002;
shapes = (
{
closed = 1;
nodes = (
(568,-16,o),
(716,152,o),
(716,400,cs),
(716,512,o),
(684,608,o),
(628,680,c),
(708,768,l),
(708,784,l),
(692,800,l),
(624,800,l),
(608,784,l),
(568,740,l),
(504,788,o),
(420,816,o),
(320,816,cs),
(72,816,o),
(-76,648,o),
(-76,400,cs),
(-76,288,o),
(-44,188,o),
(12,116,c),
(-64,32,l),
(-64,16,l),
(-48,0,l),
(24,0,l),
(40,16,l),
(76,56,l),
(140,12,o),
(224,-16,o),
(320,-16,cs)
);
},
{
closed = 1;
nodes = (
(272,152,o),
(236,160,o),
(204,188,c),
(204,200,l),
(484,520,l),
(496,520,l),
(508,488,o),
(508,452,o),
(508,400,cs),
(508,216,o),
(432,152,o),
(320,152,cs)
);
},
{
closed = 1;
nodes = (
(132,584,o),
(212,648,o),
(320,648,cs),
(372,648,o),
(412,636,o),
(444,604,c),
(444,592,l),
(160,276,l),
(148,276,l),
(140,308,o),
(132,348,o),
(132,400,cs)
);
}
);
width = 600;
},
{
layerId = m003;
shapes = (
{
closed = 1;
nodes = (
(568,-16,o),
(716,152,o),
(716,400,cs),
(716,512,o),
(684,608,o),
(628,680,c),
(708,768,l),
(708,784,l),
(692,800,l),
(624,800,l),
(608,784,l),
(568,740,l),
(504,788,o),
(420,816,o),
(320,816,cs),
(72,816,o),
(-76,648,o),
(-76,400,cs),
(-76,288,o),
(-44,188,o),
(12,116,c),
(-64,32,l),
(-64,16,l),
(-48,0,l),
(24,0,l),
(40,16,l),
(76,56,l),
(140,12,o),
(224,-16,o),
(320,-16,cs)
);
},
{
closed = 1;
nodes = (
(272,152,o),
(236,160,o),
(204,188,c),
(204,200,l),
(484,520,l),
(496,520,l),
(508,488,o),
(508,452,o),
(508,400,cs),
(508,216,o),
(432,152,o),
(320,152,cs)
);
},
{
closed = 1;
nodes = (
(132,584,o),
(212,648,o),
(320,648,cs),
(372,648,o),
(412,636,o),
(444,604,c),
(444,592,l),
(160,276,l),
(148,276,l),
(140,308,o),
(132,348,o),
(132,400,cs)
);
}
);
width = 600;
},
{
layerId = m004;
shapes = (
{
closed = 1;
nodes = (
(668,-16,o),
(816,152,o),
(816,400,cs),
(816,512,o),
(784,608,o),
(728,680,c),
(808,768,l),
(808,784,l),
(792,800,l),
(724,800,l),
(708,784,l),
(668,740,l),
(604,788,o),
(520,816,o),
(420,816,cs),
(172,816,o),
(24,648,o),
(24,400,cs),
(24,288,o),
(56,188,o),
(112,116,c),
(36,32,l),
(36,16,l),
(52,0,l),
(124,0,l),
(140,16,l),
(176,56,l),
(240,12,o),
(324,-16,o),
(420,-16,cs)
);
},
{
closed = 1;
nodes = (
(372,152,o),
(336,160,o),
(304,188,c),
(304,200,l),
(584,520,l),
(596,520,l),
(608,488,o),
(608,452,o),
(608,400,cs),
(608,216,o),
(532,152,o),
(420,152,cs)
);
},
{
closed = 1;
nodes = (
(232,584,o),
(312,648,o),
(420,648,cs),
(472,648,o),
(512,636,o),
(544,604,c),
(544,592,l),
(260,276,l),
(248,276,l),
(240,308,o),
(232,348,o),
(232,400,cs)
);
}
);
width = 840;
}
);
unicode = 216;
},
{
color = 5;
glyphname = OE;
lastChange = "2024-08-01 04:33:12 +0000";
layers = (
{
layerId = m01;
shapes = (
{
closed = 1;
nodes = (
(1148,0,l),
(1164,16,l),
(1164,152,l),
(1148,168,l),
(800,168,l),
(788,180,l),
(788,324,l),
(800,336,l),
(1092,336,l),
(1108,352,l),
(1108,480,l),
(1092,496,l),
(800,496,l),
(788,508,l),
(788,624,l),
(800,636,l),
(1148,636,l),
(1164,652,l),
(1164,784,l),
(1148,800,l),
(608,800,l),
(592,784,l),
(592,748,l),
(580,748,l),
(536,792,o),
(472,816,o),
(400,816,cs),
(176,816,o),
(24,648,o),
(24,400,cs),
(24,152,o),
(176,-16,o),
(400,-16,cs),
(472,-16,o),
(536,0,o),
(580,44,c),
(592,44,l),
(592,16,l),
(608,0,l)
);
},
{
closed = 1;
nodes = (
(316,152,o),
(232,216,o),
(232,400,cs),
(232,584,o),
(316,648,o),
(400,648,cs),
(512,648,o),
(588,584,o),
(588,400,cs),
(588,216,o),
(512,152,o),
(400,152,cs)
);
}
);
width = 600;
},
{
layerId = m002;
shapes = (
{
closed = 1;
nodes = (
(1148,0,l),
(1164,16,l),
(1164,152,l),
(1148,168,l),
(800,168,l),
(788,180,l),
(788,324,l),
(800,336,l),
(1092,336,l),
(1108,352,l),
(1108,480,l),
(1092,496,l),
(800,496,l),
(788,508,l),
(788,624,l),
(800,636,l),
(1148,636,l),
(1164,652,l),
(1164,784,l),
(1148,800,l),
(608,800,l),
(592,784,l),
(592,748,l),
(580,748,l),
(536,792,o),
(472,816,o),
(400,816,cs),
(176,816,o),
(24,648,o),
(24,400,cs),
(24,152,o),
(176,-16,o),
(400,-16,cs),
(472,-16,o),
(536,0,o),
(580,44,c),
(592,44,l),
(592,16,l),
(608,0,l)
);
},
{
closed = 1;
nodes = (
(316,152,o),
(232,216,o),
(232,400,cs),
(232,584,o),
(316,648,o),
(400,648,cs),
(512,648,o),
(588,584,o),
(588,400,cs),
(588,216,o),
(512,152,o),
(400,152,cs)
);
}
);
width = 600;
},
{
layerId = m003;
shapes = (
{
closed = 1;
nodes = (
(1148,0,l),
(1164,16,l),
(1164,152,l),
(1148,168,l),
(800,168,l),
(788,180,l),
(788,324,l),
(800,336,l),
(1092,336,l),
(1108,352,l),
(1108,480,l),
(1092,496,l),
(800,496,l),
(788,508,l),
(788,624,l),
(800,636,l),
(1148,636,l),
(1164,652,l),
(1164,784,l),
(1148,800,l),
(608,800,l),
(592,784,l),
(592,748,l),
(580,748,l),
(536,792,o),
(472,816,o),
(400,816,cs),
(176,816,o),
(24,648,o),
(24,400,cs),
(24,152,o),
(176,-16,o),
(400,-16,cs),
(472,-16,o),
(536,0,o),
(580,44,c),
(592,44,l),
(592,16,l),
(608,0,l)
);
},
{
closed = 1;
nodes = (
(316,152,o),
(232,216,o),
(232,400,cs),
(232,584,o),
(316,648,o),
(400,648,cs),
(512,648,o),
(588,584,o),
(588,400,cs),
(588,216,o),
(512,152,o),
(400,152,cs)
);
}
);
width = 600;
},
{
layerId = m004;
shapes = (
{
closed = 1;
nodes = (
(1148,0,l),
(1164,16,l),
(1164,152,l),
(1148,168,l),
(800,168,l),
(788,180,l),
(788,324,l),
(800,336,l),
(1092,336,l),
(1108,352,l),
(1108,480,l),
(1092,496,l),
(800,496,l),
(788,508,l),
(788,624,l),
(800,636,l),
(1148,636,l),
(1164,652,l),
(1164,784,l),
(1148,800,l),
(608,800,l),
(592,784,l),
(592,748,l),
(580,748,l),
(536,792,o),
(472,816,o),
(400,816,cs),
(176,816,o),
(24,648,o),
(24,400,cs),
(24,152,o),
(176,-16,o),
(400,-16,cs),
(472,-16,o),
(536,0,o),
(580,44,c),
(592,44,l),
(592,16,l),
(608,0,l)
);
},
{
closed = 1;
nodes = (
(316,152,o),
(232,216,o),
(232,400,cs),
(232,584,o),
(316,648,o),
(400,648,cs),
(512,648,o),
(588,584,o),
(588,400,cs),
(588,216,o),
(512,152,o),
(400,152,cs)
);
}
);
width = 1188;
}
);
unicode = 338;
},
{
color = 5;
glyphname = P;
kernLeft = P;
kernRight = P;
lastChange = "2024-08-04 21:11:47 +0000";
layers = (
{
layerId = m01;
shapes = (
{
closed = 1;
nodes = (
(184,0,l),
(200,16,l),
(200,332,l),
(212,344,l),
(404,344,ls),
(552,344,o),
(668,412,o),
(668,572,cs),
(668,732,o),
(564,800,o),
(404,800,cs),
(104,800,l),
(88,784,l),
(88,16,l),
(104,0,l)
);
},
{
closed = 1;
nodes = (
(200,452,l),
(200,692,l),
(212,704,l),
(404,704,ls),
(508,704,o),
(552,664,o),
(552,572,cs),
(552,480,o),
(508,440,o),
(404,440,cs),
(212,440,l)
);
}
);
width = 708;
},
{
layerId = m002;
shapes = (
{
closed = 1;
nodes = (
(160,0,l),
(176,16,l),
(176,332,l),
(188,344,l),
(380,344,ls),
(528,344,o),
(644,412,o),
(644,572,cs),
(644,732,o),
(540,800,o),
(380,800,cs),
(80,800,l),
(64,784,l),
(64,16,l),
(80,0,l)
);
},
{
closed = 1;
nodes = (
(176,452,l),
(176,692,l),
(188,704,l),
(380,704,ls),
(484,704,o),
(528,664,o),
(528,572,cs),
(528,480,o),
(484,440,o),
(380,440,cs),
(188,440,l)
);
}
);
width = 660;
},
{
layerId = m003;
shapes = (
{
closed = 1;
nodes = (
(184,0,l),
(200,16,l),
(200,332,l),
(212,344,l),
(404,344,ls),
(552,344,o),
(668,412,o),
(668,572,cs),
(668,732,o),
(564,800,o),
(404,800,cs),
(104,800,l),
(88,784,l),
(88,16,l),
(104,0,l)
);
},
{
closed = 1;
nodes = (
(200,452,l),
(200,692,l),
(212,704,l),
(404,704,ls),
(508,704,o),
(552,664,o),
(552,572,cs),
(552,480,o),
(508,440,o),
(404,440,cs),
(212,440,l)
);
}
);
width = 708;
},
{
layerId = m004;
shapes = (
{
closed = 1;
nodes = (
(216,0,l),
(232,16,l),
(232,256,l),
(244,268,l),
(388,268,ls),
(576,268,o),
(696,340,o),
(696,528,cs),
(696,716,o),
(576,800,o),
(388,800,cs),
(48,800,l),
(32,784,l),
(32,16,l),
(48,0,l)
);
},
{
closed = 1;
nodes = (
(232,436,l),
(232,620,l),
(244,632,l),
(364,632,ls),
(444,632,o),
(488,608,o),
(488,528,cs),
(488,448,o),
(444,424,o),
(364,424,cs),
(244,424,l)
);
}
);
width = 712;
}
);
unicode = 80;
},
{
color = 5;
glyphname = Thorn;
lastChange = "2024-08-01 04:33:15 +0000";
layers = (
{
layerId = m01;
shapes = (
{
closed = 1;
nodes = (
(216,0,l),
(232,16,l),
(232,144,l),
(244,156,l),
(376,156,ls),
(564,156,o),
(684,228,o),
(684,416,cs),
(684,604,o),
(564,688,o),
(376,688,cs),
(232,688,l),
(232,784,l),
(216,800,l),
(48,800,l),
(32,784,l),
(32,16,l),
(48,0,l)
);
},
{
closed = 1;
nodes = (
(232,324,l),
(232,508,l),
(244,520,l),
(360,520,ls),
(440,520,o),
(484,496,o),
(484,416,cs),
(484,336,o),
(440,312,o),
(360,312,cs),
(244,312,l)
);
}
);
width = 600;
},
{
layerId = m002;
shapes = (
{
closed = 1;
nodes = (
(216,0,l),
(232,16,l),
(232,144,l),
(244,156,l),
(376,156,ls),
(564,156,o),
(684,228,o),
(684,416,cs),
(684,604,o),
(564,688,o),
(376,688,cs),
(232,688,l),
(232,784,l),
(216,800,l),
(48,800,l),
(32,784,l),
(32,16,l),
(48,0,l)
);
},
{
closed = 1;
nodes = (
(232,324,l),
(232,508,l),
(244,520,l),
(360,520,ls),
(440,520,o),
(484,496,o),
(484,416,cs),
(484,336,o),
(440,312,o),
(360,312,cs),
(244,312,l)
);
}
);
width = 600;
},
{
layerId = m003;
shapes = (
{
closed = 1;
nodes = (
(216,0,l),
(232,16,l),
(232,144,l),
(244,156,l),
(376,156,ls),
(564,156,o),
(684,228,o),
(684,416,cs),
(684,604,o),
(564,688,o),
(376,688,cs),
(232,688,l),
(232,784,l),
(216,800,l),
(48,800,l),
(32,784,l),
(32,16,l),
(48,0,l)
);
},
{
closed = 1;
nodes = (
(232,324,l),
(232,508,l),
(244,520,l),
(360,520,ls),
(440,520,o),
(484,496,o),
(484,416,cs),
(484,336,o),
(440,312,o),
(360,312,cs),
(244,312,l)
);
}
);
width = 600;
},
{
layerId = m004;
shapes = (
{
closed = 1;
nodes = (
(216,0,l),
(232,16,l),
(232,144,l),
(244,156,l),
(376,156,ls),
(564,156,o),
(684,228,o),
(684,416,cs),
(684,604,o),
(564,688,o),
(376,688,cs),
(232,688,l),
(232,784,l),
(216,800,l),
(48,800,l),
(32,784,l),
(32,16,l),
(48,0,l)
);
},
{
closed = 1;
nodes = (
(232,324,l),
(232,508,l),
(244,520,l),
(360,520,ls),
(440,520,o),
(484,496,o),
(484,416,cs),
(484,336,o),
(440,312,o),
(360,312,cs),
(244,312,l)
);
}
);
width = 708;
}
);
unicode = 222;
},
{
color = 5;
glyphname = Q;
lastChange = "2024-07-26 01:38:33 +0000";
layers = (
{
layerId = m01;
shapes = (
{
closed = 1;
nodes = (
(496,-16,o),
(568,0,o),
(624,36,c),
(640,36,l),
(662,11,l),
(672,0,l),
(732,0,l),
(748,16,l),
(748,55,l),
(748,72,l),
(716,108,l),
(716,124,l),
(760,184,o),
(792,276,o),
(792,400,cs),
(792,648,o),
(664,816,o),
(416,816,cs),
(168,816,o),
(40,648,o),
(40,400,cs),
(40,152,o),
(168,-16,o),
(416,-16,cs)
);
},
{
closed = 1;
nodes = (
(232,84,o),
(156,216,o),
(156,400,cs),
(156,584,o),
(232,716,o),
(416,716,cs),
(600,716,o),
(676,584,o),
(676,400,cs),
(676,320,o),
(664,260,o),
(640,212,c),
(624,212,l),
(483,375,l),
(476,384,l),
(432,384,l),
(416,368,l),
(416,304,l),
(424,280,l),
(552,136,l),
(552,120,l),
(520,96,o),
(476,84,o),
(416,84,cs)
);
}
);
width = 832;
},
{
layerId = m002;
shapes = (
{
closed = 1;
nodes = (
(496,-16,o),
(568,0,o),
(624,36,c),
(640,36,l),
(672,0,l),
(685,0,l),
(732,0,l),
(748,16,l),
(748,60,l),
(748,72,l),
(716,108,l),
(716,124,l),
(760,184,o),
(792,276,o),
(792,400,cs),
(792,648,o),
(664,816,o),
(416,816,cs),
(168,816,o),
(40,648,o),
(40,400,cs),
(40,152,o),
(168,-16,o),
(416,-16,cs)
);
},
{
closed = 1;
nodes = (
(232,84,o),
(156,216,o),
(156,400,cs),
(156,584,o),
(232,716,o),
(416,716,cs),
(600,716,o),
(676,584,o),
(676,400,cs),
(676,320,o),
(664,260,o),
(640,212,c),
(624,212,l),
(488,370,l),
(476,384,l),
(432,384,l),
(416,368,l),
(416,304,l),
(424,280,l),
(552,136,l),
(552,120,l),
(520,96,o),
(476,84,o),
(416,84,cs)
);
}
);
width = 832;
},
{
layerId = m003;
shapes = (
{
closed = 1;
nodes = (
(504,-16,o),
(564,0,o),
(616,28,c),
(628,28,l),
(648,8,l),
(664,0,l),
(748,0,l),
(764,16,l),
(764,72,l),
(756,88,l),
(732,112,l),
(732,124,l),
(776,184,o),
(816,276,o),
(816,400,cs),
(816,648,o),
(668,816,o),
(420,816,cs),
(172,816,o),
(24,648,o),
(24,400,cs),
(24,152,o),
(176,-16,o),
(424,-16,cs)
);
},
{
closed = 1;
nodes = (
(312,152,o),
(232,216,o),
(232,400,cs),
(232,584,o),
(312,648,o),
(420,648,cs),
(532,648,o),
(608,584,o),
(608,400,cs),
(608,320,o),
(600,296,o),
(588,264,c),
(576,264,l),
(476,368,l),
(460,376,l),
(376,376,l),
(360,360,l),
(360,296,l),
(368,280,l),
(476,172,l),
(476,160,l),
(464,152,o),
(440,152,o),
(420,152,cs)
);
}
);
width = 832;
},
{
layerId = m004;
shapes = (
{
closed = 1;
nodes = (
(504,-16,o),
(564,0,o),
(616,28,c),
(628,28,l),
(692,-40,l),
(708,-48,l),
(768,-48,l),
(784,-32,l),
(784,28,l),
(776,44,l),
(720,104,l),
(720,116,l),
(772,168,o),
(816,276,o),
(816,400,cs),
(816,648,o),
(668,816,o),
(420,816,cs),
(172,816,o),
(24,648,o),
(24,400,cs),
(24,152,o),
(176,-16,o),
(424,-16,cs)
);
},
{
closed = 1;
nodes = (
(312,152,o),
(232,216,o),
(232,400,cs),
(232,584,o),
(312,648,o),
(420,648,cs),
(532,648,o),
(608,584,o),
(608,400,cs),
(608,320,o),
(596,280,o),
(584,256,c),
(572,256,l),
(484,352,l),
(468,360,l),
(408,360,l),
(392,344,l),
(392,280,l),
(400,264,l),
(484,176,l),
(484,164,l),
(468,156,o),
(444,152,o),
(420,152,cs)
);
}
);
width = 840;
},
{
associatedMasterId = m004;
layerId = "9BAA46FA-EC6D-4DBA-871D-4D83F5CD906D";
name = "Jul 24, 24 at 14:51";
shapes = (
{
closed = 1;
nodes = (
(668,-16,o),
(816,152,o),
(816,400,cs),
(816,648,o),
(668,816,o),
(420,816,cs),
(172,816,o),
(24,648,o),
(24,400,cs),
(24,152,o),
(172,-16,o),
(420,-16,cs)
);
},
{
closed = 1;
nodes = (
(312,152,o),
(232,216,o),
(232,400,cs),
(232,584,o),
(312,648,o),
(420,648,cs),
(532,648,o),
(608,584,o),
(608,400,cs),
(608,216,o),
(532,152,o),
(420,152,cs)
);
},
{
closed = 1;
nodes = (
(652,0,l),
(820,0,l),
(444,392,l),
(276,392,l)
);
}
);
visible = 1;
width = 840;
}
);
unicode = 81;
},
{
color = 5;
glyphname = R;
kernLeft = R;
kernRight = R;
lastChange = "2024-08-03 19:22:28 +0000";
layers = (
{
anchors = (
{
name = bottom;
pos = (388,0);
},
{
name = top;
pos = (348,800);
}
);
layerId = m01;
shapes = (
{
closed = 1;
nodes = (
(208,452,l),
(208,692,l),
(220,704,l),
(444,704,ls),
(548,704,o),
(604,680,o),
(604,576,cs),
(604,472,o),
(540,440,o),
(436,440,cs),
(220,440,l)
);
},
{
closed = 1;
nodes = (
(192,0,l),
(208,16,l),
(208,332,l),
(220,344,l),
(424,344,l),
(436,332,l),
(632,16,l),
(648,0,l),
(700,0,l),
(716,16,l),
(716,72,l),
(548,344,l),
(548,360,l),
(644,384,o),
(720,456,o),
(720,576,cs),
(720,744,o),
(612,800,o),
(444,800,cs),
(112,800,l),
(96,784,l),
(96,16,l),
(112,0,l)
);
}
);
width = 792;
},
{
associatedMasterId = m01;
layerId = "A5E0E3B2-E6D3-4034-80CC-4DBBBAAF833A";
name = "Jun 7, 24 at 00:27";
shapes = (
{
closed = 1;
nodes = (
(176,452,l),
(176,692,l),
(188,704,l),
(404,704,ls),
(508,704,o),
(564,680,o),
(564,576,cs),
(564,472,o),
(508,440,o),
(404,440,cs),
(188,440,l)
);
},
{
closed = 1;
nodes = (
(160,0,l),
(176,16,l),
(176,332,l),
(188,344,l),
(348,344,l),
(364,336,l),
(596,8,l),
(612,0,l),
(664,0,l),
(680,16,l),
(680,80,l),
(500,336,l),
(500,352,l),
(600,372,o),
(680,432,o),
(680,576,cs),
(680,744,o),
(572,800,o),
(404,800,cs),
(80,800,l),
(64,784,l),
(64,16,l),
(80,0,l)
);
}
);
width = 720;
},
{
anchors = (
{
name = bottom;
pos = (324,0);
},
{
name = top;
pos = (300,800);
}
);
layerId = m002;
shapes = (
{
closed = 1;
nodes = (
(144,452,l),
(144,692,l),
(156,704,l),
(380,704,ls),
(484,704,o),
(540,680,o),
(540,576,cs),
(540,472,o),
(476,440,o),
(372,440,cs),
(156,440,l)
);
},
{
closed = 1;
nodes = (
(128,0,l),
(144,16,l),
(144,332,l),
(156,344,l),
(360,344,l),
(372,332,l),
(568,16,l),
(584,0,l),
(636,0,l),
(652,16,l),
(652,72,l),
(484,344,l),
(484,360,l),
(580,384,o),
(656,456,o),
(656,576,cs),
(656,744,o),
(548,800,o),
(380,800,cs),
(48,800,l),
(32,784,l),
(32,16,l),
(48,0,l)
);
}
);
width = 672;
},
{
associatedMasterId = m002;
layerId = "6947AE4C-FFFA-4364-BAAA-1961A04491CD";
name = "Jun 7, 24 at 00:27";
shapes = (
{
closed = 1;
nodes = (
(176,452,l),
(176,692,l),
(188,704,l),
(404,704,ls),
(508,704,o),
(564,680,o),
(564,576,cs),
(564,472,o),
(508,440,o),
(404,440,cs),
(188,440,l)
);
},
{
closed = 1;
nodes = (
(160,0,l),
(176,16,l),
(176,332,l),
(188,344,l),
(348,344,l),
(364,336,l),
(596,8,l),
(612,0,l),
(664,0,l),
(680,16,l),
(680,80,l),
(500,336,l),
(500,352,l),
(600,372,o),
(680,432,o),
(680,576,cs),
(680,744,o),
(572,800,o),
(404,800,cs),
(80,800,l),
(64,784,l),
(64,16,l),
(80,0,l)
);
}
);
width = 720;
},
{
associatedMasterId = m002;
layerId = "7A8BD07B-B21F-4613-B0C3-DF0E60BC3133";
name = "Jul 11, 24 at 14:40";
shapes = (
{
closed = 1;
nodes = (
(144,452,l),
(144,692,l),
(156,704,l),
(380,704,ls),
(484,704,o),
(540,680,o),
(540,576,cs),
(540,472,o),
(476,440,o),
(372,440,cs),
(156,440,l)
);
},
{
closed = 1;
nodes = (
(128,0,l),
(144,16,l),
(144,332,l),
(156,344,l),
(360,344,l),
(372,332,l),
(568,16,l),
(584,0,l),
(636,0,l),
(652,16,l),
(652,72,l),
(484,344,l),
(484,360,l),
(580,384,o),
(656,456,o),
(656,576,cs),
(656,744,o),
(548,800,o),
(380,800,cs),
(48,800,l),
(32,784,l),
(32,16,l),
(48,0,l)
);
}
);
width = 672;
},
{
anchors = (
{
name = bottom;
pos = (388,0);
},
{
name = top;
pos = (348,800);
}
);
layerId = m003;
shapes = (
{
closed = 1;
nodes = (
(208,452,l),
(208,692,l),
(220,704,l),
(444,704,ls),
(548,704,o),
(604,680,o),
(604,576,cs),
(604,472,o),
(540,440,o),
(436,440,cs),
(220,440,l)
);
},
{
closed = 1;
nodes = (
(192,0,l),
(208,16,l),
(208,332,l),
(220,344,l),
(424,344,l),
(436,332,l),
(632,16,l),
(648,0,l),
(700,0,l),
(716,16,l),
(716,72,l),
(548,344,l),
(548,360,l),
(644,384,o),
(720,456,o),
(720,576,cs),
(720,744,o),
(612,800,o),
(444,800,cs),
(112,800,l),
(96,784,l),
(96,16,l),
(112,0,l)
);
}
);
width = 792;
},
{
associatedMasterId = m003;
layerId = "C5A82E87-3D20-4D9F-A00A-E611DBB7D41A";
name = "Jun 7, 24 at 00:27";
shapes = (
{
closed = 1;
nodes = (
(176,452,l),
(176,692,l),
(188,704,l),
(404,704,ls),
(508,704,o),
(564,680,o),
(564,576,cs),
(564,472,o),
(508,440,o),
(404,440,cs),
(188,440,l)
);
},
{
closed = 1;
nodes = (
(160,0,l),
(176,16,l),
(176,332,l),
(188,344,l),
(348,344,l),
(364,336,l),
(596,8,l),
(612,0,l),
(664,0,l),
(680,16,l),
(680,80,l),
(500,336,l),
(500,352,l),
(600,372,o),
(680,432,o),
(680,576,cs),
(680,744,o),
(572,800,o),
(404,800,cs),
(80,800,l),
(64,784,l),
(64,16,l),
(80,0,l)
);
}
);
width = 720;
},
{
anchors = (
{
name = bottom;
pos = (324,0);
},
{
name = top;
pos = (300,800);
}
);
layerId = m004;
shapes = (
{
closed = 1;
nodes = (
(232,464,l),
(232,632,l),
(244,644,l),
(376,644,ls),
(448,644,o),
(496,620,o),
(496,548,cs),
(496,476,o),
(448,452,o),
(376,452,cs),
(244,452,l)
);
},
{
closed = 1;
nodes = (
(216,0,l),
(232,16,l),
(232,292,l),
(244,304,l),
(344,304,l),
(356,292,l),
(524,8,l),
(540,0,l),
(680,0,l),
(696,16,l),
(696,72,l),
(540,320,l),
(540,332,l),
(628,360,o),
(696,432,o),
(696,564,cs),
(696,712,o),
(568,800,o),
(408,800,cs),
(48,800,l),
(32,784,l),
(32,16,l),
(48,0,l)
);
}
);
width = 712;
},
{
anchors = (
{
name = bottom;
pos = (324,0);
},
{
name = top;
pos = (300,800);
}
);
associatedMasterId = m004;
layerId = "73B27A96-90C6-44F1-8655-827EF02FED2F";
name = "Aug 3, 24 at 11:38";
shapes = (
{
closed = 1;
nodes = (
(232,464,l),
(232,632,l),
(244,644,l),
(376,644,ls),
(448,644,o),
(496,620,o),
(496,548,cs),
(496,476,o),
(448,452,o),
(376,452,cs),
(244,452,l)
);
},
{
closed = 1;
nodes = (
(216,0,l),
(232,16,l),
(232,292,l),
(244,304,l),
(360,304,l),
(372,292,l),
(536,16,l),
(552,0,l),
(696,0,l),
(712,16,l),
(712,72,l),
(556,328,l),
(556,340,l),
(636,368,o),
(696,444,o),
(696,576,cs),
(696,744,o),
(548,800,o),
(388,800,cs),
(48,800,l),
(32,784,l),
(32,16,l),
(48,0,l)
);
}
);
width = 720;
},
{
anchors = (
{
name = bottom;
pos = (324,0);
},
{
name = top;
pos = (300,800);
}
);
associatedMasterId = m004;
layerId = "1BEC9707-4EA0-4D14-888C-170D15206B58";
name = "Aug 3, 24 at 11:38";
shapes = (
{
closed = 1;
nodes = (
(232,464,l),
(232,632,l),
(244,644,l),
(376,644,ls),
(448,644,o),
(496,620,o),
(496,548,cs),
(496,476,o),
(448,452,o),
(376,452,cs),
(244,452,l)
);
},
{
closed = 1;
nodes = (
(216,0,l),
(232,16,l),
(232,292,l),
(244,304,l),
(360,304,l),
(372,292,l),
(536,16,l),
(552,0,l),
(696,0,l),
(712,16,l),
(712,72,l),
(556,328,l),
(556,340,l),
(636,368,o),
(696,444,o),
(696,576,cs),
(696,744,o),
(548,800,o),
(388,800,cs),
(48,800,l),
(32,784,l),
(32,16,l),
(48,0,l)
);
}
);
width = 720;
},
{
anchors = (
{
name = bottom;
pos = (324,0);
},
{
name = top;
pos = (300,800);
}
);
associatedMasterId = m004;
layerId = "48E4428D-D06E-40AB-A948-647A221B32C5";
name = "Aug 3, 24 at 11:40";
shapes = (
{
closed = 1;
nodes = (
(584,300,o),
(696,412,o),
(696,552,cs),
(696,688,o),
(584,800,o),
(448,800,cs),
(308,800,o),
(196,688,o),
(196,552,cs),
(196,412,o),
(308,300,o),
(448,300,cs)
);
}
);
visible = 1;
width = 720;
}
);
unicode = 82;
},
{
color = 5;
glyphname = S;
kernLeft = S;
kernRight = S;
lastChange = "2024-08-03 18:45:12 +0000";
layers = (
{
anchors = (
{
name = bottom;
pos = (352,0);
},
{
name = top;
pos = (340,800);
}
);
layerId = m01;
shapes = (
{
closed = 1;
nodes = (
(564,-16,o),
(664,92,o),
(664,216,cs),
(664,376,o),
(540,436,o),
(380,456,cs),
(220,480,o),
(160,504,o),
(160,596,cs),
(160,664,o),
(220,716,o),
(340,716,cs),
(484,716,o),
(520,656,o),
(520,576,c),
(536,560,l),
(616,560,l),
(632,576,l),
(632,740,o),
(508,816,o),
(340,816,cs),
(128,816,o),
(44,696,o),
(44,596,cs),
(44,456,o),
(152,388,o),
(312,368,cs),
(472,344,o),
(548,320,o),
(548,216,cs),
(548,120,o),
(460,84,o),
(352,84,cs),
(212,84,o),
(136,132,o),
(136,248,c),
(120,264,l),
(40,264,l),
(24,248,l),
(24,76,o),
(152,-16,o),
(352,-16,cs)
);
}
);
width = 688;
},
{
anchors = (
{
name = bottom;
pos = (344,0);
},
{
name = top;
pos = (328,800);
}
);
layerId = m002;
shapes = (
{
closed = 1;
nodes = (
(556,-16,o),
(656,92,o),
(656,216,cs),
(656,376,o),
(532,436,o),
(372,456,cs),
(212,480,o),
(152,504,o),
(152,596,cs),
(152,664,o),
(212,716,o),
(332,716,cs),
(476,716,o),
(512,656,o),
(512,576,c),
(528,560,l),
(608,560,l),
(624,576,l),
(624,740,o),
(500,816,o),
(332,816,cs),
(120,816,o),
(36,696,o),
(36,596,cs),
(36,456,o),
(144,388,o),
(304,368,cs),
(464,344,o),
(540,320,o),
(540,216,cs),
(540,120,o),
(452,84,o),
(344,84,cs),
(204,84,o),
(128,132,o),
(128,248,c),
(112,264,l),
(32,264,l),
(16,248,l),
(16,76,o),
(144,-16,o),
(344,-16,cs)
);
}
);
width = 672;
},
{
anchors = (
{
name = bottom;
pos = (352,0);
},
{
name = top;
pos = (340,800);
}
);
layerId = m003;
shapes = (
{
closed = 1;
nodes = (
(564,-16,o),
(664,92,o),
(664,216,cs),
(664,376,o),
(540,436,o),
(380,456,cs),
(220,480,o),
(160,504,o),
(160,596,cs),
(160,664,o),
(220,716,o),
(340,716,cs),
(484,716,o),
(520,656,o),
(520,576,c),
(536,560,l),
(616,560,l),
(632,576,l),
(632,740,o),
(508,816,o),
(340,816,cs),
(128,816,o),
(44,696,o),
(44,596,cs),
(44,456,o),
(152,388,o),
(312,368,cs),
(472,344,o),
(548,320,o),
(548,216,cs),
(548,120,o),
(460,84,o),
(352,84,cs),
(212,84,o),
(136,132,o),
(136,248,c),
(120,264,l),
(40,264,l),
(24,248,l),
(24,76,o),
(152,-16,o),
(352,-16,cs)
);
}
);
width = 688;
},
{
anchors = (
{
name = bottom;
pos = (360,0);
},
{
name = top;
pos = (344,800);
}
);
layerId = m004;
shapes = (
{
closed = 1;
nodes = (
(580,-16,o),
(696,84,o),
(696,240,cs),
(696,384,o),
(596,448,o),
(420,488,cs),
(276,520,o),
(232,548,o),
(232,588,cs),
(232,648,o),
(292,668,o),
(348,668,cs),
(416,668,o),
(460,640,o),
(472,584,c),
(488,568,l),
(652,568,l),
(668,584,l),
(668,732,o),
(516,816,o),
(348,816,cs),
(136,816,o),
(32,704,o),
(32,576,cs),
(32,444,o),
(132,376,o),
(296,336,cs),
(456,296,o),
(492,268,o),
(492,224,cs),
(492,172,o),
(456,140,o),
(368,140,cs),
(276,140,o),
(220,176,o),
(212,240,c),
(196,256,l),
(28,256,l),
(12,240,l),
(12,68,o),
(168,-16,o),
(368,-16,cs)
);
}
);
width = 708;
}
);
unicode = 83;
},
{
color = 5;
glyphname = Scedilla;
lastChange = "2024-08-01 18:05:25 +0000";
layers = (
{
layerId = m01;
shapes = (
{
closed = 1;
nodes = (
(552,-8,o),
(660,88,o),
(660,240,cs),
(660,384,o),
(560,448,o),
(384,488,cs),
(240,520,o),
(196,548,o),
(196,588,cs),
(196,648,o),
(256,668,o),
(312,668,cs),
(380,668,o),
(424,640,o),
(436,584,c),
(452,568,l),
(616,568,l),
(632,584,l),
(632,732,o),
(480,816,o),
(312,816,cs),
(100,816,o),
(-4,704,o),
(-4,576,cs),
(-4,444,o),
(96,376,o),
(260,336,cs),
(420,296,o),
(456,268,o),
(456,224,cs),
(456,172,o),
(420,140,o),
(332,140,cs),
(240,140,o),
(184,176,o),
(176,240,c),
(160,256,l),
(-8,256,l),
(-24,240,l),
(-24,84,o),
(104,0,o),
(280,-16,c),
(280,-20,l),
(228,-76,l),
(244,-104,l),
(256,-104,l),
(264,-100,o),
(276,-96,o),
(288,-96,cs),
(308,-96,o),
(324,-108,o),
(324,-124,cs),
(324,-148,o),
(308,-160,o),
(268,-160,cs),
(240,-160,o),
(228,-156,o),
(200,-144,c),
(188,-144,l),
(172,-172,l),
(172,-184,l),
(204,-200,o),
(240,-212,o),
(292,-212,cs),
(380,-212,o),
(432,-180,o),
(432,-124,cs),
(432,-72,o),
(396,-48,o),
(360,-48,cs),
(348,-48,o),
(332,-48,o),
(320,-52,c),
(316,-44,l),
(356,-16,l)
);
}
);
width = 600;
},
{
layerId = m002;
shapes = (
{
closed = 1;
nodes = (
(552,-8,o),
(660,88,o),
(660,240,cs),
(660,384,o),
(560,448,o),
(384,488,cs),
(240,520,o),
(196,548,o),
(196,588,cs),
(196,648,o),
(256,668,o),
(312,668,cs),
(380,668,o),
(424,640,o),
(436,584,c),
(452,568,l),
(616,568,l),
(632,584,l),
(632,732,o),
(480,816,o),
(312,816,cs),
(100,816,o),
(-4,704,o),
(-4,576,cs),
(-4,444,o),
(96,376,o),
(260,336,cs),
(420,296,o),
(456,268,o),
(456,224,cs),
(456,172,o),
(420,140,o),
(332,140,cs),
(240,140,o),
(184,176,o),
(176,240,c),
(160,256,l),
(-8,256,l),
(-24,240,l),
(-24,84,o),
(104,0,o),
(280,-16,c),
(280,-20,l),
(228,-76,l),
(244,-104,l),
(256,-104,l),
(264,-100,o),
(276,-96,o),
(288,-96,cs),
(308,-96,o),
(324,-108,o),
(324,-124,cs),
(324,-148,o),
(308,-160,o),
(268,-160,cs),
(240,-160,o),
(228,-156,o),
(200,-144,c),
(188,-144,l),
(172,-172,l),
(172,-184,l),
(204,-200,o),
(240,-212,o),
(292,-212,cs),
(380,-212,o),
(432,-180,o),
(432,-124,cs),
(432,-72,o),
(396,-48,o),
(360,-48,cs),
(348,-48,o),
(332,-48,o),
(320,-52,c),
(316,-44,l),
(356,-16,l)
);
}
);
width = 600;
},
{
layerId = m003;
shapes = (
{
closed = 1;
nodes = (
(552,-8,o),
(660,88,o),
(660,240,cs),
(660,384,o),
(560,448,o),
(384,488,cs),
(240,520,o),
(196,548,o),
(196,588,cs),
(196,648,o),
(256,668,o),
(312,668,cs),
(380,668,o),
(424,640,o),
(436,584,c),
(452,568,l),
(616,568,l),
(632,584,l),
(632,732,o),
(480,816,o),
(312,816,cs),
(100,816,o),
(-4,704,o),
(-4,576,cs),
(-4,444,o),
(96,376,o),
(260,336,cs),
(420,296,o),
(456,268,o),
(456,224,cs),
(456,172,o),
(420,140,o),
(332,140,cs),
(240,140,o),
(184,176,o),
(176,240,c),
(160,256,l),
(-8,256,l),
(-24,240,l),
(-24,84,o),
(104,0,o),
(280,-16,c),
(280,-20,l),
(228,-76,l),
(244,-104,l),
(256,-104,l),
(264,-100,o),
(276,-96,o),
(288,-96,cs),
(308,-96,o),
(324,-108,o),
(324,-124,cs),
(324,-148,o),
(308,-160,o),
(268,-160,cs),
(240,-160,o),
(228,-156,o),
(200,-144,c),
(188,-144,l),
(172,-172,l),
(172,-184,l),
(204,-200,o),
(240,-212,o),
(292,-212,cs),
(380,-212,o),
(432,-180,o),
(432,-124,cs),
(432,-72,o),
(396,-48,o),
(360,-48,cs),
(348,-48,o),
(332,-48,o),
(320,-52,c),
(316,-44,l),
(356,-16,l)
);
}
);
width = 600;
},
{
layerId = m004;
shapes = (
{
closed = 1;
nodes = (
(552,-8,o),
(660,88,o),
(660,240,cs),
(660,384,o),
(560,448,o),
(384,488,cs),
(240,520,o),
(196,548,o),
(196,588,cs),
(196,648,o),
(256,668,o),
(312,668,cs),
(380,668,o),
(424,640,o),
(436,584,c),
(452,568,l),
(616,568,l),
(632,584,l),
(632,732,o),
(480,816,o),
(312,816,cs),
(100,816,o),
(-4,704,o),
(-4,576,cs),
(-4,444,o),
(96,376,o),
(260,336,cs),
(420,296,o),
(456,268,o),
(456,224,cs),
(456,172,o),
(420,140,o),
(332,140,cs),
(240,140,o),
(184,176,o),
(176,240,c),
(160,256,l),
(-8,256,l),
(-24,240,l),
(-24,84,o),
(104,0,o),
(280,-16,c),
(280,-20,l),
(228,-76,l),
(244,-104,l),
(256,-104,l),
(264,-100,o),
(276,-96,o),
(288,-96,cs),
(308,-96,o),
(324,-108,o),
(324,-124,cs),
(324,-148,o),
(308,-160,o),
(268,-160,cs),
(240,-160,o),
(228,-156,o),
(200,-144,c),
(188,-144,l),
(172,-172,l),
(172,-184,l),
(204,-200,o),
(240,-212,o),
(292,-212,cs),
(380,-212,o),
(432,-180,o),
(432,-124,cs),
(432,-72,o),
(396,-48,o),
(360,-48,cs),
(348,-48,o),
(332,-48,o),
(320,-52,c),
(316,-44,l),
(356,-16,l)
);
}
);
width = 600;
}
);
unicode = 350;
},
{
color = 5;
glyphname = Germandbls;
lastChange = "2024-08-01 05:15:06 +0000";
layers = (
{
layerId = m01;
shapes = (
{
closed = 1;
nodes = (
(216,0,l),
(232,16,l),
(232,632,l),
(244,644,l),
(368,644,ls),
(416,644,o),
(456,620,o),
(456,564,cs),
(456,508,o),
(416,484,o),
(368,484,cs),
(344,484,l),
(328,468,l),
(328,364,l),
(344,348,l),
(368,348,ls),
(452,348,o),
(480,308,o),
(480,252,cs),
(480,200,o),
(456,160,o),
(368,160,cs),
(336,160,l),
(320,144,l),
(320,16,l),
(336,0,l),
(388,0,ls),
(552,0,o),
(676,72,o),
(676,232,cs),
(676,336,o),
(612,404,o),
(544,428,c),
(544,444,l),
(596,464,o),
(644,512,o),
(644,592,cs),
(644,732,o),
(536,800,o),
(372,800,cs),
(48,800,l),
(32,784,l),
(32,16,l),
(48,0,l)
);
}
);
width = 600;
},
{
layerId = m002;
shapes = (
{
closed = 1;
nodes = (
(216,0,l),
(232,16,l),
(232,632,l),
(244,644,l),
(368,644,ls),
(416,644,o),
(456,620,o),
(456,564,cs),
(456,508,o),
(416,484,o),
(368,484,cs),
(344,484,l),
(328,468,l),
(328,364,l),
(344,348,l),
(368,348,ls),
(452,348,o),
(480,308,o),
(480,252,cs),
(480,200,o),
(456,160,o),
(368,160,cs),
(336,160,l),
(320,144,l),
(320,16,l),
(336,0,l),
(388,0,ls),
(552,0,o),
(676,72,o),
(676,232,cs),
(676,336,o),
(612,404,o),
(544,428,c),
(544,444,l),
(596,464,o),
(644,512,o),
(644,592,cs),
(644,732,o),
(536,800,o),
(372,800,cs),
(48,800,l),
(32,784,l),
(32,16,l),
(48,0,l)
);
}
);
width = 600;
},
{
layerId = m003;
shapes = (
{
closed = 1;
nodes = (
(216,0,l),
(232,16,l),
(232,632,l),
(244,644,l),
(368,644,ls),
(416,644,o),
(456,620,o),
(456,564,cs),
(456,508,o),
(416,484,o),
(368,484,cs),
(344,484,l),
(328,468,l),
(328,364,l),
(344,348,l),
(368,348,ls),
(452,348,o),
(480,308,o),
(480,252,cs),
(480,200,o),
(456,160,o),
(368,160,cs),
(336,160,l),
(320,144,l),
(320,16,l),
(336,0,l),
(388,0,ls),
(552,0,o),
(676,72,o),
(676,232,cs),
(676,336,o),
(612,404,o),
(544,428,c),
(544,444,l),
(596,464,o),
(644,512,o),
(644,592,cs),
(644,732,o),
(536,800,o),
(372,800,cs),
(48,800,l),
(32,784,l),
(32,16,l),
(48,0,l)
);
}
);
width = 600;
},
{
layerId = m004;
shapes = (
{
closed = 1;
nodes = (
(216,0,l),
(232,16,l),
(232,632,l),
(244,644,l),
(368,644,ls),
(416,644,o),
(456,620,o),
(456,564,cs),
(456,508,o),
(416,484,o),
(368,484,cs),
(344,484,l),
(328,468,l),
(328,364,l),
(344,348,l),
(368,348,ls),
(452,348,o),
(480,308,o),
(480,252,cs),
(480,200,o),
(456,160,o),
(368,160,cs),
(336,160,l),
(320,144,l),
(320,16,l),
(336,0,l),
(388,0,ls),
(552,0,o),
(676,72,o),
(676,232,cs),
(676,336,o),
(612,404,o),
(544,428,c),
(544,444,l),
(596,464,o),
(644,512,o),
(644,592,cs),
(644,732,o),
(536,800,o),
(372,800,cs),
(48,800,l),
(32,784,l),
(32,16,l),
(48,0,l)
);
}
);
width = 700;
},
{
associatedMasterId = m004;
layerId = "F6BF1192-9DF2-4B8B-B240-6EA29639DAE3";
name = "Jul 31, 24 at 21:53";
shapes = (
{
closed = 1;
nodes = (
(416,0,ls),
(572,0,o),
(692,76,o),
(692,232,cs),
(692,336,o),
(628,404,o),
(560,428,c),
(560,444,l),
(616,472,o),
(660,508,o),
(660,596,cs),
(660,736,o),
(540,800,o),
(400,800,cs),
(32,800,l),
(16,784,l),
(16,16,l),
(32,0,l)
);
},
{
closed = 1;
nodes = (
(216,496,l),
(216,632,l),
(228,644,l),
(376,644,ls),
(432,644,o),
(472,620,o),
(472,564,cs),
(472,508,o),
(432,484,o),
(376,484,cs),
(228,484,l)
);
},
{
closed = 1;
nodes = (
(216,172,l),
(216,336,l),
(228,348,l),
(388,348,ls),
(452,348,o),
(496,320,o),
(496,256,cs),
(496,192,o),
(460,160,o),
(396,160,cs),
(228,160,l)
);
}
);
visible = 1;
width = 644;
}
);
unicode = 7838;
},
{
color = 5;
glyphname = T;
kernLeft = T;
kernRight = T;
lastChange = "2024-08-04 21:09:25 +0000";
layers = (
{
anchors = (
{
name = bottom;
pos = (312,0);
},
{
name = top;
pos = (304,800);
}
);
layerId = m01;
shapes = (
{
closed = 1;
nodes = (
(352,0,l),
(368,16,l),
(368,688,l),
(380,700,l),
(584,700,l),
(600,716,l),
(600,784,l),
(584,800,l),
(40,800,l),
(24,784,l),
(24,716,l),
(40,700,l),
(244,700,l),
(256,688,l),
(256,16,l),
(272,0,l)
);
}
);
width = 624;
},
{
anchors = (
{
name = bottom;
pos = (312,0);
},
{
name = top;
pos = (304,800);
}
);
layerId = m002;
shapes = (
{
closed = 1;
nodes = (
(352,0,l),
(368,16,l),
(368,688,l),
(380,700,l),
(584,700,l),
(600,716,l),
(600,784,l),
(584,800,l),
(40,800,l),
(24,784,l),
(24,716,l),
(40,700,l),
(244,700,l),
(256,688,l),
(256,16,l),
(272,0,l)
);
}
);
width = 624;
},
{
anchors = (
{
name = bottom;
pos = (312,0);
},
{
name = top;
pos = (304,800);
}
);
layerId = m003;
shapes = (
{
closed = 1;
nodes = (
(352,0,l),
(368,16,l),
(368,688,l),
(380,700,l),
(584,700,l),
(600,716,l),
(600,784,l),
(584,800,l),
(40,800,l),
(24,784,l),
(24,716,l),
(40,700,l),
(244,700,l),
(256,688,l),
(256,16,l),
(272,0,l)
);
}
);
width = 624;
},
{
anchors = (
{
name = bottom;
pos = (340,0);
},
{
name = top;
pos = (332,800);
}
);
layerId = m004;
shapes = (
{
closed = 1;
nodes = (
(416,0,l),
(432,16,l),
(432,620,l),
(444,632,l),
(632,632,l),
(648,648,l),
(648,784,l),
(632,800,l),
(32,800,l),
(16,784,l),
(16,648,l),
(32,632,l),
(220,632,l),
(232,620,l),
(232,16,l),
(248,0,l)
);
}
);
width = 664;
}
);
unicode = 84;
},
{
color = 5;
glyphname = U;
lastChange = "2024-07-25 06:08:41 +0000";
layers = (
{
anchors = (
{
name = bottom;
pos = (360,0);
},
{
name = ogonek;
pos = (424,52);
},
{
name = top;
pos = (360,800);
},
{
name = topright;
pos = (696,732);
}
);
layerId = m01;
shapes = (
{
closed = 1;
nodes = (
(564,-16,o),
(672,76,o),
(672,276,cs),
(672,784,l),
(656,800,l),
(576,800,l),
(560,784,l),
(560,292,ls),
(560,152,o),
(492,84,o),
(364,84,cs),
(236,84,o),
(168,152,o),
(168,292,cs),
(168,784,l),
(152,800,l),
(72,800,l),
(56,784,l),
(56,276,ls),
(56,76,o),
(164,-16,o),
(364,-16,cs)
);
}
);
width = 728;
},
{
anchors = (
{
name = bottom;
pos = (360,0);
},
{
name = ogonek;
pos = (424,52);
},
{
name = top;
pos = (360,800);
},
{
name = topright;
pos = (696,732);
}
);
layerId = m002;
shapes = (
{
closed = 1;
nodes = (
(564,-16,o),
(672,76,o),
(672,276,cs),
(672,784,l),
(656,800,l),
(576,800,l),
(560,784,l),
(560,292,ls),
(560,152,o),
(492,84,o),
(364,84,cs),
(236,84,o),
(168,152,o),
(168,292,cs),
(168,784,l),
(152,800,l),
(72,800,l),
(56,784,l),
(56,276,ls),
(56,76,o),
(164,-16,o),
(364,-16,cs)
);
}
);
width = 728;
},
{
anchors = (
{
name = bottom;
pos = (360,0);
},
{
name = ogonek;
pos = (424,52);
},
{
name = top;
pos = (360,800);
},
{
name = topright;
pos = (696,732);
}
);
layerId = m003;
shapes = (
{
closed = 1;
nodes = (
(564,-16,o),
(672,76,o),
(672,276,cs),
(672,784,l),
(656,800,l),
(576,800,l),
(560,784,l),
(560,292,ls),
(560,152,o),
(492,84,o),
(364,84,cs),
(236,84,o),
(168,152,o),
(168,292,cs),
(168,784,l),
(152,800,l),
(72,800,l),
(56,784,l),
(56,276,ls),
(56,76,o),
(164,-16,o),
(364,-16,cs)
);
}
);
width = 728;
},
{
anchors = (
{
name = bottom;
pos = (360,0);
},
{
name = ogonek;
pos = (424,52);
},
{
name = top;
pos = (360,800);
},
{
name = topright;
pos = (696,732);
}
);
layerId = m004;
shapes = (
{
closed = 1;
nodes = (
(560,-16,o),
(696,76,o),
(696,276,cs),
(696,784,l),
(680,800,l),
(512,800,l),
(496,784,l),
(496,304,ls),
(496,212,o),
(452,152,o),
(360,152,cs),
(268,152,o),
(228,212,o),
(228,304,cs),
(228,784,l),
(212,800,l),
(44,800,l),
(28,784,l),
(28,276,ls),
(28,76,o),
(160,-16,o),
(360,-16,cs)
);
}
);
width = 724;
}
);
unicode = 85;
},
{
color = 5;
glyphname = Uogonek;
lastChange = "2024-08-01 21:30:26 +0000";
layers = (
{
layerId = m01;
shapes = (
{
closed = 1;
nodes = (
(300,-28,l),
(248,-36,o),
(224,-64,o),
(224,-112,cs),
(224,-164,o),
(272,-196,o),
(348,-196,cs),
(384,-196,o),
(412,-188,o),
(428,-180,c),
(444,-164,l),
(444,-112,l),
(428,-96,l),
(412,-96,ls),
(384,-96,o),
(372,-88,o),
(372,-64,cs),
(372,-44,o),
(384,-16,o),
(432,0,cs),
(552,40,o),
(636,124,o),
(636,276,cs),
(636,784,l),
(620,800,l),
(452,800,l),
(436,784,l),
(436,304,ls),
(436,212,o),
(392,152,o),
(300,152,cs),
(208,152,o),
(168,212,o),
(168,304,cs),
(168,784,l),
(152,800,l),
(-16,800,l),
(-32,784,l),
(-32,276,ls),
(-32,76,o),
(100,-16,o),
(300,-16,c)
);
}
);
width = 600;
},
{
layerId = m002;
shapes = (
{
closed = 1;
nodes = (
(300,-28,l),
(248,-36,o),
(224,-64,o),
(224,-112,cs),
(224,-164,o),
(272,-196,o),
(348,-196,cs),
(384,-196,o),
(412,-188,o),
(428,-180,c),
(444,-164,l),
(444,-112,l),
(428,-96,l),
(412,-96,ls),
(384,-96,o),
(372,-88,o),
(372,-64,cs),
(372,-44,o),
(384,-16,o),
(432,0,cs),
(552,40,o),
(636,124,o),
(636,276,cs),
(636,784,l),
(620,800,l),
(452,800,l),
(436,784,l),
(436,304,ls),
(436,212,o),
(392,152,o),
(300,152,cs),
(208,152,o),
(168,212,o),
(168,304,cs),
(168,784,l),
(152,800,l),
(-16,800,l),
(-32,784,l),
(-32,276,ls),
(-32,76,o),
(100,-16,o),
(300,-16,c)
);
}
);
width = 600;
},
{
layerId = m003;
shapes = (
{
closed = 1;
nodes = (
(300,-28,l),
(248,-36,o),
(224,-64,o),
(224,-112,cs),
(224,-164,o),
(272,-196,o),
(348,-196,cs),
(384,-196,o),
(412,-188,o),
(428,-180,c),
(444,-164,l),
(444,-112,l),
(428,-96,l),
(412,-96,ls),
(384,-96,o),
(372,-88,o),
(372,-64,cs),
(372,-44,o),
(384,-16,o),
(432,0,cs),
(552,40,o),
(636,124,o),
(636,276,cs),
(636,784,l),
(620,800,l),
(452,800,l),
(436,784,l),
(436,304,ls),
(436,212,o),
(392,152,o),
(300,152,cs),
(208,152,o),
(168,212,o),
(168,304,cs),
(168,784,l),
(152,800,l),
(-16,800,l),
(-32,784,l),
(-32,276,ls),
(-32,76,o),
(100,-16,o),
(300,-16,c)
);
}
);
width = 600;
},
{
backgroundImage = {
imagePath = "/Users/eli/Desktop/Screenshot 2024-07-31 at 10.16.56 AM.png";
locked = 1;
pos = (-6116,-280);
scale = (5.92,5.92);
};
layerId = m004;
shapes = (
{
closed = 1;
nodes = (
(300,-28,l),
(248,-36,o),
(224,-64,o),
(224,-112,cs),
(224,-164,o),
(272,-196,o),
(348,-196,cs),
(384,-196,o),
(412,-188,o),
(428,-180,c),
(444,-164,l),
(444,-112,l),
(428,-96,l),
(412,-96,ls),
(384,-96,o),
(372,-88,o),
(372,-64,cs),
(372,-44,o),
(384,-16,o),
(432,0,cs),
(552,40,o),
(636,124,o),
(636,276,cs),
(636,784,l),
(620,800,l),
(452,800,l),
(436,784,l),
(436,304,ls),
(436,212,o),
(392,152,o),
(300,152,cs),
(208,152,o),
(168,212,o),
(168,304,cs),
(168,784,l),
(152,800,l),
(-16,800,l),
(-32,784,l),
(-32,276,ls),
(-32,76,o),
(100,-16,o),
(300,-16,c)
);
}
);
width = 600;
}
);
unicode = 370;
},
{
color = 5;
glyphname = V;
lastChange = "2024-07-25 06:10:31 +0000";
layers = (
{
layerId = m01;
shapes = (
{
closed = 1;
nodes = (
(100,784,l),
(84,800,l),
(32,800,l),
(16,784,l),
(16,696,l),
(268,16,l),
(284,0,l),
(416,0,l),
(436,16,l),
(688,696,l),
(688,784,l),
(672,800,l),
(620,800,l),
(604,784,l),
(360,112,l),
(344,112,l)
);
}
);
width = 704;
},
{
associatedMasterId = m01;
layerId = "E37F995E-4353-4CEE-9878-4894C6A8C1DB";
name = "Jun 2, 24 at 11:52";
shapes = (
{
closed = 1;
nodes = (
(-12,784,l),
(-12,696,l),
(252,16,l),
(268,0,l),
(392,0,l),
(412,16,l),
(676,696,l),
(676,784,l),
(660,800,l),
(608,800,l),
(592,784,l),
(516,584,l),
(500,568,l),
(164,568,l),
(148,584,l),
(72,784,l),
(56,800,l),
(4,800,l)
);
},
{
closed = 1;
nodes = (
(460,472,l),
(472,460,l),
(340,104,l),
(324,104,l),
(192,460,l),
(204,472,l)
);
}
);
width = 668;
},
{
associatedMasterId = m01;
backgroundImage = {
imagePath = "/Users/eli/Desktop/Screenshot 2024-06-02 at 11.05.15 AM.png";
locked = 1;
pos = (-228,-580);
scale = (9.75,9.75);
};
layerId = "4B7774A7-EAAC-4722-9B4C-8A791DB6C4E9";
name = "Jun 2, 24 at 12:03";
shapes = (
{
closed = 1;
nodes = (
(380,0,l),
(396,16,l),
(652,708,l),
(652,784,l),
(636,800,l),
(576,800,l),
(560,784,l),
(344,156,l),
(328,156,l),
(108,784,l),
(92,800,l),
(32,800,l),
(16,784,l),
(16,708,l),
(268,16,l),
(284,0,l)
);
}
);
width = 668;
},
{
layerId = m002;
shapes = (
{
closed = 1;
nodes = (
(100,784,l),
(84,800,l),
(32,800,l),
(16,784,l),
(16,696,l),
(268,16,l),
(284,0,l),
(416,0,l),
(436,16,l),
(688,696,l),
(688,784,l),
(672,800,l),
(620,800,l),
(604,784,l),
(360,112,l),
(344,112,l)
);
}
);
width = 704;
},
{
associatedMasterId = m002;
layerId = "B387D7CC-091E-4B4E-99E4-4D99BBF78C54";
name = "Jun 2, 24 at 11:52";
shapes = (
{
closed = 1;
nodes = (
(-12,784,l),
(-12,696,l),
(252,16,l),
(268,0,l),
(392,0,l),
(412,16,l),
(676,696,l),
(676,784,l),
(660,800,l),
(608,800,l),
(592,784,l),
(516,584,l),
(500,568,l),
(164,568,l),
(148,584,l),
(72,784,l),
(56,800,l),
(4,800,l)
);
},
{
closed = 1;
nodes = (
(460,472,l),
(472,460,l),
(340,104,l),
(324,104,l),
(192,460,l),
(204,472,l)
);
}
);
width = 668;
},
{
associatedMasterId = m002;
backgroundImage = {
imagePath = "/Users/eli/Desktop/Screenshot 2024-06-02 at 11.05.15 AM.png";
locked = 1;
pos = (-228,-580);
scale = (9.75,9.75);
};
layerId = "FB0B4937-9003-4651-9394-88DCEC6E8DB8";
name = "Jun 2, 24 at 12:03";
shapes = (
{
closed = 1;
nodes = (
(380,0,l),
(396,16,l),
(652,708,l),
(652,784,l),
(636,800,l),
(576,800,l),
(560,784,l),
(344,156,l),
(328,156,l),
(108,784,l),
(92,800,l),
(32,800,l),
(16,784,l),
(16,708,l),
(268,16,l),
(284,0,l)
);
}
);
width = 668;
},
{
layerId = m003;
shapes = (
{
closed = 1;
nodes = (
(100,784,l),
(84,800,l),
(32,800,l),
(16,784,l),
(16,696,l),
(268,16,l),
(284,0,l),
(416,0,l),
(436,16,l),
(688,696,l),
(688,784,l),
(672,800,l),
(620,800,l),
(604,784,l),
(360,112,l),
(344,112,l)
);
}
);
width = 704;
},
{
associatedMasterId = m003;
layerId = "46DDBE2D-47A1-49E9-A0BD-80F9CD46B7C8";
name = "Jun 2, 24 at 11:52";
shapes = (
{
closed = 1;
nodes = (
(-12,784,l),
(-12,696,l),
(252,16,l),
(268,0,l),
(392,0,l),
(412,16,l),
(676,696,l),
(676,784,l),
(660,800,l),
(608,800,l),
(592,784,l),
(516,584,l),
(500,568,l),
(164,568,l),
(148,584,l),
(72,784,l),
(56,800,l),
(4,800,l)
);
},
{
closed = 1;
nodes = (
(460,472,l),
(472,460,l),
(340,104,l),
(324,104,l),
(192,460,l),
(204,472,l)
);
}
);
width = 668;
},
{
associatedMasterId = m003;
backgroundImage = {
imagePath = "/Users/eli/Desktop/Screenshot 2024-06-02 at 11.05.15 AM.png";
locked = 1;
pos = (-228,-580);
scale = (9.75,9.75);
};
layerId = "EB453DAD-2FEF-49CD-99C1-80C4E628E3F3";
name = "Jun 2, 24 at 12:03";
shapes = (
{
closed = 1;
nodes = (
(380,0,l),
(396,16,l),
(652,708,l),
(652,784,l),
(636,800,l),
(576,800,l),
(560,784,l),
(344,156,l),
(328,156,l),
(108,784,l),
(92,800,l),
(32,800,l),
(16,784,l),
(16,708,l),
(268,16,l),
(284,0,l)
);
}
);
width = 668;
},
{
layerId = m004;
shapes = (
{
closed = 1;
nodes = (
(200,784,l),
(184,800,l),
(32,800,l),
(16,784,l),
(16,720,l),
(248,16,l),
(264,0,l),
(444,0,l),
(464,16,l),
(696,720,l),
(696,784,l),
(680,800,l),
(528,800,l),
(512,784,l),
(364,264,l),
(352,264,l)
);
}
);
width = 712;
},
{
associatedMasterId = m004;
layerId = "CA94E2E3-D0BE-4839-B8C3-4670714C7A0F";
name = "Jun 2, 24 at 11:52";
shapes = (
{
closed = 1;
nodes = (
(-12,784,l),
(-12,696,l),
(252,16,l),
(268,0,l),
(392,0,l),
(412,16,l),
(676,696,l),
(676,784,l),
(660,800,l),
(608,800,l),
(592,784,l),
(516,584,l),
(500,568,l),
(164,568,l),
(148,584,l),
(72,784,l),
(56,800,l),
(4,800,l)
);
},
{
closed = 1;
nodes = (
(460,472,l),
(472,460,l),
(340,104,l),
(324,104,l),
(192,460,l),
(204,472,l)
);
}
);
width = 668;
},
{
associatedMasterId = m004;
backgroundImage = {
imagePath = "/Users/eli/Desktop/Screenshot 2024-06-02 at 11.05.15 AM.png";
locked = 1;
pos = (-228,-580);
scale = (9.75,9.75);
};
layerId = "ACE37562-C089-4231-B1B5-A63E35E73691";
name = "Jun 2, 24 at 12:03";
shapes = (
{
closed = 1;
nodes = (
(380,0,l),
(396,16,l),
(652,708,l),
(652,784,l),
(636,800,l),
(576,800,l),
(560,784,l),
(344,156,l),
(328,156,l),
(108,784,l),
(92,800,l),
(32,800,l),
(16,784,l),
(16,708,l),
(268,16,l),
(284,0,l)
);
}
);
width = 668;
}
);
unicode = 86;
},
{
color = 5;
glyphname = W;
kernLeft = W;
kernRight = W;
lastChange = "2024-07-25 06:13:05 +0000";
layers = (
{
anchors = (
{
name = bottom;
pos = (520,0);
},
{
name = top;
pos = (520,800);
}
);
layerId = m01;
shapes = (
{
closed = 1;
nodes = (
(136,784,l),
(120,800,l),
(48,800,l),
(32,784,l),
(32,696,l),
(192,16,l),
(208,0,l),
(360,0,l),
(380,16,l),
(524,688,l),
(544,688,l),
(688,16,l),
(704,0,l),
(856,0,l),
(876,16,l),
(1036,696,l),
(1036,784,l),
(1020,800,l),
(948,800,l),
(932,784,l),
(788,112,l),
(772,112,l),
(624,784,l),
(608,800,l),
(460,800,l),
(444,784,l),
(296,112,l),
(280,112,l)
);
}
);
width = 1068;
},
{
associatedMasterId = m01;
layerId = "F7D8829E-89DF-4AC7-A6EA-5F927C54860E";
name = "Jun 2, 24 at 12:21";
shapes = (
{
closed = 1;
nodes = (
(308,0,l),
(324,16,l),
(492,616,l),
(508,616,l),
(676,16,l),
(692,0,l),
(788,0,l),
(804,16,l),
(984,708,l),
(984,784,l),
(968,800,l),
(912,800,l),
(896,784,l),
(748,208,l),
(732,208,l),
(568,784,l),
(552,800,l),
(448,800,l),
(432,784,l),
(268,208,l),
(252,208,l),
(104,784,l),
(88,800,l),
(32,800,l),
(16,784,l),
(16,708,l),
(196,16,l),
(212,0,l)
);
}
);
width = 1000;
},
{
anchors = (
{
name = bottom;
pos = (520,0);
},
{
name = top;
pos = (520,800);
}
);
layerId = m002;
shapes = (
{
closed = 1;
nodes = (
(116,784,l),
(100,800,l),
(32,800,l),
(16,784,l),
(16,712,l),
(172,16,l),
(188,0,l),
(320,0,l),
(340,16,l),
(508,672,l),
(528,672,l),
(696,16,l),
(712,0,l),
(844,0,l),
(864,16,l),
(1020,712,l),
(1020,784,l),
(1004,800,l),
(936,800,l),
(920,784,l),
(788,128,l),
(772,128,l),
(612,784,l),
(596,800,l),
(440,800,l),
(424,784,l),
(264,128,l),
(248,128,l)
);
}
);
width = 1036;
},
{
associatedMasterId = m002;
layerId = "8C12C0D6-CEBD-4D2B-BE8C-1A780E0D842D";
name = "Jun 2, 24 at 12:21";
shapes = (
{
closed = 1;
nodes = (
(308,0,l),
(324,16,l),
(492,616,l),
(508,616,l),
(676,16,l),
(692,0,l),
(788,0,l),
(804,16,l),
(984,708,l),
(984,784,l),
(968,800,l),
(912,800,l),
(896,784,l),
(748,208,l),
(732,208,l),
(568,784,l),
(552,800,l),
(448,800,l),
(432,784,l),
(268,208,l),
(252,208,l),
(104,784,l),
(88,800,l),
(32,800,l),
(16,784,l),
(16,708,l),
(196,16,l),
(212,0,l)
);
}
);
width = 1000;
},
{
anchors = (
{
name = bottom;
pos = (520,0);
},
{
name = top;
pos = (520,800);
}
);
layerId = m003;
shapes = (
{
closed = 1;
nodes = (
(136,784,l),
(120,800,l),
(48,800,l),
(32,784,l),
(32,696,l),
(192,16,l),
(208,0,l),
(360,0,l),
(380,16,l),
(524,688,l),
(544,688,l),
(688,16,l),
(704,0,l),
(856,0,l),
(876,16,l),
(1036,696,l),
(1036,784,l),
(1020,800,l),
(948,800,l),
(932,784,l),
(788,112,l),
(772,112,l),
(624,784,l),
(608,800,l),
(460,800,l),
(444,784,l),
(296,112,l),
(280,112,l)
);
}
);
width = 1068;
},
{
associatedMasterId = m003;
layerId = "D4788D45-4F32-4D5A-A620-D77CA1D65EBA";
name = "Jun 2, 24 at 12:21";
shapes = (
{
closed = 1;
nodes = (
(308,0,l),
(324,16,l),
(492,616,l),
(508,616,l),
(676,16,l),
(692,0,l),
(788,0,l),
(804,16,l),
(984,708,l),
(984,784,l),
(968,800,l),
(912,800,l),
(896,784,l),
(748,208,l),
(732,208,l),
(568,784,l),
(552,800,l),
(448,800,l),
(432,784,l),
(268,208,l),
(252,208,l),
(104,784,l),
(88,800,l),
(32,800,l),
(16,784,l),
(16,708,l),
(196,16,l),
(212,0,l)
);
}
);
width = 1000;
},
{
anchors = (
{
name = bottom;
pos = (520,0);
},
{
name = top;
pos = (520,800);
}
);
layerId = m004;
shapes = (
{
closed = 1;
nodes = (
(196,784,l),
(180,800,l),
(32,800,l),
(16,784,l),
(16,720,l),
(204,16,l),
(220,0,l),
(396,0,l),
(412,16,l),
(512,500,l),
(524,500,l),
(628,16,l),
(644,0,l),
(812,0,l),
(828,16,l),
(1024,720,l),
(1024,784,l),
(1008,800,l),
(856,800,l),
(840,784,l),
(732,308,l),
(720,308,l),
(616,784,l),
(600,800,l),
(440,800,l),
(424,784,l),
(316,308,l),
(304,308,l)
);
}
);
width = 1040;
},
{
associatedMasterId = m004;
layerId = "3452B76D-4F25-4ABF-8D66-F8C541F77124";
name = "Jun 2, 24 at 12:21";
shapes = (
{
closed = 1;
nodes = (
(308,0,l),
(324,16,l),
(492,616,l),
(508,616,l),
(676,16,l),
(692,0,l),
(788,0,l),
(804,16,l),
(984,708,l),
(984,784,l),
(968,800,l),
(912,800,l),
(896,784,l),
(748,208,l),
(732,208,l),
(568,784,l),
(552,800,l),
(448,800,l),
(432,784,l),
(268,208,l),
(252,208,l),
(104,784,l),
(88,800,l),
(32,800,l),
(16,784,l),
(16,708,l),
(196,16,l),
(212,0,l)
);
}
);
width = 1000;
}
);
unicode = 87;
},
{
color = 5;
glyphname = X;
lastChange = "2024-07-25 06:58:05 +0000";
layers = (
{
layerId = m01;
shapes = (
{
closed = 1;
nodes = (
(72,0,l),
(96,16,l),
(316,320,l),
(332,320,l),
(552,16,l),
(576,0,l),
(616,0,l),
(632,16,l),
(632,92,l),
(400,400,l),
(400,420,l),
(624,708,l),
(624,784,l),
(608,800,l),
(564,800,l),
(540,784,l),
(332,492,l),
(316,492,l),
(104,784,l),
(80,800,l),
(40,800,l),
(24,784,l),
(24,708,l),
(248,420,l),
(248,400,l),
(16,92,l),
(16,16,l),
(32,0,l)
);
}
);
width = 648;
},
{
layerId = m002;
shapes = (
{
closed = 1;
nodes = (
(72,0,l),
(96,16,l),
(316,320,l),
(332,320,l),
(552,16,l),
(576,0,l),
(616,0,l),
(632,16,l),
(632,92,l),
(400,400,l),
(400,420,l),
(624,708,l),
(624,784,l),
(608,800,l),
(564,800,l),
(540,784,l),
(332,492,l),
(316,492,l),
(104,784,l),
(80,800,l),
(40,800,l),
(24,784,l),
(24,708,l),
(248,420,l),
(248,400,l),
(16,92,l),
(16,16,l),
(32,0,l)
);
}
);
width = 648;
},
{
layerId = m003;
shapes = (
{
closed = 1;
nodes = (
(72,0,l),
(96,16,l),
(316,320,l),
(332,320,l),
(552,16,l),
(576,0,l),
(616,0,l),
(632,16,l),
(632,92,l),
(400,400,l),
(400,420,l),
(624,708,l),
(624,784,l),
(608,800,l),
(564,800,l),
(540,784,l),
(332,492,l),
(316,492,l),
(104,784,l),
(80,800,l),
(40,800,l),
(24,784,l),
(24,708,l),
(248,420,l),
(248,400,l),
(16,92,l),
(16,16,l),
(32,0,l)
);
}
);
width = 648;
},
{
layerId = m004;
shapes = (
{
closed = 1;
nodes = (
(176,0,l),
(192,16,l),
(332,252,l),
(348,252,l),
(484,16,l),
(500,0,l),
(660,0,l),
(676,16,l),
(676,80,l),
(468,412,l),
(468,428,l),
(648,720,l),
(648,784,l),
(632,800,l),
(496,800,l),
(472,784,l),
(352,576,l),
(336,576,l),
(216,784,l),
(192,800,l),
(48,800,l),
(32,784,l),
(32,720,l),
(216,428,l),
(216,412,l),
(8,80,l),
(8,16,l),
(24,0,l)
);
}
);
width = 684;
}
);
unicode = 88;
},
{
color = 5;
glyphname = Y;
kernLeft = Y;
kernRight = Y;
lastChange = "2024-07-25 06:58:09 +0000";
layers = (
{
anchors = (
{
name = bottom;
pos = (316,0);
},
{
name = top;
pos = (316,800);
},
{
name = topleft;
pos = (20,800);
}
);
layerId = m01;
shapes = (
{
closed = 1;
nodes = (
(608,708,l),
(608,784,l),
(592,800,l),
(552,800,l),
(528,784,l),
(324,440,l),
(300,440,l),
(96,784,l),
(72,800,l),
(32,800,l),
(16,784,l),
(16,708,l),
(256,320,l),
(256,16,l),
(272,0,l),
(352,0,l),
(368,16,l),
(368,320,l)
);
}
);
width = 624;
},
{
anchors = (
{
name = bottom;
pos = (316,0);
},
{
name = top;
pos = (316,800);
},
{
name = topleft;
pos = (20,800);
}
);
layerId = m002;
shapes = (
{
closed = 1;
nodes = (
(352,0,l),
(368,16,l),
(368,320,l),
(608,712,l),
(608,784,l),
(592,800,l),
(552,800,l),
(528,784,l),
(324,440,l),
(300,440,l),
(96,784,l),
(72,800,l),
(32,800,l),
(16,784,l),
(16,712,l),
(256,320,l),
(256,16,l),
(272,0,l)
);
}
);
width = 624;
},
{
anchors = (
{
name = bottom;
pos = (316,0);
},
{
name = top;
pos = (316,800);
},
{
name = topleft;
pos = (20,800);
}
);
layerId = m003;
shapes = (
{
closed = 1;
nodes = (
(608,708,l),
(608,784,l),
(592,800,l),
(552,800,l),
(528,784,l),
(324,440,l),
(300,440,l),
(96,784,l),
(72,800,l),
(32,800,l),
(16,784,l),
(16,708,l),
(256,320,l),
(256,16,l),
(272,0,l),
(352,0,l),
(368,16,l),
(368,320,l)
);
}
);
width = 624;
},
{
anchors = (
{
name = bottom;
pos = (348,0);
},
{
name = top;
pos = (348,800);
},
{
name = topleft;
pos = (52,800);
}
);
layerId = m004;
shapes = (
{
closed = 1;
nodes = (
(420,0,l),
(436,16,l),
(436,300,l),
(660,720,l),
(660,784,l),
(644,800,l),
(516,800,l),
(492,784,l),
(344,484,l),
(332,484,l),
(188,784,l),
(172,800,l),
(24,800,l),
(8,784,l),
(8,720,l),
(236,300,l),
(236,16,l),
(252,0,l)
);
}
);
width = 668;
}
);
unicode = 89;
},
{
color = 5;
glyphname = Z;
lastChange = "2024-07-25 06:58:32 +0000";
layers = (
{
anchors = (
{
name = bottom;
pos = (340,0);
},
{
name = center;
pos = (340,352);
},
{
name = top;
pos = (360,800);
}
);
layerId = m01;
shapes = (
{
closed = 1;
nodes = (
(572,0,l),
(588,16,l),
(588,84,l),
(572,100,l),
(156,100,l),
(156,116,l),
(552,676,l),
(568,712,l),
(568,784,l),
(552,800,l),
(44,800,l),
(28,784,l),
(28,716,l),
(44,700,l),
(428,700,l),
(428,684,l),
(28,128,l),
(16,104,l),
(16,16,l),
(32,0,l)
);
}
);
width = 604;
},
{
anchors = (
{
name = bottom;
pos = (340,0);
},
{
name = center;
pos = (340,352);
},
{
name = top;
pos = (360,800);
}
);
layerId = m002;
shapes = (
{
closed = 1;
nodes = (
(572,0,l),
(588,16,l),
(588,84,l),
(572,100,l),
(156,100,l),
(156,116,l),
(552,676,l),
(568,712,l),
(568,784,l),
(552,800,l),
(44,800,l),
(28,784,l),
(28,716,l),
(44,700,l),
(428,700,l),
(428,684,l),
(28,128,l),
(16,104,l),
(16,16,l),
(32,0,l)
);
}
);
width = 604;
},
{
anchors = (
{
name = bottom;
pos = (340,0);
},
{
name = center;
pos = (340,352);
},
{
name = top;
pos = (360,800);
}
);
layerId = m003;
shapes = (
{
closed = 1;
nodes = (
(572,0,l),
(588,16,l),
(588,84,l),
(572,100,l),
(156,100,l),
(156,116,l),
(552,676,l),
(568,712,l),
(568,784,l),
(552,800,l),
(44,800,l),
(28,784,l),
(28,716,l),
(44,700,l),
(428,700,l),
(428,684,l),
(28,128,l),
(16,104,l),
(16,16,l),
(32,0,l)
);
}
);
width = 604;
},
{
anchors = (
{
name = bottom;
pos = (336,0);
},
{
name = center;
pos = (336,352);
},
{
name = top;
pos = (356,800);
}
);
layerId = m004;
shapes = (
{
closed = 1;
nodes = (
(660,0,l),
(676,16,l),
(676,152,l),
(660,168,l),
(268,168,l),
(268,180,l),
(644,628,l),
(660,660,l),
(660,784,l),
(644,800,l),
(52,800,l),
(36,784,l),
(36,648,l),
(52,632,l),
(392,632,l),
(392,620,l),
(24,184,l),
(8,152,l),
(8,16,l),
(24,0,l)
);
}
);
width = 684;
}
);
unicode = 90;
},
{
color = 5;
glyphname = R.ss01;
kernLeft = R;
kernRight = R;
lastChange = "2024-07-25 02:04:32 +0000";
layers = (
{
anchors = (
{
name = bottom;
pos = (388,0);
},
{
name = top;
pos = (348,800);
}
);
layerId = m01;
shapes = (
{
closed = 1;
nodes = (
(232,464,l),
(232,632,l),
(244,644,l),
(376,644,ls),
(448,644,o),
(496,620,o),
(496,548,cs),
(496,476,o),
(448,452,o),
(376,452,cs),
(244,452,l)
);
},
{
closed = 1;
nodes = (
(216,0,l),
(232,16,l),
(232,292,l),
(244,304,l),
(360,304,ls),
(448,304,o),
(480,264,o),
(480,192,cs),
(480,16,l),
(496,0,l),
(668,0,l),
(684,16,l),
(684,192,ls),
(684,268,o),
(660,332,o),
(560,372,c),
(560,384,l),
(640,412,o),
(696,444,o),
(696,576,cs),
(696,744,o),
(548,800,o),
(388,800,cs),
(48,800,l),
(32,784,l),
(32,16,l),
(48,0,l)
);
}
);
width = 792;
},
{
associatedMasterId = m01;
layerId = "A5E0E3B2-E6D3-4034-80CC-4DBBBAAF833A";
name = "Jun 7, 24 at 00:27";
shapes = (
{
closed = 1;
nodes = (
(176,452,l),
(176,692,l),
(188,704,l),
(404,704,ls),
(508,704,o),
(564,680,o),
(564,576,cs),
(564,472,o),
(508,440,o),
(404,440,cs),
(188,440,l)
);
},
{
closed = 1;
nodes = (
(160,0,l),
(176,16,l),
(176,332,l),
(188,344,l),
(348,344,l),
(364,336,l),
(596,8,l),
(612,0,l),
(664,0,l),
(680,16,l),
(680,80,l),
(500,336,l),
(500,352,l),
(600,372,o),
(680,432,o),
(680,576,cs),
(680,744,o),
(572,800,o),
(404,800,cs),
(80,800,l),
(64,784,l),
(64,16,l),
(80,0,l)
);
}
);
width = 720;
},
{
anchors = (
{
name = bottom;
pos = (324,0);
},
{
name = top;
pos = (300,800);
}
);
layerId = m002;
shapes = (
{
closed = 1;
nodes = (
(232,464,l),
(232,632,l),
(244,644,l),
(376,644,ls),
(448,644,o),
(496,620,o),
(496,548,cs),
(496,476,o),
(448,452,o),
(376,452,cs),
(244,452,l)
);
},
{
closed = 1;
nodes = (
(216,0,l),
(232,16,l),
(232,292,l),
(244,304,l),
(360,304,ls),
(448,304,o),
(480,264,o),
(480,192,cs),
(480,16,l),
(496,0,l),
(668,0,l),
(684,16,l),
(684,192,ls),
(684,268,o),
(660,332,o),
(560,372,c),
(560,384,l),
(640,412,o),
(696,444,o),
(696,576,cs),
(696,744,o),
(548,800,o),
(388,800,cs),
(48,800,l),
(32,784,l),
(32,16,l),
(48,0,l)
);
}
);
width = 672;
},
{
associatedMasterId = m002;
layerId = "6947AE4C-FFFA-4364-BAAA-1961A04491CD";
name = "Jun 7, 24 at 00:27";
shapes = (
{
closed = 1;
nodes = (
(176,452,l),
(176,692,l),
(188,704,l),
(404,704,ls),
(508,704,o),
(564,680,o),
(564,576,cs),
(564,472,o),
(508,440,o),
(404,440,cs),
(188,440,l)
);
},
{
closed = 1;
nodes = (
(160,0,l),
(176,16,l),
(176,332,l),
(188,344,l),
(348,344,l),
(364,336,l),
(596,8,l),
(612,0,l),
(664,0,l),
(680,16,l),
(680,80,l),
(500,336,l),
(500,352,l),
(600,372,o),
(680,432,o),
(680,576,cs),
(680,744,o),
(572,800,o),
(404,800,cs),
(80,800,l),
(64,784,l),
(64,16,l),
(80,0,l)
);
}
);
width = 720;
},
{
associatedMasterId = m002;
layerId = "7A8BD07B-B21F-4613-B0C3-DF0E60BC3133";
name = "Jul 11, 24 at 14:40";
shapes = (
{
closed = 1;
nodes = (
(144,452,l),
(144,692,l),
(156,704,l),
(380,704,ls),
(484,704,o),
(540,680,o),
(540,576,cs),
(540,472,o),
(476,440,o),
(372,440,cs),
(156,440,l)
);
},
{
closed = 1;
nodes = (
(128,0,l),
(144,16,l),
(144,332,l),
(156,344,l),
(360,344,l),
(372,332,l),
(568,16,l),
(584,0,l),
(636,0,l),
(652,16,l),
(652,72,l),
(484,344,l),
(484,360,l),
(580,384,o),
(656,456,o),
(656,576,cs),
(656,744,o),
(548,800,o),
(380,800,cs),
(48,800,l),
(32,784,l),
(32,16,l),
(48,0,l)
);
}
);
width = 672;
},
{
anchors = (
{
name = bottom;
pos = (388,0);
},
{
name = top;
pos = (348,800);
}
);
layerId = m003;
shapes = (
{
closed = 1;
nodes = (
(232,464,l),
(232,632,l),
(244,644,l),
(376,644,ls),
(448,644,o),
(496,620,o),
(496,548,cs),
(496,476,o),
(448,452,o),
(376,452,cs),
(244,452,l)
);
},
{
closed = 1;
nodes = (
(216,0,l),
(232,16,l),
(232,292,l),
(244,304,l),
(360,304,ls),
(448,304,o),
(480,264,o),
(480,192,cs),
(480,16,l),
(496,0,l),
(668,0,l),
(684,16,l),
(684,192,ls),
(684,268,o),
(660,332,o),
(560,372,c),
(560,384,l),
(640,412,o),
(696,444,o),
(696,576,cs),
(696,744,o),
(548,800,o),
(388,800,cs),
(48,800,l),
(32,784,l),
(32,16,l),
(48,0,l)
);
}
);
width = 792;
},
{
associatedMasterId = m003;
layerId = "C5A82E87-3D20-4D9F-A00A-E611DBB7D41A";
name = "Jun 7, 24 at 00:27";
shapes = (
{
closed = 1;
nodes = (
(176,452,l),
(176,692,l),
(188,704,l),
(404,704,ls),
(508,704,o),
(564,680,o),
(564,576,cs),
(564,472,o),
(508,440,o),
(404,440,cs),
(188,440,l)
);
},
{
closed = 1;
nodes = (
(160,0,l),
(176,16,l),
(176,332,l),
(188,344,l),
(348,344,l),
(364,336,l),
(596,8,l),
(612,0,l),
(664,0,l),
(680,16,l),
(680,80,l),
(500,336,l),
(500,352,l),
(600,372,o),
(680,432,o),
(680,576,cs),
(680,744,o),
(572,800,o),
(404,800,cs),
(80,800,l),
(64,784,l),
(64,16,l),
(80,0,l)
);
}
);
width = 720;
},
{
anchors = (
{
name = bottom;
pos = (324,0);
},
{
name = top;
pos = (300,800);
}
);
backgroundImage = {
imagePath = "/Users/eli/Desktop/Screenshot 2024-07-24 at 6.43.35 PM.png";
locked = 1;
pos = (-236,-176);
scale = (5.93,5.93);
};
layerId = m004;
shapes = (
{
closed = 1;
nodes = (
(232,464,l),
(232,632,l),
(244,644,l),
(376,644,ls),
(448,644,o),
(496,620,o),
(496,548,cs),
(496,476,o),
(448,452,o),
(376,452,cs),
(244,452,l)
);
},
{
closed = 1;
nodes = (
(216,0,l),
(232,16,l),
(232,292,l),
(244,304,l),
(360,304,ls),
(448,304,o),
(480,264,o),
(480,192,cs),
(480,16,l),
(496,0,l),
(668,0,l),
(684,16,l),
(684,192,ls),
(684,268,o),
(660,332,o),
(560,372,c),
(560,384,l),
(640,412,o),
(696,444,o),
(696,576,cs),
(696,744,o),
(548,800,o),
(388,800,cs),
(48,800,l),
(32,784,l),
(32,16,l),
(48,0,l)
);
}
);
width = 712;
},
{
associatedMasterId = m004;
layerId = "13FF85BA-E004-42A5-AD64-0846B3483BC3";
name = "Jun 7, 24 at 00:27";
shapes = (
{
closed = 1;
nodes = (
(176,452,l),
(176,692,l),
(188,704,l),
(404,704,ls),
(508,704,o),
(564,680,o),
(564,576,cs),
(564,472,o),
(508,440,o),
(404,440,cs),
(188,440,l)
);
},
{
closed = 1;
nodes = (
(160,0,l),
(176,16,l),
(176,332,l),
(188,344,l),
(348,344,l),
(364,336,l),
(596,8,l),
(612,0,l),
(664,0,l),
(680,16,l),
(680,80,l),
(500,336,l),
(500,352,l),
(600,372,o),
(680,432,o),
(680,576,cs),
(680,744,o),
(572,800,o),
(404,800,cs),
(80,800,l),
(64,784,l),
(64,16,l),
(80,0,l)
);
}
);
width = 720;
},
{
associatedMasterId = m004;
layerId = "4C9C2906-60E7-41A3-A344-D1390D23BCFB";
name = "Jul 11, 24 at 14:40";
shapes = (
{
closed = 1;
nodes = (
(144,452,l),
(144,692,l),
(156,704,l),
(380,704,ls),
(484,704,o),
(540,680,o),
(540,576,cs),
(540,472,o),
(476,440,o),
(372,440,cs),
(156,440,l)
);
},
{
closed = 1;
nodes = (
(128,0,l),
(144,16,l),
(144,332,l),
(156,344,l),
(360,344,l),
(372,332,l),
(568,16,l),
(584,0,l),
(636,0,l),
(652,16,l),
(652,72,l),
(484,344,l),
(484,360,l),
(580,384,o),
(656,456,o),
(656,576,cs),
(656,744,o),
(548,800,o),
(380,800,cs),
(48,800,l),
(32,784,l),
(32,16,l),
(48,0,l)
);
}
);
width = 672;
}
);
},
{
color = 5;
glyphname = a;
kernLeft = a;
kernRight = a;
lastChange = "2024-08-06 01:39:04 +0000";
layers = (
{
anchors = (
{
name = bottom;
pos = (268,0);
},
{
name = ogonek;
pos = (516,0);
},
{
name = top;
pos = (304,576);
}
);
layerId = m01;
shapes = (
{
closed = 1;
nodes = (
(324,-16,o),
(388,4,o),
(436,68,c),
(452,68,l),
(456,32,o),
(488,0,o),
(524,0,cs),
(572,0,l),
(588,16,l),
(588,72,l),
(572,88,l),
(564,88,ls),
(544,88,o),
(540,100,o),
(540,120,cs),
(540,376,ls),
(540,528,o),
(464,592,o),
(312,592,cs),
(200,592,o),
(88,528,o),
(88,428,cs),
(88,416,l),
(104,400,l),
(168,400,l),
(184,416,l),
(192,480,o),
(248,504,o),
(312,504,cs),
(392,504,o),
(440,472,o),
(440,392,cs),
(440,356,l),
(428,344,l),
(344,344,ls),
(172,344,o),
(48,304,o),
(48,160,cs),
(48,56,o),
(136,-16,o),
(244,-16,cs)
);
},
{
closed = 1;
nodes = (
(200,68,o),
(152,100,o),
(152,160,cs),
(152,256,o),
(256,268,o),
(352,268,cs),
(428,268,l),
(440,256,l),
(440,200,ls),
(440,104,o),
(356,68,o),
(260,68,cs)
);
}
);
width = 636;
},
{
anchors = (
{
name = bottom;
pos = (268,0);
},
{
name = ogonek;
pos = (516,0);
},
{
name = top;
pos = (304,576);
}
);
layerId = m002;
shapes = (
{
closed = 1;
nodes = (
(292,-16,o),
(356,0,o),
(404,64,c),
(420,64,l),
(424,28,o),
(452,0,o),
(500,0,cs),
(548,0,l),
(564,16,l),
(564,72,l),
(548,88,l),
(544,88,ls),
(520,88,o),
(508,100,o),
(508,124,cs),
(508,384,ls),
(508,532,o),
(424,592,o),
(276,592,cs),
(164,592,o),
(56,524,o),
(56,424,cs),
(56,416,l),
(72,400,l),
(132,400,l),
(148,416,l),
(156,480,o),
(216,504,o),
(280,504,cs),
(360,504,o),
(408,472,o),
(408,392,cs),
(408,356,l),
(396,344,l),
(336,344,ls),
(116,344,o),
(16,292,o),
(16,164,cs),
(16,40,o),
(92,-16,o),
(212,-16,cs)
);
},
{
closed = 1;
nodes = (
(164,68,o),
(120,104,o),
(120,164,cs),
(120,220,o),
(164,268,o),
(312,268,cs),
(396,268,l),
(408,256,l),
(408,200,ls),
(408,104,o),
(324,68,o),
(228,68,cs)
);
}
);
width = 572;
},
{
associatedMasterId = m002;
backgroundImage = {
imagePath = "/Users/eli/Desktop/Screenshot 2024-06-22 at 3.03.39 PM.png";
pos = (3260,1196);
scale = (19,19);
};
layerId = "AF142F8A-E506-43F8-8C61-1D01C894F93A";
name = "Jun 30, 24 at 09:30";
shapes = (
{
closed = 1;
nodes = (
(312,-16,o),
(372,36,o),
(396,68,c),
(412,68,l),
(412,24,o),
(432,0,o),
(476,0,cs),
(524,0,l),
(540,16,l),
(540,72,l),
(524,88,l),
(508,88,o),
(500,96,o),
(500,112,cs),
(500,392,ls),
(500,528,o),
(404,592,o),
(268,592,cs),
(156,592,o),
(44,532,o),
(44,432,cs),
(44,416,l),
(60,400,l),
(124,400,l),
(140,416,l),
(140,432,ls),
(140,484,o),
(204,504,o),
(268,504,cs),
(348,504,o),
(396,472,o),
(396,392,cs),
(396,356,l),
(384,344,l),
(312,344,ls),
(140,344,o),
(8,304,o),
(8,160,cs),
(8,56,o),
(96,-16,o),
(204,-16,cs)
);
},
{
closed = 1;
nodes = (
(160,68,o),
(112,104,o),
(112,160,cs),
(112,240,o),
(180,268,o),
(312,268,cs),
(384,268,l),
(396,256,l),
(396,196,ls),
(396,112,o),
(328,68,o),
(220,68,cs)
);
}
);
width = 548;
},
{
associatedMasterId = m002;
backgroundImage = {
imagePath = "/Users/eli/Desktop/Screenshot 2024-06-22 at 3.03.39 PM.png";
pos = (3268,1196);
scale = (19,19);
};
layerId = "2358A2BF-11BA-4D01-88D3-F3EE2B0D0078";
name = "Jul 1, 24 at 18:02";
shapes = (
{
closed = 1;
nodes = (
(320,-16,o),
(380,36,o),
(404,68,c),
(420,68,l),
(424,32,o),
(456,0,o),
(492,0,cs),
(540,0,l),
(556,16,l),
(556,72,l),
(540,88,l),
(532,88,ls),
(512,88,o),
(508,100,o),
(508,120,cs),
(508,376,ls),
(508,540,o),
(416,592,o),
(280,592,cs),
(168,592,o),
(56,528,o),
(56,428,cs),
(56,416,l),
(72,400,l),
(136,400,l),
(152,416,l),
(152,424,ls),
(152,476,o),
(216,504,o),
(280,504,cs),
(360,504,o),
(408,472,o),
(408,392,cs),
(408,356,l),
(396,344,l),
(312,344,ls),
(140,344,o),
(16,304,o),
(16,160,cs),
(16,56,o),
(104,-16,o),
(212,-16,cs)
);
},
{
closed = 1;
nodes = (
(168,68,o),
(120,100,o),
(120,160,cs),
(120,256,o),
(224,268,o),
(320,268,cs),
(396,268,l),
(408,256,l),
(408,200,ls),
(408,104,o),
(324,68,o),
(228,68,cs)
);
}
);
width = 572;
},
{
anchors = (
{
name = bottom;
pos = (284,0);
},
{
name = ogonek;
pos = (532,0);
},
{
name = top;
pos = (320,576);
}
);
layerId = m003;
shapes = (
{
closed = 1;
nodes = (
(296,-16,o),
(348,4,o),
(396,56,c),
(412,56,l),
(420,24,o),
(448,0,o),
(492,0,cs),
(600,0,l),
(616,16,l),
(616,48,l),
(600,64,l),
(596,64,ls),
(584,64,o),
(576,72,o),
(576,84,cs),
(576,376,ls),
(576,528,o),
(472,592,o),
(320,592,cs),
(196,592,o),
(100,540,o),
(68,424,c),
(68,408,l),
(84,392,l),
(208,392,l),
(224,408,l),
(236,440,o),
(264,468,o),
(312,468,cs),
(368,468,o),
(400,440,o),
(400,392,cs),
(400,360,l),
(388,348,l),
(360,348,ls),
(184,348,o),
(32,320,o),
(32,160,cs),
(32,56,o),
(112,-16,o),
(216,-16,cs)
);
},
{
closed = 1;
nodes = (
(248,104,o),
(208,128,o),
(208,176,cs),
(208,224,o),
(240,252,o),
(304,252,cs),
(388,252,l),
(400,240,l),
(400,208,ls),
(400,144,o),
(360,104,o),
(296,104,cs)
);
}
);
width = 632;
},
{
anchors = (
{
name = bottom;
pos = (268,0);
},
{
name = ogonek;
pos = (516,0);
},
{
name = top;
pos = (304,576);
}
);
layerId = m004;
shapes = (
{
closed = 1;
nodes = (
(280,-16,o),
(332,4,o),
(380,56,c),
(396,56,l),
(404,24,o),
(432,0,o),
(476,0,cs),
(584,0,l),
(600,16,l),
(600,96,l),
(584,112,l),
(580,112,ls),
(568,112,o),
(560,120,o),
(560,132,cs),
(560,376,ls),
(560,528,o),
(456,592,o),
(304,592,cs),
(180,592,o),
(84,540,o),
(52,424,c),
(52,408,l),
(68,392,l),
(192,392,l),
(208,408,l),
(220,440,o),
(248,468,o),
(296,468,cs),
(352,468,o),
(384,440,o),
(384,392,cs),
(384,360,l),
(372,348,l),
(344,348,ls),
(168,348,o),
(16,320,o),
(16,160,cs),
(16,56,o),
(96,-16,o),
(200,-16,cs)
);
},
{
closed = 1;
nodes = (
(232,104,o),
(192,128,o),
(192,176,cs),
(192,224,o),
(224,252,o),
(288,252,cs),
(372,252,l),
(384,240,l),
(384,208,ls),
(384,144,o),
(344,104,o),
(280,104,cs)
);
}
);
width = 608;
},
{
associatedMasterId = m004;
backgroundImage = {
imagePath = "/Users/eli/Desktop/Screenshot 2024-06-22 at 3.03.39 PM.png";
pos = (3260,1196);
scale = (19,19);
};
layerId = "6A1834E7-ED39-473C-A843-4AB2B4117621";
name = "Jun 30, 24 at 09:30";
shapes = (
{
closed = 1;
nodes = (
(312,-16,o),
(372,36,o),
(396,68,c),
(412,68,l),
(412,24,o),
(432,0,o),
(476,0,cs),
(524,0,l),
(540,16,l),
(540,72,l),
(524,88,l),
(508,88,o),
(500,96,o),
(500,112,cs),
(500,392,ls),
(500,528,o),
(404,592,o),
(268,592,cs),
(156,592,o),
(44,532,o),
(44,432,cs),
(44,416,l),
(60,400,l),
(124,400,l),
(140,416,l),
(140,432,ls),
(140,484,o),
(204,504,o),
(268,504,cs),
(348,504,o),
(396,472,o),
(396,392,cs),
(396,356,l),
(384,344,l),
(312,344,ls),
(140,344,o),
(8,304,o),
(8,160,cs),
(8,56,o),
(96,-16,o),
(204,-16,cs)
);
},
{
closed = 1;
nodes = (
(160,68,o),
(112,104,o),
(112,160,cs),
(112,240,o),
(180,268,o),
(312,268,cs),
(384,268,l),
(396,256,l),
(396,196,ls),
(396,112,o),
(328,68,o),
(220,68,cs)
);
}
);
width = 548;
},
{
associatedMasterId = m004;
backgroundImage = {
imagePath = "/Users/eli/Desktop/Screenshot 2024-06-22 at 3.03.39 PM.png";
pos = (3268,1196);
scale = (19,19);
};
layerId = "AA097841-3EF0-4C40-A39C-7539FD3D1076";
name = "Jul 1, 24 at 18:02";
shapes = (
{
closed = 1;
nodes = (
(320,-16,o),
(380,36,o),
(404,68,c),
(420,68,l),
(424,32,o),
(456,0,o),
(492,0,cs),
(540,0,l),
(556,16,l),
(556,72,l),
(540,88,l),
(532,88,ls),
(512,88,o),
(508,100,o),
(508,120,cs),
(508,376,ls),
(508,540,o),
(416,592,o),
(280,592,cs),
(168,592,o),
(56,528,o),
(56,428,cs),
(56,416,l),
(72,400,l),
(136,400,l),
(152,416,l),
(152,424,ls),
(152,476,o),
(216,504,o),
(280,504,cs),
(360,504,o),
(408,472,o),
(408,392,cs),
(408,356,l),
(396,344,l),
(312,344,ls),
(140,344,o),
(16,304,o),
(16,160,cs),
(16,56,o),
(104,-16,o),
(212,-16,cs)
);
},
{
closed = 1;
nodes = (
(168,68,o),
(120,100,o),
(120,160,cs),
(120,256,o),
(224,268,o),
(320,268,cs),
(396,268,l),
(408,256,l),
(408,200,ls),
(408,104,o),
(324,68,o),
(228,68,cs)
);
}
);
width = 572;
},
{
anchors = (
{
name = bottom;
pos = (268,0);
},
{
name = ogonek;
pos = (516,0);
},
{
name = top;
pos = (304,576);
}
);
associatedMasterId = m004;
layerId = "D77E8C17-9D6C-4290-98A5-0E6ADFCDE569";
name = "Jul 17, 24 at 00:00";
shapes = (
{
closed = 1;
nodes = (
(280,-16,o),
(332,4,o),
(380,68,c),
(396,68,l),
(400,24,o),
(432,0,o),
(476,0,cs),
(584,0,l),
(600,16,l),
(600,48,l),
(584,64,l),
(580,64,ls),
(568,64,o),
(560,72,o),
(560,84,cs),
(560,376,ls),
(560,524,o),
(452,592,o),
(304,592,cs),
(176,592,o),
(72,540,o),
(48,424,c),
(48,408,l),
(64,392,l),
(192,392,l),
(208,408,l),
(216,448,o),
(252,468,o),
(304,468,cs),
(356,468,o),
(384,444,o),
(384,392,cs),
(384,360,l),
(372,348,l),
(324,348,ls),
(168,348,o),
(16,316,o),
(16,160,cs),
(16,56,o),
(96,-16,o),
(200,-16,cs)
);
},
{
closed = 1;
nodes = (
(228,104,o),
(192,116,o),
(192,172,cs),
(192,232,o),
(236,252,o),
(296,252,cs),
(372,252,l),
(384,240,l),
(384,200,ls),
(384,136,o),
(344,104,o),
(280,104,cs)
);
}
);
width = 608;
},
{
anchors = (
{
name = bottom;
pos = (268,0);
},
{
name = ogonek;
pos = (516,0);
},
{
name = top;
pos = (304,576);
}
);
associatedMasterId = m002;
layerId = "8F139B65-ADAB-4834-A64F-63E8A9D79A9D";
name = "Jul 17, 24 at 00:08";
shapes = (
{
closed = 1;
nodes = (
(292,-16,o),
(356,0,o),
(404,64,c),
(420,64,l),
(424,28,o),
(452,0,o),
(500,0,cs),
(548,0,l),
(564,16,l),
(564,72,l),
(548,88,l),
(544,88,ls),
(520,88,o),
(508,100,o),
(508,124,cs),
(508,384,ls),
(508,532,o),
(424,592,o),
(276,592,cs),
(164,592,o),
(56,524,o),
(56,424,cs),
(56,416,l),
(72,400,l),
(132,400,l),
(148,416,l),
(156,480,o),
(216,504,o),
(280,504,cs),
(360,504,o),
(408,472,o),
(408,392,cs),
(408,356,l),
(396,344,l),
(296,344,ls),
(140,344,o),
(16,304,o),
(16,160,cs),
(16,52,o),
(104,-16,o),
(212,-16,cs)
);
},
{
closed = 1;
nodes = (
(168,68,o),
(120,100,o),
(120,160,cs),
(120,240,o),
(188,268,o),
(268,268,cs),
(396,268,l),
(408,256,l),
(408,200,ls),
(408,104,o),
(324,68,o),
(228,68,cs)
);
}
);
width = 576;
},
{
anchors = (
{
name = bottom;
pos = (268,0);
},
{
name = ogonek;
pos = (516,0);
},
{
name = top;
pos = (304,576);
}
);
associatedMasterId = m002;
layerId = "C3E05865-851C-43AE-9DB0-52441F4B6610";
name = "Jul 17, 24 at 00:12";
shapes = (
{
closed = 1;
nodes = (
(276,68,o),
(320,112,o),
(320,168,cs),
(320,224,o),
(276,268,o),
(220,268,cs),
(164,268,o),
(120,224,o),
(120,168,cs),
(120,112,o),
(164,68,o),
(220,68,cs)
);
}
);
width = 576;
},
{
anchors = (
{
name = bottom;
pos = (268,0);
},
{
name = ogonek;
pos = (516,0);
},
{
name = top;
pos = (304,576);
}
);
associatedMasterId = m004;
layerId = "4EBD72CE-BF9F-40A7-866A-512320B9CBB2";
name = "Jul 17, 24 at 18:30";
shapes = (
{
closed = 1;
nodes = (
(280,-16,o),
(336,4,o),
(384,68,c),
(396,68,l),
(404,24,o),
(432,0,o),
(476,0,cs),
(588,0,l),
(600,12,l),
(600,52,l),
(588,64,l),
(580,64,ls),
(568,64,o),
(560,72,o),
(560,84,cs),
(560,376,ls),
(560,524,o),
(452,592,o),
(304,592,cs),
(176,592,o),
(80,544,o),
(48,424,c),
(48,404,l),
(60,392,l),
(184,392,l),
(196,404,l),
(216,448,o),
(252,468,o),
(304,468,cs),
(356,468,o),
(384,444,o),
(384,392,cs),
(384,356,l),
(376,348,l),
(312,348,ls),
(152,348,o),
(16,320,o),
(16,160,cs),
(16,56,o),
(96,-16,o),
(200,-16,cs)
);
},
{
closed = 1;
nodes = (
(232,104,o),
(192,128,o),
(192,176,cs),
(192,224,o),
(224,252,o),
(280,252,cs),
(376,252,l),
(384,244,l),
(384,200,ls),
(384,136,o),
(344,104,o),
(280,104,cs)
);
}
);
width = 608;
},
{
anchors = (
{
name = bottom;
pos = (268,0);
},
{
name = ogonek;
pos = (516,0);
},
{
name = top;
pos = (324,576);
}
);
associatedMasterId = m004;
layerId = "440BB834-3DB2-4F2E-AEEF-A203A30A297D";
name = "Jul 20, 24 at 22:13";
shapes = (
{
closed = 1;
nodes = (
(280,-16,o),
(332,4,o),
(380,68,c),
(396,68,l),
(404,24,o),
(432,0,o),
(476,0,cs),
(584,0,l),
(600,16,l),
(600,48,l),
(584,64,l),
(580,64,ls),
(568,64,o),
(560,72,o),
(560,84,cs),
(560,376,ls),
(560,524,o),
(452,592,o),
(304,592,cs),
(176,592,o),
(80,544,o),
(48,424,c),
(48,408,l),
(64,392,l),
(184,392,l),
(200,408,l),
(220,452,o),
(252,468,o),
(304,468,cs),
(356,468,o),
(384,444,o),
(384,392,cs),
(384,360,l),
(372,348,l),
(312,348,ls),
(152,348,o),
(16,320,o),
(16,160,cs),
(16,56,o),
(96,-16,o),
(200,-16,cs)
);
},
{
closed = 1;
nodes = (
(232,104,o),
(192,128,o),
(192,176,cs),
(192,224,o),
(224,252,o),
(280,252,cs),
(372,252,l),
(384,240,l),
(384,200,ls),
(384,136,o),
(344,104,o),
(280,104,cs)
);
}
);
width = 608;
},
{
anchors = (
{
name = bottom;
pos = (268,0);
},
{
name = ogonek;
pos = (516,0);
},
{
name = top;
pos = (324,576);
}
);
associatedMasterId = m004;
layerId = "B2068AE0-B264-4FD5-91BB-B679E182DDCA";
name = "Jul 20, 24 at 22:14";
shapes = (
{
closed = 1;
nodes = (
(344,324,o),
(384,360,o),
(384,400,cs),
(384,440,o),
(344,472,o),
(296,472,cs),
(248,472,o),
(204,440,o),
(204,400,cs),
(204,360,o),
(248,324,o),
(296,324,cs)
);
}
);
visible = 1;
width = 608;
}
);
unicode = 97;
},
{
color = 4;
glyphname = aogonek;
lastChange = "2024-08-02 02:42:23 +0000";
layers = (
{
layerId = m01;
shapes = (
{
closed = 1;
nodes = (
(280,-16,o),
(332,4,o),
(380,56,c),
(396,56,l),
(404,24,o),
(432,0,o),
(476,0,c),
(476,-12,l),
(432,-24,o),
(392,-60,o),
(392,-100,cs),
(392,-156,o),
(440,-196,o),
(516,-196,cs),
(552,-196,o),
(580,-188,o),
(596,-180,c),
(612,-164,l),
(612,-112,l),
(596,-96,l),
(580,-96,ls),
(552,-96,o),
(540,-88,o),
(540,-64,cs),
(540,-48,o),
(552,-32,o),
(584,0,cs),
(600,16,l),
(600,48,l),
(584,64,l),
(580,64,ls),
(568,64,o),
(560,72,o),
(560,84,cs),
(560,376,ls),
(560,528,o),
(456,592,o),
(304,592,cs),
(180,592,o),
(84,540,o),
(52,424,c),
(52,408,l),
(68,392,l),
(192,392,l),
(208,408,l),
(220,440,o),
(248,468,o),
(296,468,cs),
(352,468,o),
(384,440,o),
(384,392,cs),
(384,360,l),
(372,348,l),
(344,348,ls),
(168,348,o),
(16,320,o),
(16,160,cs),
(16,56,o),
(96,-16,o),
(200,-16,cs)
);
},
{
closed = 1;
nodes = (
(232,104,o),
(192,128,o),
(192,176,cs),
(192,224,o),
(224,252,o),
(288,252,cs),
(372,252,l),
(384,240,l),
(384,208,ls),
(384,144,o),
(344,104,o),
(280,104,cs)
);
}
);
width = 600;
},
{
layerId = m002;
shapes = (
{
closed = 1;
nodes = (
(280,-16,o),
(332,4,o),
(380,56,c),
(396,56,l),
(404,24,o),
(432,0,o),
(476,0,c),
(476,-12,l),
(432,-24,o),
(392,-60,o),
(392,-100,cs),
(392,-156,o),
(440,-196,o),
(516,-196,cs),
(552,-196,o),
(580,-188,o),
(596,-180,c),
(612,-164,l),
(612,-112,l),
(596,-96,l),
(580,-96,ls),
(552,-96,o),
(540,-88,o),
(540,-64,cs),
(540,-48,o),
(552,-32,o),
(584,0,cs),
(600,16,l),
(600,48,l),
(584,64,l),
(580,64,ls),
(568,64,o),
(560,72,o),
(560,84,cs),
(560,376,ls),
(560,528,o),
(456,592,o),
(304,592,cs),
(180,592,o),
(84,540,o),
(52,424,c),
(52,408,l),
(68,392,l),
(192,392,l),
(208,408,l),
(220,440,o),
(248,468,o),
(296,468,cs),
(352,468,o),
(384,440,o),
(384,392,cs),
(384,360,l),
(372,348,l),
(344,348,ls),
(168,348,o),
(16,320,o),
(16,160,cs),
(16,56,o),
(96,-16,o),
(200,-16,cs)
);
},
{
closed = 1;
nodes = (
(232,104,o),
(192,128,o),
(192,176,cs),
(192,224,o),
(224,252,o),
(288,252,cs),
(372,252,l),
(384,240,l),
(384,208,ls),
(384,144,o),
(344,104,o),
(280,104,cs)
);
}
);
width = 600;
},
{
layerId = m003;
shapes = (
{
closed = 1;
nodes = (
(280,-16,o),
(332,4,o),
(380,56,c),
(396,56,l),
(404,24,o),
(432,0,o),
(476,0,c),
(476,-12,l),
(432,-24,o),
(392,-60,o),
(392,-100,cs),
(392,-156,o),
(440,-196,o),
(516,-196,cs),
(552,-196,o),
(580,-188,o),
(596,-180,c),
(612,-164,l),
(612,-112,l),
(596,-96,l),
(580,-96,ls),
(552,-96,o),
(540,-88,o),
(540,-64,cs),
(540,-48,o),
(552,-32,o),
(584,0,cs),
(600,16,l),
(600,48,l),
(584,64,l),
(580,64,ls),
(568,64,o),
(560,72,o),
(560,84,cs),
(560,376,ls),
(560,528,o),
(456,592,o),
(304,592,cs),
(180,592,o),
(84,540,o),
(52,424,c),
(52,408,l),
(68,392,l),
(192,392,l),
(208,408,l),
(220,440,o),
(248,468,o),
(296,468,cs),
(352,468,o),
(384,440,o),
(384,392,cs),
(384,360,l),
(372,348,l),
(344,348,ls),
(168,348,o),
(16,320,o),
(16,160,cs),
(16,56,o),
(96,-16,o),
(200,-16,cs)
);
},
{
closed = 1;
nodes = (
(232,104,o),
(192,128,o),
(192,176,cs),
(192,224,o),
(224,252,o),
(288,252,cs),
(372,252,l),
(384,240,l),
(384,208,ls),
(384,144,o),
(344,104,o),
(280,104,cs)
);
}
);
width = 600;
},
{
layerId = m004;
shapes = (
{
closed = 1;
nodes = (
(280,-16,o),
(332,4,o),
(380,56,c),
(396,56,l),
(404,24,o),
(432,0,o),
(476,0,c),
(476,-12,l),
(432,-24,o),
(392,-60,o),
(392,-100,cs),
(392,-156,o),
(440,-196,o),
(516,-196,cs),
(552,-196,o),
(580,-188,o),
(596,-180,c),
(612,-164,l),
(612,-112,l),
(596,-96,l),
(580,-96,ls),
(552,-96,o),
(540,-88,o),
(540,-64,cs),
(540,-48,o),
(552,-32,o),
(584,0,cs),
(600,16,l),
(600,48,l),
(584,64,l),
(580,64,ls),
(568,64,o),
(560,72,o),
(560,84,cs),
(560,376,ls),
(560,528,o),
(456,592,o),
(304,592,cs),
(180,592,o),
(84,540,o),
(52,424,c),
(52,408,l),
(68,392,l),
(192,392,l),
(208,408,l),
(220,440,o),
(248,468,o),
(296,468,cs),
(352,468,o),
(384,440,o),
(384,392,cs),
(384,360,l),
(372,348,l),
(344,348,ls),
(168,348,o),
(16,320,o),
(16,160,cs),
(16,56,o),
(96,-16,o),
(200,-16,cs)
);
},
{
closed = 1;
nodes = (
(232,104,o),
(192,128,o),
(192,176,cs),
(192,224,o),
(224,252,o),
(288,252,cs),
(372,252,l),
(384,240,l),
(384,208,ls),
(384,144,o),
(344,104,o),
(280,104,cs)
);
}
);
width = 600;
}
);
unicode = 261;
},
{
color = 4;
glyphname = ae;
lastChange = "2024-08-02 03:43:03 +0000";
layers = (
{
layerId = m01;
shapes = (
{
closed = 1;
nodes = (
(556,360,l),
(564,416,o),
(608,460,o),
(668,460,cs),
(736,460,o),
(768,416,o),
(776,360,c),
(764,348,l),
(568,348,l)
);
},
{
closed = 1;
nodes = (
(828,-16,o),
(920,72,o),
(944,144,c),
(944,160,l),
(928,176,l),
(792,176,l),
(776,160,l),
(752,128,o),
(724,120,o),
(680,120,cs),
(604,120,o),
(564,156,o),
(556,228,c),
(568,240,l),
(944,240,l),
(960,256,l),
(960,276,ls),
(960,448,o),
(840,592,o),
(668,592,cs),
(596,592,o),
(536,568,o),
(496,524,c),
(484,524,l),
(448,568,o),
(392,592,o),
(304,592,cs),
(180,592,o),
(84,540,o),
(52,424,c),
(52,408,l),
(68,392,l),
(192,392,l),
(208,408,l),
(220,440,o),
(248,468,o),
(296,468,cs),
(352,468,o),
(384,440,o),
(384,392,cs),
(384,360,l),
(372,348,l),
(344,348,ls),
(168,348,o),
(16,320,o),
(16,160,cs),
(16,56,o),
(84,-16,o),
(240,-16,cs),
(320,-16,o),
(392,16,o),
(456,72,c),
(468,72,l),
(512,16,o),
(584,-16,o),
(676,-16,cs)
);
},
{
closed = 1;
nodes = (
(232,104,o),
(192,128,o),
(192,176,cs),
(192,224,o),
(224,252,o),
(288,252,cs),
(372,252,l),
(384,240,l),
(384,208,ls),
(384,144,o),
(344,104,o),
(280,104,cs)
);
}
);
width = 1164;
},
{
layerId = m002;
shapes = (
{
closed = 1;
nodes = (
(556,360,l),
(564,416,o),
(608,460,o),
(668,460,cs),
(736,460,o),
(768,416,o),
(776,360,c),
(764,348,l),
(568,348,l)
);
},
{
closed = 1;
nodes = (
(828,-16,o),
(920,72,o),
(944,144,c),
(944,160,l),
(928,176,l),
(792,176,l),
(776,160,l),
(752,128,o),
(724,120,o),
(680,120,cs),
(604,120,o),
(564,156,o),
(556,228,c),
(568,240,l),
(944,240,l),
(960,256,l),
(960,276,ls),
(960,448,o),
(840,592,o),
(668,592,cs),
(596,592,o),
(536,568,o),
(496,524,c),
(484,524,l),
(448,568,o),
(392,592,o),
(304,592,cs),
(180,592,o),
(84,540,o),
(52,424,c),
(52,408,l),
(68,392,l),
(192,392,l),
(208,408,l),
(220,440,o),
(248,468,o),
(296,468,cs),
(352,468,o),
(384,440,o),
(384,392,cs),
(384,360,l),
(372,348,l),
(344,348,ls),
(168,348,o),
(16,320,o),
(16,160,cs),
(16,56,o),
(84,-16,o),
(240,-16,cs),
(320,-16,o),
(392,16,o),
(456,72,c),
(468,72,l),
(512,16,o),
(584,-16,o),
(676,-16,cs)
);
},
{
closed = 1;
nodes = (
(232,104,o),
(192,128,o),
(192,176,cs),
(192,224,o),
(224,252,o),
(288,252,cs),
(372,252,l),
(384,240,l),
(384,208,ls),
(384,144,o),
(344,104,o),
(280,104,cs)
);
}
);
width = 600;
},
{
layerId = m003;
shapes = (
{
closed = 1;
nodes = (
(556,360,l),
(564,416,o),
(608,460,o),
(668,460,cs),
(736,460,o),
(768,416,o),
(776,360,c),
(764,348,l),
(568,348,l)
);
},
{
closed = 1;
nodes = (
(828,-16,o),
(920,72,o),
(944,144,c),
(944,160,l),
(928,176,l),
(792,176,l),
(776,160,l),
(752,128,o),
(724,120,o),
(680,120,cs),
(604,120,o),
(564,156,o),
(556,228,c),
(568,240,l),
(944,240,l),
(960,256,l),
(960,276,ls),
(960,448,o),
(840,592,o),
(668,592,cs),
(596,592,o),
(536,568,o),
(496,524,c),
(484,524,l),
(448,568,o),
(392,592,o),
(304,592,cs),
(180,592,o),
(84,540,o),
(52,424,c),
(52,408,l),
(68,392,l),
(192,392,l),
(208,408,l),
(220,440,o),
(248,468,o),
(296,468,cs),
(352,468,o),
(384,440,o),
(384,392,cs),
(384,360,l),
(372,348,l),
(344,348,ls),
(168,348,o),
(16,320,o),
(16,160,cs),
(16,56,o),
(84,-16,o),
(240,-16,cs),
(320,-16,o),
(392,16,o),
(456,72,c),
(468,72,l),
(512,16,o),
(584,-16,o),
(676,-16,cs)
);
},
{
closed = 1;
nodes = (
(232,104,o),
(192,128,o),
(192,176,cs),
(192,224,o),
(224,252,o),
(288,252,cs),
(372,252,l),
(384,240,l),
(384,208,ls),
(384,144,o),
(344,104,o),
(280,104,cs)
);
}
);
width = 600;
},
{
layerId = m004;
shapes = (
{
closed = 1;
nodes = (
(556,360,l),
(564,416,o),
(608,460,o),
(668,460,cs),
(736,460,o),
(768,416,o),
(776,360,c),
(764,348,l),
(568,348,l)
);
},
{
closed = 1;
nodes = (
(828,-16,o),
(920,72,o),
(944,144,c),
(944,160,l),
(928,176,l),
(792,176,l),
(776,160,l),
(752,128,o),
(724,120,o),
(680,120,cs),
(604,120,o),
(564,156,o),
(556,228,c),
(568,240,l),
(944,240,l),
(960,256,l),
(960,276,ls),
(960,448,o),
(840,592,o),
(668,592,cs),
(596,592,o),
(536,568,o),
(496,524,c),
(484,524,l),
(448,568,o),
(392,592,o),
(304,592,cs),
(180,592,o),
(84,540,o),
(52,424,c),
(52,408,l),
(68,392,l),
(192,392,l),
(208,408,l),
(220,440,o),
(248,468,o),
(296,468,cs),
(352,468,o),
(384,440,o),
(384,392,cs),
(384,360,l),
(372,348,l),
(344,348,ls),
(168,348,o),
(16,320,o),
(16,160,cs),
(16,56,o),
(84,-16,o),
(240,-16,cs),
(320,-16,o),
(392,16,o),
(456,72,c),
(468,72,l),
(512,16,o),
(584,-16,o),
(676,-16,cs)
);
},
{
closed = 1;
nodes = (
(232,104,o),
(192,128,o),
(192,176,cs),
(192,224,o),
(224,252,o),
(288,252,cs),
(372,252,l),
(384,240,l),
(384,208,ls),
(384,144,o),
(344,104,o),
(280,104,cs)
);
}
);
width = 976;
}
);
unicode = 230;
},
{
color = 5;
glyphname = b;
kernLeft = n;
kernRight = o;
lastChange = "2024-08-06 02:07:42 +0000";
layers = (
{
layerId = m01;
shapes = (
{
closed = 1;
nodes = (
(168,0,l),
(184,16,l),
(192,64,l),
(208,64,l),
(240,20,o),
(308,-16,o),
(384,-16,cs),
(544,-16,o),
(620,124,o),
(620,288,cs),
(620,452,o),
(544,592,o),
(384,592,cs),
(296,592,o),
(240,556,o),
(208,512,c),
(192,520,l),
(192,784,l),
(176,800,l),
(104,800,l),
(88,784,l),
(88,16,l),
(104,0,l)
);
},
{
closed = 1;
nodes = (
(452,496,o),
(512,424,o),
(512,288,cs),
(512,152,o),
(452,80,o),
(352,80,cs),
(264,80,o),
(192,152,o),
(192,288,cs),
(192,424,o),
(264,496,o),
(352,496,cs)
);
}
);
width = 684;
},
{
layerId = m002;
shapes = (
{
closed = 1;
nodes = (
(112,0,l),
(128,16,l),
(136,64,l),
(152,64,l),
(184,20,o),
(252,-16,o),
(328,-16,cs),
(488,-16,o),
(564,124,o),
(564,288,cs),
(564,452,o),
(488,592,o),
(328,592,cs),
(240,592,o),
(184,556,o),
(152,512,c),
(136,520,l),
(136,784,l),
(120,800,l),
(48,800,l),
(32,784,l),
(32,16,l),
(48,0,l)
);
},
{
closed = 1;
nodes = (
(396,496,o),
(456,424,o),
(456,288,cs),
(456,152,o),
(396,80,o),
(296,80,cs),
(208,80,o),
(136,152,o),
(136,288,cs),
(136,424,o),
(208,496,o),
(296,496,cs)
);
}
);
width = 580;
},
{
layerId = m003;
shapes = (
{
closed = 1;
nodes = (
(168,0,l),
(184,16,l),
(192,64,l),
(208,64,l),
(240,20,o),
(308,-16,o),
(384,-16,cs),
(544,-16,o),
(620,124,o),
(620,288,cs),
(620,452,o),
(544,592,o),
(384,592,cs),
(296,592,o),
(240,556,o),
(208,512,c),
(192,520,l),
(192,784,l),
(176,800,l),
(104,800,l),
(88,784,l),
(88,16,l),
(104,0,l)
);
},
{
closed = 1;
nodes = (
(452,496,o),
(512,424,o),
(512,288,cs),
(512,152,o),
(452,80,o),
(352,80,cs),
(264,80,o),
(192,152,o),
(192,288,cs),
(192,424,o),
(264,496,o),
(352,496,cs)
);
}
);
width = 684;
},
{
layerId = m004;
shapes = (
{
closed = 1;
nodes = (
(184,0,l),
(200,16,l),
(208,64,l),
(224,64,l),
(260,16,o),
(324,-16,o),
(392,-16,cs),
(552,-16,o),
(628,124,o),
(628,288,cs),
(628,452,o),
(544,592,o),
(384,592,cs),
(312,592,o),
(276,568,o),
(232,528,c),
(216,528,l),
(216,784,l),
(200,800,l),
(44,800,l),
(28,784,l),
(28,16,l),
(44,0,l)
);
},
{
closed = 1;
nodes = (
(392,452,o),
(440,408,o),
(440,288,cs),
(440,184,o),
(400,132,o),
(332,132,cs),
(244,132,o),
(212,184,o),
(212,288,cs),
(212,408,o),
(260,452,o),
(328,452,cs)
);
}
);
width = 644;
}
);
unicode = 98;
},
{
color = 5;
glyphname = c;
kernLeft = o;
kernRight = c;
lastChange = "2024-08-06 02:10:53 +0000";
layers = (
{
anchors = (
{
name = bottom;
pos = (332,0);
},
{
name = top;
pos = (336,576);
}
);
layerId = m01;
shapes = (
{
closed = 1;
nodes = (
(480,-20,o),
(560,72,o),
(576,176,c),
(576,192,l),
(560,208,l),
(488,208,l),
(472,192,l),
(456,128,o),
(416,76,o),
(332,76,cs),
(220,76,o),
(172,156,o),
(172,288,cs),
(172,420,o),
(220,500,o),
(332,500,cs),
(408,500,o),
(456,464,o),
(472,400,c),
(488,384,l),
(560,384,l),
(576,400,l),
(576,416,l),
(560,520,o),
(480,592,o),
(332,592,cs),
(156,592,o),
(64,464,o),
(64,288,cs),
(64,104,o),
(160,-12,o),
(332,-16,cs)
);
}
);
width = 640;
},
{
associatedMasterId = m01;
layerId = "76AB318C-2308-45C6-8374-9EA02209C007";
name = "Mar 25, 24 at 02:20";
shapes = (
{
closed = 1;
nodes = (
(476,-16,o),
(568,112,o),
(568,288,cs),
(568,464,o),
(476,592,o),
(300,592,cs),
(124,592,o),
(32,464,o),
(32,288,cs),
(32,112,o),
(124,-16,o),
(300,-16,cs)
);
},
{
closed = 1;
nodes = (
(180,76,o),
(136,168,o),
(136,288,cs),
(136,408,o),
(180,500,o),
(300,500,cs),
(420,500,o),
(464,408,o),
(464,288,cs),
(464,168,o),
(420,76,o),
(300,76,cs)
);
}
);
width = 600;
},
{
anchors = (
{
name = bottom;
pos = (284,0);
},
{
name = top;
pos = (288,576);
}
);
layerId = m002;
shapes = (
{
closed = 1;
nodes = (
(432,-20,o),
(512,72,o),
(528,176,c),
(528,192,l),
(512,208,l),
(440,208,l),
(424,192,l),
(408,128,o),
(368,76,o),
(284,76,cs),
(172,76,o),
(124,156,o),
(124,288,cs),
(124,420,o),
(172,500,o),
(284,500,cs),
(360,500,o),
(408,464,o),
(424,400,c),
(440,384,l),
(512,384,l),
(528,400,l),
(528,416,l),
(512,520,o),
(432,592,o),
(284,592,cs),
(108,592,o),
(16,464,o),
(16,288,cs),
(16,104,o),
(112,-12,o),
(284,-16,cs)
);
}
);
width = 544;
},
{
associatedMasterId = m002;
layerId = "035D4917-8885-45FB-AC00-84AFB025B83F";
name = "Mar 25, 24 at 02:20";
shapes = (
{
closed = 1;
nodes = (
(476,-16,o),
(568,112,o),
(568,288,cs),
(568,464,o),
(476,592,o),
(300,592,cs),
(124,592,o),
(32,464,o),
(32,288,cs),
(32,112,o),
(124,-16,o),
(300,-16,cs)
);
},
{
closed = 1;
nodes = (
(180,76,o),
(136,168,o),
(136,288,cs),
(136,408,o),
(180,500,o),
(300,500,cs),
(420,500,o),
(464,408,o),
(464,288,cs),
(464,168,o),
(420,76,o),
(300,76,cs)
);
}
);
width = 600;
},
{
anchors = (
{
name = bottom;
pos = (332,0);
},
{
name = top;
pos = (336,576);
}
);
layerId = m003;
shapes = (
{
closed = 1;
nodes = (
(508,-16,o),
(596,84,o),
(612,188,c),
(612,204,l),
(596,220,l),
(452,220,l),
(436,204,l),
(428,164,o),
(392,120,o),
(336,120,cs),
(256,120,o),
(220,204,o),
(220,288,cs),
(220,372,o),
(256,456,o),
(336,456,cs),
(388,456,o),
(416,424,o),
(428,388,c),
(444,372,l),
(580,372,l),
(596,388,l),
(596,404,l),
(584,504,o),
(488,592,o),
(336,592,cs),
(156,592,o),
(32,472,o),
(32,288,cs),
(32,96,o),
(156,-16,o),
(336,-16,cs)
);
}
);
width = 644;
},
{
associatedMasterId = m003;
layerId = "9C952D64-0E4E-42E6-A7F2-0118A586A3AD";
name = "Mar 25, 24 at 02:20";
shapes = (
{
closed = 1;
nodes = (
(476,-16,o),
(568,112,o),
(568,288,cs),
(568,464,o),
(476,592,o),
(300,592,cs),
(124,592,o),
(32,464,o),
(32,288,cs),
(32,112,o),
(124,-16,o),
(300,-16,cs)
);
},
{
closed = 1;
nodes = (
(180,76,o),
(136,168,o),
(136,288,cs),
(136,408,o),
(180,500,o),
(300,500,cs),
(420,500,o),
(464,408,o),
(464,288,cs),
(464,168,o),
(420,76,o),
(300,76,cs)
);
}
);
width = 600;
},
{
anchors = (
{
name = bottom;
pos = (320,0);
},
{
name = top;
pos = (324,576);
}
);
layerId = m004;
shapes = (
{
closed = 1;
nodes = (
(492,-16,o),
(580,84,o),
(596,188,c),
(596,204,l),
(580,220,l),
(436,220,l),
(420,204,l),
(412,164,o),
(376,120,o),
(320,120,cs),
(240,120,o),
(204,204,o),
(204,288,cs),
(204,372,o),
(240,456,o),
(320,456,cs),
(372,456,o),
(400,424,o),
(412,388,c),
(428,372,l),
(564,372,l),
(580,388,l),
(580,404,l),
(568,504,o),
(472,592,o),
(320,592,cs),
(140,592,o),
(16,472,o),
(16,288,cs),
(16,96,o),
(140,-16,o),
(320,-16,cs)
);
}
);
width = 608;
},
{
associatedMasterId = m004;
layerId = "2145A760-FA5A-45A0-92BD-09B3B3E3707F";
name = "Mar 25, 24 at 02:20";
shapes = (
{
closed = 1;
nodes = (
(476,-16,o),
(568,112,o),
(568,288,cs),
(568,464,o),
(476,592,o),
(300,592,cs),
(124,592,o),
(32,464,o),
(32,288,cs),
(32,112,o),
(124,-16,o),
(300,-16,cs)
);
},
{
closed = 1;
nodes = (
(180,76,o),
(136,168,o),
(136,288,cs),
(136,408,o),
(180,500,o),
(300,500,cs),
(420,500,o),
(464,408,o),
(464,288,cs),
(464,168,o),
(420,76,o),
(300,76,cs)
);
}
);
width = 600;
},
{
anchors = (
{
name = bottom;
pos = (316,0);
},
{
name = top;
pos = (320,576);
}
);
associatedMasterId = m004;
backgroundImage = {
imagePath = "/Users/eli/Desktop/Screenshot 2024-07-19 at 8.38.02 PM.png";
locked = 1;
pos = (-1640,-208);
scale = (5.93,5.93);
};
layerId = "C56C05E9-4F8F-488A-9149-9CC7EA3497D2";
name = "Jul 19, 24 at 21:40";
shapes = (
{
closed = 1;
nodes = (
(384,120,o),
(436,196,o),
(436,288,cs),
(436,380,o),
(384,456,o),
(320,456,cs),
(252,456,o),
(200,380,o),
(200,288,cs),
(200,196,o),
(252,120,o),
(320,120,cs)
);
}
);
visible = 1;
width = 608;
}
);
unicode = 99;
},
{
color = 5;
glyphname = ccedilla;
lastChange = "2024-08-02 04:23:38 +0000";
layers = (
{
layerId = m01;
shapes = (
{
closed = 1;
nodes = (
(16,112,o),
(120,4,o),
(272,-12,c),
(272,-20,l),
(220,-76,l),
(236,-104,l),
(248,-104,l),
(256,-100,o),
(268,-96,o),
(280,-96,cs),
(300,-96,o),
(316,-108,o),
(316,-124,cs),
(316,-148,o),
(300,-160,o),
(260,-160,cs),
(232,-160,o),
(220,-156,o),
(192,-144,c),
(180,-144,l),
(164,-172,l),
(164,-184,l),
(196,-200,o),
(232,-212,o),
(284,-212,cs),
(372,-212,o),
(424,-180,o),
(424,-124,cs),
(424,-72,o),
(388,-48,o),
(352,-48,cs),
(340,-48,o),
(324,-48,o),
(312,-52,c),
(308,-44,l),
(348,-16,l),
(500,-4,o),
(580,88,o),
(596,188,c),
(596,204,l),
(580,220,l),
(436,220,l),
(420,204,l),
(412,164,o),
(376,120,o),
(320,120,cs),
(240,120,o),
(204,204,o),
(204,288,cs),
(204,372,o),
(240,456,o),
(320,456,cs),
(372,456,o),
(400,424,o),
(412,388,c),
(428,372,l),
(564,372,l),
(580,388,l),
(580,404,l),
(568,504,o),
(472,592,o),
(320,592,cs),
(140,592,o),
(16,472,o),
(16,288,cs)
);
}
);
width = 612;
},
{
layerId = m002;
shapes = (
{
closed = 1;
nodes = (
(8,112,o),
(112,4,o),
(264,-12,c),
(264,-20,l),
(212,-76,l),
(228,-104,l),
(240,-104,l),
(248,-100,o),
(260,-96,o),
(272,-96,cs),
(292,-96,o),
(308,-108,o),
(308,-124,cs),
(308,-148,o),
(292,-160,o),
(252,-160,cs),
(224,-160,o),
(212,-156,o),
(184,-144,c),
(172,-144,l),
(156,-172,l),
(156,-184,l),
(188,-200,o),
(224,-212,o),
(276,-212,cs),
(364,-212,o),
(416,-180,o),
(416,-124,cs),
(416,-72,o),
(380,-48,o),
(344,-48,cs),
(332,-48,o),
(316,-48,o),
(304,-52,c),
(300,-44,l),
(340,-16,l),
(492,-4,o),
(572,88,o),
(588,188,c),
(588,204,l),
(572,220,l),
(428,220,l),
(412,204,l),
(404,164,o),
(368,120,o),
(312,120,cs),
(232,120,o),
(196,204,o),
(196,288,cs),
(196,372,o),
(232,456,o),
(312,456,cs),
(364,456,o),
(392,424,o),
(404,388,c),
(420,372,l),
(556,372,l),
(572,388,l),
(572,404,l),
(560,504,o),
(464,592,o),
(312,592,cs),
(132,592,o),
(8,472,o),
(8,288,cs)
);
}
);
width = 600;
},
{
layerId = m003;
shapes = (
{
closed = 1;
nodes = (
(8,112,o),
(112,4,o),
(264,-12,c),
(264,-20,l),
(212,-76,l),
(228,-104,l),
(240,-104,l),
(248,-100,o),
(260,-96,o),
(272,-96,cs),
(292,-96,o),
(308,-108,o),
(308,-124,cs),
(308,-148,o),
(292,-160,o),
(252,-160,cs),
(224,-160,o),
(212,-156,o),
(184,-144,c),
(172,-144,l),
(156,-172,l),
(156,-184,l),
(188,-200,o),
(224,-212,o),
(276,-212,cs),
(364,-212,o),
(416,-180,o),
(416,-124,cs),
(416,-72,o),
(380,-48,o),
(344,-48,cs),
(332,-48,o),
(316,-48,o),
(304,-52,c),
(300,-44,l),
(340,-16,l),
(492,-4,o),
(572,88,o),
(588,188,c),
(588,204,l),
(572,220,l),
(428,220,l),
(412,204,l),
(404,164,o),
(368,120,o),
(312,120,cs),
(232,120,o),
(196,204,o),
(196,288,cs),
(196,372,o),
(232,456,o),
(312,456,cs),
(364,456,o),
(392,424,o),
(404,388,c),
(420,372,l),
(556,372,l),
(572,388,l),
(572,404,l),
(560,504,o),
(464,592,o),
(312,592,cs),
(132,592,o),
(8,472,o),
(8,288,cs)
);
}
);
width = 600;
},
{
layerId = m004;
shapes = (
{
closed = 1;
nodes = (
(8,112,o),
(112,4,o),
(264,-12,c),
(264,-20,l),
(212,-76,l),
(228,-104,l),
(240,-104,l),
(248,-100,o),
(260,-96,o),
(272,-96,cs),
(292,-96,o),
(308,-108,o),
(308,-124,cs),
(308,-148,o),
(292,-160,o),
(252,-160,cs),
(224,-160,o),
(212,-156,o),
(184,-144,c),
(172,-144,l),
(156,-172,l),
(156,-184,l),
(188,-200,o),
(224,-212,o),
(276,-212,cs),
(364,-212,o),
(416,-180,o),
(416,-124,cs),
(416,-72,o),
(380,-48,o),
(344,-48,cs),
(332,-48,o),
(316,-48,o),
(304,-52,c),
(300,-44,l),
(340,-16,l),
(492,-4,o),
(572,88,o),
(588,188,c),
(588,204,l),
(572,220,l),
(428,220,l),
(412,204,l),
(404,164,o),
(368,120,o),
(312,120,cs),
(232,120,o),
(196,204,o),
(196,288,cs),
(196,372,o),
(232,456,o),
(312,456,cs),
(364,456,o),
(392,424,o),
(404,388,c),
(420,372,l),
(556,372,l),
(572,388,l),
(572,404,l),
(560,504,o),
(464,592,o),
(312,592,cs),
(132,592,o),
(8,472,o),
(8,288,cs)
);
}
);
width = 600;
}
);
unicode = 231;
},
{
color = 5;
glyphname = d;
kernLeft = o;
kernRight = l;
lastChange = "2024-08-05 01:33:09 +0000";
layers = (
{
layerId = m01;
shapes = (
{
closed = 1;
nodes = (
(596,16,l),
(596,784,l),
(580,800,l),
(508,800,l),
(492,784,l),
(492,520,l),
(476,512,l),
(444,556,o),
(388,592,o),
(300,592,cs),
(140,592,o),
(64,452,o),
(64,288,cs),
(64,124,o),
(140,-16,o),
(300,-16,cs),
(376,-16,o),
(444,20,o),
(476,64,c),
(492,64,l),
(500,16,l),
(516,0,l),
(580,0,l)
);
},
{
closed = 1;
nodes = (
(420,496,o),
(492,424,o),
(492,288,cs),
(492,152,o),
(420,80,o),
(332,80,cs),
(232,80,o),
(172,152,o),
(172,288,cs),
(172,424,o),
(232,496,o),
(332,496,cs)
);
}
);
width = 684;
},
{
layerId = m002;
shapes = (
{
closed = 1;
nodes = (
(548,16,l),
(548,784,l),
(532,800,l),
(460,800,l),
(444,784,l),
(444,520,l),
(428,512,l),
(396,556,o),
(340,592,o),
(252,592,cs),
(92,592,o),
(16,452,o),
(16,288,cs),
(16,124,o),
(92,-16,o),
(252,-16,cs),
(328,-16,o),
(396,20,o),
(428,64,c),
(444,64,l),
(452,16,l),
(468,0,l),
(532,0,l)
);
},
{
closed = 1;
nodes = (
(372,496,o),
(444,424,o),
(444,288,cs),
(444,152,o),
(372,80,o),
(284,80,cs),
(184,80,o),
(124,152,o),
(124,288,cs),
(124,424,o),
(184,496,o),
(284,496,cs)
);
}
);
width = 580;
},
{
layerId = m003;
shapes = (
{
closed = 1;
nodes = (
(628,16,l),
(628,784,l),
(612,800,l),
(460,800,l),
(444,784,l),
(444,524,l),
(428,524,l),
(396,564,o),
(352,592,o),
(284,592,cs),
(116,592,o),
(32,456,o),
(32,288,cs),
(32,120,o),
(112,-16,o),
(280,-16,cs),
(356,-16,o),
(400,8,o),
(440,64,c),
(456,64,l),
(464,16,l),
(480,0,l),
(612,0,l)
);
},
{
closed = 1;
nodes = (
(420,452,o),
(448,376,o),
(448,288,cs),
(448,200,o),
(420,128,o),
(332,128,cs),
(244,128,o),
(216,200,o),
(216,288,cs),
(216,376,o),
(244,452,o),
(332,452,cs)
);
}
);
width = 692;
},
{
layerId = m004;
shapes = (
{
closed = 1;
nodes = (
(612,16,l),
(612,784,l),
(596,800,l),
(444,800,l),
(428,784,l),
(428,524,l),
(412,524,l),
(380,564,o),
(336,592,o),
(268,592,cs),
(100,592,o),
(16,456,o),
(16,288,cs),
(16,120,o),
(96,-16,o),
(264,-16,cs),
(340,-16,o),
(384,8,o),
(424,64,c),
(440,64,l),
(448,16,l),
(464,0,l),
(596,0,l)
);
},
{
closed = 1;
nodes = (
(404,452,o),
(432,376,o),
(432,288,cs),
(432,200,o),
(404,128,o),
(316,128,cs),
(228,128,o),
(200,200,o),
(200,288,cs),
(200,376,o),
(228,452,o),
(316,452,cs)
);
}
);
width = 644;
}
);
unicode = 100;
},
{
color = 5;
glyphname = dcaron;
lastChange = "2024-08-02 04:27:45 +0000";
layers = (
{
layerId = m01;
shapes = (
{
ref = d;
},
{
closed = 1;
nodes = (
(728,552,o),
(780,596,o),
(780,680,cs),
(780,784,l),
(764,800,l),
(656,800,l),
(640,784,l),
(640,696,l),
(656,680,l),
(692,680,l),
(704,668,l),
(704,640,o),
(692,620,o),
(656,608,c),
(640,592,l),
(640,560,l),
(656,544,l)
);
}
);
width = 600;
},
{
layerId = m002;
shapes = (
{
ref = d;
},
{
closed = 1;
nodes = (
(728,552,o),
(780,596,o),
(780,680,cs),
(780,784,l),
(764,800,l),
(656,800,l),
(640,784,l),
(640,696,l),
(656,680,l),
(692,680,l),
(704,668,l),
(704,640,o),
(692,620,o),
(656,608,c),
(640,592,l),
(640,560,l),
(656,544,l)
);
}
);
width = 600;
},
{
layerId = m003;
shapes = (
{
ref = d;
},
{
closed = 1;
nodes = (
(728,552,o),
(780,596,o),
(780,680,cs),
(780,784,l),
(764,800,l),
(656,800,l),
(640,784,l),
(640,696,l),
(656,680,l),
(692,680,l),
(704,668,l),
(704,640,o),
(692,620,o),
(656,608,c),
(640,592,l),
(640,560,l),
(656,544,l)
);
}
);
width = 600;
},
{
layerId = m004;
shapes = (
{
ref = d;
},
{
closed = 1;
nodes = (
(728,552,o),
(780,596,o),
(780,680,cs),
(780,784,l),
(764,800,l),
(656,800,l),
(640,784,l),
(640,696,l),
(656,680,l),
(692,680,l),
(704,668,l),
(704,640,o),
(692,620,o),
(656,608,c),
(640,592,l),
(640,560,l),
(656,544,l)
);
}
);
width = 748;
}
);
unicode = 271;
},
{
color = 5;
glyphname = dcroat;
lastChange = "2024-08-02 04:30:30 +0000";
layers = (
{
layerId = m01;
shapes = (
{
closed = 1;
nodes = (
(528,16,l),
(528,616,l),
(540,628,l),
(564,628,l),
(580,644,l),
(580,708,l),
(564,724,l),
(540,724,l),
(528,736,l),
(528,784,l),
(512,800,l),
(360,800,l),
(344,784,l),
(344,736,l),
(332,724,l),
(224,724,l),
(208,708,l),
(208,644,l),
(224,628,l),
(332,628,l),
(344,616,l),
(344,524,l),
(328,524,l),
(296,564,o),
(252,592,o),
(184,592,cs),
(16,592,o),
(-68,456,o),
(-68,288,cs),
(-68,120,o),
(12,-16,o),
(180,-16,cs),
(256,-16,o),
(300,8,o),
(340,64,c),
(356,64,l),
(364,16,l),
(380,0,l),
(512,0,l)
);
},
{
closed = 1;
nodes = (
(320,452,o),
(348,376,o),
(348,288,cs),
(348,200,o),
(320,128,o),
(232,128,cs),
(144,128,o),
(116,200,o),
(116,288,cs),
(116,376,o),
(144,452,o),
(232,452,cs)
);
}
);
width = 600;
},
{
layerId = m002;
shapes = (
{
closed = 1;
nodes = (
(528,16,l),
(528,616,l),
(540,628,l),
(564,628,l),
(580,644,l),
(580,708,l),
(564,724,l),
(540,724,l),
(528,736,l),
(528,784,l),
(512,800,l),
(360,800,l),
(344,784,l),
(344,736,l),
(332,724,l),
(224,724,l),
(208,708,l),
(208,644,l),
(224,628,l),
(332,628,l),
(344,616,l),
(344,524,l),
(328,524,l),
(296,564,o),
(252,592,o),
(184,592,cs),
(16,592,o),
(-68,456,o),
(-68,288,cs),
(-68,120,o),
(12,-16,o),
(180,-16,cs),
(256,-16,o),
(300,8,o),
(340,64,c),
(356,64,l),
(364,16,l),
(380,0,l),
(512,0,l)
);
},
{
closed = 1;
nodes = (
(320,452,o),
(348,376,o),
(348,288,cs),
(348,200,o),
(320,128,o),
(232,128,cs),
(144,128,o),
(116,200,o),
(116,288,cs),
(116,376,o),
(144,452,o),
(232,452,cs)
);
}
);
width = 600;
},
{
layerId = m003;
shapes = (
{
closed = 1;
nodes = (
(528,16,l),
(528,616,l),
(540,628,l),
(564,628,l),
(580,644,l),
(580,708,l),
(564,724,l),
(540,724,l),
(528,736,l),
(528,784,l),
(512,800,l),
(360,800,l),
(344,784,l),
(344,736,l),
(332,724,l),
(224,724,l),
(208,708,l),
(208,644,l),
(224,628,l),
(332,628,l),
(344,616,l),
(344,524,l),
(328,524,l),
(296,564,o),
(252,592,o),
(184,592,cs),
(16,592,o),
(-68,456,o),
(-68,288,cs),
(-68,120,o),
(12,-16,o),
(180,-16,cs),
(256,-16,o),
(300,8,o),
(340,64,c),
(356,64,l),
(364,16,l),
(380,0,l),
(512,0,l)
);
},
{
closed = 1;
nodes = (
(320,452,o),
(348,376,o),
(348,288,cs),
(348,200,o),
(320,128,o),
(232,128,cs),
(144,128,o),
(116,200,o),
(116,288,cs),
(116,376,o),
(144,452,o),
(232,452,cs)
);
}
);
width = 600;
},
{
layerId = m004;
shapes = (
{
closed = 1;
nodes = (
(528,16,l),
(528,616,l),
(540,628,l),
(564,628,l),
(580,644,l),
(580,708,l),
(564,724,l),
(540,724,l),
(528,736,l),
(528,784,l),
(512,800,l),
(360,800,l),
(344,784,l),
(344,736,l),
(332,724,l),
(224,724,l),
(208,708,l),
(208,644,l),
(224,628,l),
(332,628,l),
(344,616,l),
(344,524,l),
(328,524,l),
(296,564,o),
(252,592,o),
(184,592,cs),
(16,592,o),
(-68,456,o),
(-68,288,cs),
(-68,120,o),
(12,-16,o),
(180,-16,cs),
(256,-16,o),
(300,8,o),
(340,64,c),
(356,64,l),
(364,16,l),
(380,0,l),
(512,0,l)
);
},
{
closed = 1;
nodes = (
(320,452,o),
(348,376,o),
(348,288,cs),
(348,200,o),
(320,128,o),
(232,128,cs),
(144,128,o),
(116,200,o),
(116,288,cs),
(116,376,o),
(144,452,o),
(232,452,cs)
);
}
);
width = 600;
}
);
unicode = 273;
},
{
color = 5;
glyphname = eth;
lastChange = "2024-08-02 04:35:08 +0000";
layers = (
{
layerId = m01;
shapes = (
{
closed = 1;
nodes = (
(500,-16,o),
(612,112,o),
(612,292,cs),
(612,440,o),
(560,588,o),
(456,692,c),
(468,704,l),
(520,720,l),
(516,740,l),
(516,772,l),
(500,788,l),
(408,744,l),
(396,756,l),
(348,784,l),
(332,800,l),
(168,800,l),
(152,784,l),
(248,708,l),
(236,696,l),
(144,660,l),
(128,644,l),
(128,612,l),
(144,596,l),
(312,652,l),
(324,640,l),
(360,604,o),
(392,568,o),
(400,524,c),
(384,524,l),
(340,564,o),
(320,576,o),
(264,576,cs),
(112,576,o),
(12,456,o),
(12,288,cs),
(12,120,o),
(116,-16,o),
(312,-16,cs)
);
},
{
closed = 1;
nodes = (
(224,128,o),
(196,200,o),
(196,288,cs),
(196,376,o),
(224,452,o),
(312,452,cs),
(400,452,o),
(428,376,o),
(428,288,cs),
(428,200,o),
(400,128,o),
(312,128,cs)
);
}
);
width = 600;
},
{
layerId = m002;
shapes = (
{
closed = 1;
nodes = (
(500,-16,o),
(612,112,o),
(612,292,cs),
(612,440,o),
(560,588,o),
(456,692,c),
(468,704,l),
(520,720,l),
(516,740,l),
(516,772,l),
(500,788,l),
(408,744,l),
(396,756,l),
(348,784,l),
(332,800,l),
(168,800,l),
(152,784,l),
(248,708,l),
(236,696,l),
(144,660,l),
(128,644,l),
(128,612,l),
(144,596,l),
(312,652,l),
(324,640,l),
(360,604,o),
(392,568,o),
(400,524,c),
(384,524,l),
(340,564,o),
(320,576,o),
(264,576,cs),
(112,576,o),
(12,456,o),
(12,288,cs),
(12,120,o),
(116,-16,o),
(312,-16,cs)
);
},
{
closed = 1;
nodes = (
(224,128,o),
(196,200,o),
(196,288,cs),
(196,376,o),
(224,452,o),
(312,452,cs),
(400,452,o),
(428,376,o),
(428,288,cs),
(428,200,o),
(400,128,o),
(312,128,cs)
);
}
);
width = 600;
},
{
layerId = m003;
shapes = (
{
closed = 1;
nodes = (
(500,-16,o),
(612,112,o),
(612,292,cs),
(612,440,o),
(560,588,o),
(456,692,c),
(468,704,l),
(520,720,l),
(516,740,l),
(516,772,l),
(500,788,l),
(408,744,l),
(396,756,l),
(348,784,l),
(332,800,l),
(168,800,l),
(152,784,l),
(248,708,l),
(236,696,l),
(144,660,l),
(128,644,l),
(128,612,l),
(144,596,l),
(312,652,l),
(324,640,l),
(360,604,o),
(392,568,o),
(400,524,c),
(384,524,l),
(340,564,o),
(320,576,o),
(264,576,cs),
(112,576,o),
(12,456,o),
(12,288,cs),
(12,120,o),
(116,-16,o),
(312,-16,cs)
);
},
{
closed = 1;
nodes = (
(224,128,o),
(196,200,o),
(196,288,cs),
(196,376,o),
(224,452,o),
(312,452,cs),
(400,452,o),
(428,376,o),
(428,288,cs),
(428,200,o),
(400,128,o),
(312,128,cs)
);
}
);
width = 600;
},
{
layerId = m004;
shapes = (
{
closed = 1;
nodes = (
(500,-16,o),
(612,112,o),
(612,292,cs),
(612,440,o),
(560,588,o),
(456,692,c),
(468,704,l),
(520,720,l),
(516,740,l),
(516,772,l),
(500,788,l),
(408,744,l),
(396,756,l),
(348,784,l),
(332,800,l),
(168,800,l),
(152,784,l),
(248,708,l),
(236,696,l),
(144,660,l),
(128,644,l),
(128,612,l),
(144,596,l),
(312,652,l),
(324,640,l),
(360,604,o),
(392,568,o),
(400,524,c),
(384,524,l),
(340,564,o),
(320,576,o),
(264,576,cs),
(112,576,o),
(12,456,o),
(12,288,cs),
(12,120,o),
(116,-16,o),
(312,-16,cs)
);
},
{
closed = 1;
nodes = (
(224,128,o),
(196,200,o),
(196,288,cs),
(196,376,o),
(224,452,o),
(312,452,cs),
(400,452,o),
(428,376,o),
(428,288,cs),
(428,200,o),
(400,128,o),
(312,128,cs)
);
}
);
width = 692;
}
);
unicode = 240;
},
{
color = 5;
glyphname = e;
kernLeft = o;
kernRight = o;
lastChange = "2024-08-05 01:40:06 +0000";
layers = (
{
anchors = (
{
name = bottom;
pos = (340,0);
},
{
name = ogonek;
pos = (448,60);
},
{
name = top;
pos = (332,576);
}
);
layerId = m01;
shapes = (
{
closed = 1;
nodes = (
(172,356,l),
(180,444,o),
(232,504,o),
(328,504,cs),
(432,504,o),
(484,444,o),
(492,356,c),
(480,344,l),
(184,344,l)
);
},
{
closed = 1;
nodes = (
(496,-16,o),
(568,84,o),
(580,156,c),
(580,172,l),
(564,188,l),
(504,188,l),
(488,172,l),
(472,108,o),
(432,76,o),
(336,76,cs),
(232,76,o),
(172,144,o),
(172,252,c),
(184,264,l),
(580,264,l),
(596,280,l),
(596,300,ls),
(596,464,o),
(496,592,o),
(328,592,cs),
(168,592,o),
(64,464,o),
(64,288,cs),
(64,112,o),
(164,-16,o),
(336,-16,cs)
);
}
);
width = 652;
},
{
anchors = (
{
name = bottom;
pos = (292,0);
},
{
name = ogonek;
pos = (400,60);
},
{
name = top;
pos = (284,576);
}
);
layerId = m002;
shapes = (
{
closed = 1;
nodes = (
(128,356,l),
(136,444,o),
(184,504,o),
(280,504,cs),
(384,504,o),
(436,444,o),
(444,356,c),
(432,344,l),
(140,344,l)
);
},
{
closed = 1;
nodes = (
(448,-16,o),
(524,84,o),
(536,156,c),
(536,172,l),
(520,188,l),
(456,188,l),
(440,172,l),
(424,108,o),
(384,76,o),
(288,76,cs),
(184,76,o),
(128,144,o),
(128,252,c),
(140,264,l),
(532,264,l),
(548,280,l),
(548,300,ls),
(548,464,o),
(448,592,o),
(280,592,cs),
(120,592,o),
(16,464,o),
(16,288,cs),
(16,112,o),
(116,-16,o),
(288,-16,cs)
);
}
);
width = 564;
},
{
anchors = (
{
name = bottom;
pos = (332,0);
},
{
name = ogonek;
pos = (440,60);
},
{
name = top;
pos = (324,576);
}
);
layerId = m003;
shapes = (
{
closed = 1;
nodes = (
(216,360,l),
(224,416,o),
(268,460,o),
(328,460,cs),
(396,460,o),
(428,416,o),
(436,360,c),
(424,348,l),
(228,348,l)
);
},
{
closed = 1;
nodes = (
(488,-16,o),
(580,72,o),
(604,144,c),
(604,160,l),
(588,176,l),
(452,176,l),
(436,160,l),
(412,128,o),
(384,120,o),
(340,120,cs),
(264,120,o),
(224,156,o),
(216,228,c),
(228,240,l),
(604,240,l),
(620,256,l),
(620,276,ls),
(620,448,o),
(500,592,o),
(328,592,cs),
(148,592,o),
(32,468,o),
(32,288,cs),
(32,100,o),
(148,-16,o),
(336,-16,cs)
);
}
);
width = 652;
},
{
anchors = (
{
name = bottom;
pos = (320,0);
},
{
name = ogonek;
pos = (428,60);
},
{
name = top;
pos = (312,576);
}
);
layerId = m004;
shapes = (
{
closed = 1;
nodes = (
(200,360,l),
(208,416,o),
(252,460,o),
(312,460,cs),
(380,460,o),
(412,416,o),
(420,360,c),
(408,348,l),
(212,348,l)
);
},
{
closed = 1;
nodes = (
(472,-16,o),
(564,72,o),
(588,144,c),
(588,160,l),
(572,176,l),
(436,176,l),
(420,160,l),
(396,128,o),
(368,120,o),
(324,120,cs),
(248,120,o),
(208,156,o),
(200,228,c),
(212,240,l),
(588,240,l),
(604,256,l),
(604,276,ls),
(604,448,o),
(484,592,o),
(312,592,cs),
(132,592,o),
(16,468,o),
(16,288,cs),
(16,100,o),
(132,-16,o),
(320,-16,cs)
);
}
);
width = 620;
}
);
unicode = 101;
},
{
color = 5;
glyphname = eogonek;
lastChange = "2024-08-02 06:26:35 +0000";
layers = (
{
layerId = m01;
shapes = (
{
closed = 1;
nodes = (
(160,360,l),
(168,416,o),
(212,460,o),
(272,460,cs),
(340,460,o),
(372,416,o),
(380,360,c),
(368,348,l),
(172,348,l)
);
},
{
closed = 1;
nodes = (
(388,-212,o),
(416,-204,o),
(432,-196,c),
(448,-180,l),
(448,-128,l),
(432,-112,l),
(416,-112,ls),
(388,-112,o),
(376,-104,o),
(376,-80,cs),
(376,-40,o),
(404,-16,o),
(484,52,cs),
(520,80,o),
(540,116,o),
(548,144,c),
(548,160,l),
(532,176,l),
(396,176,l),
(380,160,l),
(356,128,o),
(328,120,o),
(284,120,cs),
(208,120,o),
(168,156,o),
(160,228,c),
(172,240,l),
(548,240,l),
(564,256,l),
(564,276,ls),
(564,448,o),
(444,592,o),
(272,592,cs),
(92,592,o),
(-24,468,o),
(-24,288,cs),
(-24,100,o),
(92,-16,o),
(280,-16,c),
(280,-28,l),
(236,-52,o),
(228,-76,o),
(228,-116,cs),
(228,-172,o),
(276,-212,o),
(352,-212,cs)
);
}
);
width = 600;
},
{
layerId = m002;
shapes = (
{
closed = 1;
nodes = (
(160,360,l),
(168,416,o),
(212,460,o),
(272,460,cs),
(340,460,o),
(372,416,o),
(380,360,c),
(368,348,l),
(172,348,l)
);
},
{
closed = 1;
nodes = (
(388,-212,o),
(416,-204,o),
(432,-196,c),
(448,-180,l),
(448,-128,l),
(432,-112,l),
(416,-112,ls),
(388,-112,o),
(376,-104,o),
(376,-80,cs),
(376,-40,o),
(404,-16,o),
(484,52,cs),
(520,80,o),
(540,116,o),
(548,144,c),
(548,160,l),
(532,176,l),
(396,176,l),
(380,160,l),
(356,128,o),
(328,120,o),
(284,120,cs),
(208,120,o),
(168,156,o),
(160,228,c),
(172,240,l),
(548,240,l),
(564,256,l),
(564,276,ls),
(564,448,o),
(444,592,o),
(272,592,cs),
(92,592,o),
(-24,468,o),
(-24,288,cs),
(-24,100,o),
(92,-16,o),
(280,-16,c),
(280,-28,l),
(236,-52,o),
(228,-76,o),
(228,-116,cs),
(228,-172,o),
(276,-212,o),
(352,-212,cs)
);
}
);
width = 600;
},
{
layerId = m003;
shapes = (
{
closed = 1;
nodes = (
(160,360,l),
(168,416,o),
(212,460,o),
(272,460,cs),
(340,460,o),
(372,416,o),
(380,360,c),
(368,348,l),
(172,348,l)
);
},
{
closed = 1;
nodes = (
(388,-212,o),
(416,-204,o),
(432,-196,c),
(448,-180,l),
(448,-128,l),
(432,-112,l),
(416,-112,ls),
(388,-112,o),
(376,-104,o),
(376,-80,cs),
(376,-40,o),
(404,-16,o),
(484,52,cs),
(520,80,o),
(540,116,o),
(548,144,c),
(548,160,l),
(532,176,l),
(396,176,l),
(380,160,l),
(356,128,o),
(328,120,o),
(284,120,cs),
(208,120,o),
(168,156,o),
(160,228,c),
(172,240,l),
(548,240,l),
(564,256,l),
(564,276,ls),
(564,448,o),
(444,592,o),
(272,592,cs),
(92,592,o),
(-24,468,o),
(-24,288,cs),
(-24,100,o),
(92,-16,o),
(280,-16,c),
(280,-28,l),
(236,-52,o),
(228,-76,o),
(228,-116,cs),
(228,-172,o),
(276,-212,o),
(352,-212,cs)
);
}
);
width = 600;
},
{
layerId = m004;
shapes = (
{
closed = 1;
nodes = (
(160,360,l),
(168,416,o),
(212,460,o),
(272,460,cs),
(340,460,o),
(372,416,o),
(380,360,c),
(368,348,l),
(172,348,l)
);
},
{
closed = 1;
nodes = (
(388,-212,o),
(416,-204,o),
(432,-196,c),
(448,-180,l),
(448,-128,l),
(432,-112,l),
(416,-112,ls),
(388,-112,o),
(376,-104,o),
(376,-80,cs),
(376,-40,o),
(404,-16,o),
(484,52,cs),
(520,80,o),
(540,116,o),
(548,144,c),
(548,160,l),
(532,176,l),
(396,176,l),
(380,160,l),
(356,128,o),
(328,120,o),
(284,120,cs),
(208,120,o),
(168,156,o),
(160,228,c),
(172,240,l),
(548,240,l),
(564,256,l),
(564,276,ls),
(564,448,o),
(444,592,o),
(272,592,cs),
(92,592,o),
(-24,468,o),
(-24,288,cs),
(-24,100,o),
(92,-16,o),
(280,-16,c),
(280,-28,l),
(236,-52,o),
(228,-76,o),
(228,-116,cs),
(228,-172,o),
(276,-212,o),
(352,-212,cs)
);
}
);
width = 600;
}
);
unicode = 281;
},
{
color = 5;
glyphname = f;
kernLeft = f;
kernRight = f;
lastChange = "2024-08-06 02:09:53 +0000";
layers = (
{
layerId = m01;
shapes = (
{
closed = 1;
nodes = (
(216,0,l),
(232,16,l),
(232,476,l),
(244,488,l),
(344,488,l),
(360,504,l),
(360,560,l),
(344,576,l),
(244,576,l),
(232,588,l),
(232,640,ls),
(232,672,o),
(244,712,o),
(276,712,cs),
(344,712,l),
(360,728,l),
(360,784,l),
(344,800,l),
(276,800,ls),
(184,800,o),
(128,736,o),
(128,640,cs),
(128,588,l),
(116,576,l),
(56,576,l),
(40,560,l),
(40,504,l),
(56,488,l),
(120,488,l),
(128,476,l),
(128,16,l),
(144,0,l)
);
}
);
width = 404;
},
{
layerId = m002;
shapes = (
{
closed = 1;
nodes = (
(184,0,l),
(200,16,l),
(200,476,l),
(212,488,l),
(312,488,l),
(328,504,l),
(328,560,l),
(312,576,l),
(212,576,l),
(200,588,l),
(200,640,ls),
(200,672,o),
(212,712,o),
(244,712,cs),
(312,712,l),
(328,728,l),
(328,784,l),
(312,800,l),
(244,800,ls),
(152,800,o),
(96,736,o),
(96,640,cs),
(96,588,l),
(84,576,l),
(24,576,l),
(8,560,l),
(8,504,l),
(24,488,l),
(88,488,l),
(96,476,l),
(96,16,l),
(112,0,l)
);
}
);
width = 336;
},
{
layerId = m003;
shapes = (
{
closed = 1;
nodes = (
(216,0,l),
(232,16,l),
(232,476,l),
(244,488,l),
(344,488,l),
(360,504,l),
(360,560,l),
(344,576,l),
(244,576,l),
(232,588,l),
(232,640,ls),
(232,672,o),
(244,712,o),
(276,712,cs),
(344,712,l),
(360,728,l),
(360,784,l),
(344,800,l),
(276,800,ls),
(184,800,o),
(128,736,o),
(128,640,cs),
(128,588,l),
(116,576,l),
(56,576,l),
(40,560,l),
(40,504,l),
(56,488,l),
(120,488,l),
(128,476,l),
(128,16,l),
(144,0,l)
);
}
);
width = 404;
},
{
layerId = m004;
shapes = (
{
closed = 1;
nodes = (
(256,0,l),
(272,16,l),
(272,448,l),
(284,460,l),
(364,460,l),
(380,476,l),
(380,560,l),
(364,576,l),
(284,576,l),
(272,588,l),
(272,608,ls),
(272,648,o),
(296,672,o),
(336,672,cs),
(364,672,l),
(380,688,l),
(380,784,l),
(364,800,l),
(276,800,ls),
(164,800,o),
(88,732,o),
(88,620,cs),
(88,588,l),
(76,576,l),
(32,576,l),
(16,560,l),
(16,476,l),
(32,460,l),
(80,460,l),
(88,448,l),
(88,16,l),
(104,0,l)
);
}
);
width = 396;
}
);
unicode = 102;
},
{
color = 5;
glyphname = g;
kernLeft = o;
kernRight = g;
lastChange = "2024-08-06 02:35:58 +0000";
layers = (
{
anchors = (
{
name = bottom;
pos = (308,-224);
},
{
name = top;
pos = (296,576);
}
);
layerId = m01;
shapes = (
{
closed = 1;
nodes = (
(516,576,l),
(500,560,l),
(492,512,l),
(476,512,l),
(444,556,o),
(376,592,o),
(300,592,cs),
(140,592,o),
(64,452,o),
(64,288,cs),
(64,140,o),
(140,-16,o),
(300,-16,cs),
(388,-16,o),
(444,20,o),
(476,64,c),
(492,56,l),
(492,16,ls),
(492,-100,o),
(432,-152,o),
(332,-152,cs),
(244,-152,o),
(204,-112,o),
(196,-84,c),
(180,-68,l),
(116,-68,l),
(100,-84,l),
(100,-100,l),
(112,-172,o),
(180,-240,o),
(332,-240,cs),
(528,-240,o),
(596,-148,o),
(596,64,cs),
(596,560,l),
(580,576,l)
);
},
{
closed = 1;
nodes = (
(232,80,o),
(172,168,o),
(172,288,cs),
(172,424,o),
(232,496,o),
(332,496,cs),
(420,496,o),
(492,424,o),
(492,288,cs),
(492,152,o),
(420,80,o),
(332,80,cs)
);
}
);
width = 684;
},
{
associatedMasterId = m01;
layerId = "C19FDEAA-47BF-434E-A717-FE03DC2ED072";
name = "Mar 25, 24 at 15:29";
shapes = (
{
closed = 1;
nodes = (
(216,-120,o),
(184,-108,o),
(160,-64,c),
(152,-52,l),
(60,-52,l),
(48,-64,l),
(60,-152,o),
(136,-220,o),
(272,-220,cs),
(408,-220,o),
(532,-144,o),
(532,80,cs),
(532,564,l),
(520,576,l),
(444,576,l),
(428,564,l),
(420,520,l),
(408,520,l),
(408,520,o),
(360,588,o),
(264,588,cs),
(104,588,o),
(16,464,o),
(16,296,cs),
(16,124,o),
(104,4,o),
(264,4,cs),
(360,4,o),
(408,72,o),
(408,72,c),
(420,72,l),
(420,-52,o),
(376,-120,o),
(272,-120,cs)
);
},
{
closed = 1;
nodes = (
(420,160,o),
(360,104,o),
(272,104,cs),
(184,104,o),
(128,172,o),
(128,296,cs),
(128,416,o),
(184,484,o),
(272,484,cs),
(360,484,o),
(420,432,o),
(420,296,cs)
);
}
);
width = 588;
},
{
associatedMasterId = m01;
layerId = "256E6239-4BF3-46C8-B592-65A1B0EE23F7";
name = "Apr 14, 24 at 14:05";
shapes = (
{
closed = 1;
nodes = (
(532,-184,l),
(532,560,l),
(516,576,l),
(464,576,l),
(448,560,l),
(432,512,l),
(416,512,l),
(392,556,o),
(340,592,o),
(268,592,cs),
(120,592,o),
(32,464,o),
(32,288,cs),
(32,112,o),
(116,-16,o),
(268,-16,cs),
(340,-16,o),
(388,20,o),
(416,64,c),
(428,64,l),
(428,-184,l),
(444,-200,l),
(516,-200,l)
);
},
{
closed = 1;
nodes = (
(188,76,o),
(136,164,o),
(136,288,cs),
(136,416,o),
(188,500,o),
(284,500,cs),
(372,500,o),
(436,416,o),
(436,288,cs),
(436,164,o),
(372,76,o),
(284,76,cs)
);
}
);
width = 580;
},
{
associatedMasterId = m01;
layerId = "4336F6EE-756D-47D5-B080-E3051E65105E";
name = "Jun 2, 24 at 20:25";
shapes = (
{
closed = 1;
nodes = (
(468,-220,o),
(532,-120,o),
(532,44,cs),
(532,560,l),
(516,576,l),
(464,576,l),
(448,560,l),
(432,512,l),
(416,512,l),
(392,556,o),
(340,592,o),
(268,592,cs),
(116,592,o),
(32,464,o),
(32,288,cs),
(32,112,o),
(120,-16,o),
(268,-16,cs),
(336,-16,o),
(396,16,o),
(416,64,c),
(428,64,l),
(428,52,ls),
(428,-104,o),
(368,-136,o),
(284,-136,cs),
(220,-136,o),
(172,-120,o),
(152,-72,c),
(136,-56,l),
(76,-56,l),
(60,-72,l),
(60,-88,l),
(72,-160,o),
(176,-220,o),
(272,-220,cs)
);
},
{
closed = 1;
nodes = (
(188,76,o),
(136,160,o),
(136,288,cs),
(136,412,o),
(188,500,o),
(284,500,cs),
(372,500,o),
(436,412,o),
(436,288,cs),
(436,160,o),
(372,76,o),
(284,76,cs)
);
}
);
width = 580;
},
{
anchors = (
{
name = bottom;
pos = (312,-224);
},
{
name = top;
pos = (300,576);
}
);
layerId = m002;
shapes = (
{
closed = 1;
nodes = (
(464,576,l),
(448,560,l),
(444,512,l),
(428,512,l),
(396,556,o),
(328,592,o),
(252,592,cs),
(92,592,o),
(16,452,o),
(16,288,cs),
(16,140,o),
(92,16,o),
(252,16,cs),
(340,16,o),
(396,52,o),
(428,96,c),
(444,88,l),
(444,24,ls),
(444,-92,o),
(384,-148,o),
(284,-148,cs),
(196,-148,o),
(168,-116,o),
(160,-88,c),
(144,-72,l),
(68,-72,l),
(52,-88,l),
(52,-104,l),
(68,-176,o),
(120,-240,o),
(284,-240,cs),
(472,-240,o),
(548,-152,o),
(548,24,cs),
(548,560,l),
(532,576,l)
);
},
{
closed = 1;
nodes = (
(184,112,o),
(124,168,o),
(124,288,cs),
(124,424,o),
(184,496,o),
(284,496,cs),
(372,496,o),
(444,424,o),
(444,288,cs),
(444,168,o),
(372,112,o),
(284,112,cs)
);
}
);
width = 580;
},
{
associatedMasterId = m002;
layerId = "63EB4426-54D7-4AF1-8925-77063C29C352";
name = "Mar 25, 24 at 15:29";
shapes = (
{
closed = 1;
nodes = (
(216,-120,o),
(184,-108,o),
(160,-64,c),
(152,-52,l),
(60,-52,l),
(48,-64,l),
(60,-152,o),
(136,-220,o),
(272,-220,cs),
(408,-220,o),
(532,-144,o),
(532,80,cs),
(532,564,l),
(520,576,l),
(444,576,l),
(428,564,l),
(420,520,l),
(408,520,l),
(408,520,o),
(360,588,o),
(264,588,cs),
(104,588,o),
(16,464,o),
(16,296,cs),
(16,124,o),
(104,4,o),
(264,4,cs),
(360,4,o),
(408,72,o),
(408,72,c),
(420,72,l),
(420,-52,o),
(376,-120,o),
(272,-120,cs)
);
},
{
closed = 1;
nodes = (
(420,160,o),
(360,104,o),
(272,104,cs),
(184,104,o),
(128,172,o),
(128,296,cs),
(128,416,o),
(184,484,o),
(272,484,cs),
(360,484,o),
(420,432,o),
(420,296,cs)
);
}
);
width = 588;
},
{
associatedMasterId = m002;
layerId = "26E58D9F-4BC8-4AEB-BFEE-F452CD10C466";
name = "Apr 14, 24 at 14:05";
shapes = (
{
closed = 1;
nodes = (
(532,-184,l),
(532,560,l),
(516,576,l),
(464,576,l),
(448,560,l),
(432,512,l),
(416,512,l),
(392,556,o),
(340,592,o),
(268,592,cs),
(120,592,o),
(32,464,o),
(32,288,cs),
(32,112,o),
(116,-16,o),
(268,-16,cs),
(340,-16,o),
(388,20,o),
(416,64,c),
(428,64,l),
(428,-184,l),
(444,-200,l),
(516,-200,l)
);
},
{
closed = 1;
nodes = (
(188,76,o),
(136,164,o),
(136,288,cs),
(136,416,o),
(188,500,o),
(284,500,cs),
(372,500,o),
(436,416,o),
(436,288,cs),
(436,164,o),
(372,76,o),
(284,76,cs)
);
}
);
width = 580;
},
{
associatedMasterId = m002;
layerId = "470173AB-CED6-4BB8-8F6A-365D666521B0";
name = "Jun 2, 24 at 20:25";
shapes = (
{
closed = 1;
nodes = (
(468,-220,o),
(532,-120,o),
(532,44,cs),
(532,560,l),
(516,576,l),
(464,576,l),
(448,560,l),
(432,512,l),
(416,512,l),
(392,556,o),
(340,592,o),
(268,592,cs),
(116,592,o),
(32,464,o),
(32,288,cs),
(32,112,o),
(120,-16,o),
(268,-16,cs),
(336,-16,o),
(396,16,o),
(416,64,c),
(428,64,l),
(428,52,ls),
(428,-104,o),
(368,-136,o),
(284,-136,cs),
(220,-136,o),
(172,-120,o),
(152,-72,c),
(136,-56,l),
(76,-56,l),
(60,-72,l),
(60,-88,l),
(72,-160,o),
(176,-220,o),
(272,-220,cs)
);
},
{
closed = 1;
nodes = (
(188,76,o),
(136,160,o),
(136,288,cs),
(136,412,o),
(188,500,o),
(284,500,cs),
(372,500,o),
(436,412,o),
(436,288,cs),
(436,160,o),
(372,76,o),
(284,76,cs)
);
}
);
width = 580;
},
{
anchors = (
{
name = bottom;
pos = (308,-224);
},
{
name = top;
pos = (296,576);
}
);
layerId = m003;
shapes = (
{
closed = 1;
nodes = (
(516,576,l),
(500,560,l),
(492,512,l),
(476,512,l),
(444,556,o),
(376,592,o),
(300,592,cs),
(140,592,o),
(64,452,o),
(64,288,cs),
(64,140,o),
(140,-16,o),
(300,-16,cs),
(388,-16,o),
(444,20,o),
(476,64,c),
(492,56,l),
(492,16,ls),
(492,-100,o),
(432,-152,o),
(332,-152,cs),
(244,-152,o),
(204,-112,o),
(196,-84,c),
(180,-68,l),
(116,-68,l),
(100,-84,l),
(100,-100,l),
(112,-172,o),
(180,-240,o),
(332,-240,cs),
(528,-240,o),
(596,-148,o),
(596,64,cs),
(596,560,l),
(580,576,l)
);
},
{
closed = 1;
nodes = (
(232,80,o),
(172,168,o),
(172,288,cs),
(172,424,o),
(232,496,o),
(332,496,cs),
(420,496,o),
(492,424,o),
(492,288,cs),
(492,152,o),
(420,80,o),
(332,80,cs)
);
}
);
width = 684;
},
{
associatedMasterId = m003;
layerId = "20B55E12-63F6-4043-B7E2-69C498E3BBB7";
name = "Mar 25, 24 at 15:29";
shapes = (
{
closed = 1;
nodes = (
(216,-120,o),
(184,-108,o),
(160,-64,c),
(152,-52,l),
(60,-52,l),
(48,-64,l),
(60,-152,o),
(136,-220,o),
(272,-220,cs),
(408,-220,o),
(532,-144,o),
(532,80,cs),
(532,564,l),
(520,576,l),
(444,576,l),
(428,564,l),
(420,520,l),
(408,520,l),
(408,520,o),
(360,588,o),
(264,588,cs),
(104,588,o),
(16,464,o),
(16,296,cs),
(16,124,o),
(104,4,o),
(264,4,cs),
(360,4,o),
(408,72,o),
(408,72,c),
(420,72,l),
(420,-52,o),
(376,-120,o),
(272,-120,cs)
);
},
{
closed = 1;
nodes = (
(420,160,o),
(360,104,o),
(272,104,cs),
(184,104,o),
(128,172,o),
(128,296,cs),
(128,416,o),
(184,484,o),
(272,484,cs),
(360,484,o),
(420,432,o),
(420,296,cs)
);
}
);
width = 588;
},
{
associatedMasterId = m003;
layerId = "2A6EFCBB-A7BB-4198-B4D7-D06C9EEAE220";
name = "Apr 14, 24 at 14:05";
shapes = (
{
closed = 1;
nodes = (
(532,-184,l),
(532,560,l),
(516,576,l),
(464,576,l),
(448,560,l),
(432,512,l),
(416,512,l),
(392,556,o),
(340,592,o),
(268,592,cs),
(120,592,o),
(32,464,o),
(32,288,cs),
(32,112,o),
(116,-16,o),
(268,-16,cs),
(340,-16,o),
(388,20,o),
(416,64,c),
(428,64,l),
(428,-184,l),
(444,-200,l),
(516,-200,l)
);
},
{
closed = 1;
nodes = (
(188,76,o),
(136,164,o),
(136,288,cs),
(136,416,o),
(188,500,o),
(284,500,cs),
(372,500,o),
(436,416,o),
(436,288,cs),
(436,164,o),
(372,76,o),
(284,76,cs)
);
}
);
width = 580;
},
{
associatedMasterId = m003;
layerId = "8B0EC26F-3BD2-4C03-9CE0-A1658DB69598";
name = "Jun 2, 24 at 20:25";
shapes = (
{
closed = 1;
nodes = (
(468,-220,o),
(532,-120,o),
(532,44,cs),
(532,560,l),
(516,576,l),
(464,576,l),
(448,560,l),
(432,512,l),
(416,512,l),
(392,556,o),
(340,592,o),
(268,592,cs),
(116,592,o),
(32,464,o),
(32,288,cs),
(32,112,o),
(120,-16,o),
(268,-16,cs),
(336,-16,o),
(396,16,o),
(416,64,c),
(428,64,l),
(428,52,ls),
(428,-104,o),
(368,-136,o),
(284,-136,cs),
(220,-136,o),
(172,-120,o),
(152,-72,c),
(136,-56,l),
(76,-56,l),
(60,-72,l),
(60,-88,l),
(72,-160,o),
(176,-220,o),
(272,-220,cs)
);
},
{
closed = 1;
nodes = (
(188,76,o),
(136,160,o),
(136,288,cs),
(136,412,o),
(188,500,o),
(284,500,cs),
(372,500,o),
(436,412,o),
(436,288,cs),
(436,160,o),
(372,76,o),
(284,76,cs)
);
}
);
width = 580;
},
{
anchors = (
{
name = bottom;
pos = (308,-224);
},
{
name = top;
pos = (296,576);
}
);
layerId = m004;
shapes = (
{
closed = 1;
nodes = (
(448,576,l),
(432,560,l),
(424,512,l),
(408,512,l),
(380,564,o),
(336,592,o),
(264,592,cs),
(96,592,o),
(16,452,o),
(16,304,cs),
(16,140,o),
(116,32,o),
(260,32,cs),
(332,32,o),
(368,56,o),
(400,88,c),
(416,88,l),
(416,24,ls),
(416,-16,o),
(388,-72,o),
(308,-72,cs),
(264,-72,o),
(232,-60,o),
(216,-32,c),
(200,-16,l),
(52,-16,l),
(36,-32,l),
(36,-48,l),
(52,-120,o),
(144,-204,o),
(308,-204,cs),
(496,-204,o),
(592,-104,o),
(592,72,cs),
(592,560,l),
(576,576,l)
);
},
{
closed = 1;
nodes = (
(232,168,o),
(192,216,o),
(192,304,cs),
(192,408,o),
(244,456,o),
(312,456,cs),
(360,456,o),
(420,408,o),
(420,304,cs),
(420,216,o),
(376,168,o),
(312,168,cs)
);
}
);
width = 608;
},
{
associatedMasterId = m004;
layerId = "2CCF078B-0AE5-4FE7-A43A-974DDF44FCBC";
name = "Mar 25, 24 at 15:29";
shapes = (
{
closed = 1;
nodes = (
(216,-120,o),
(184,-108,o),
(160,-64,c),
(152,-52,l),
(60,-52,l),
(48,-64,l),
(60,-152,o),
(136,-220,o),
(272,-220,cs),
(408,-220,o),
(532,-144,o),
(532,80,cs),
(532,564,l),
(520,576,l),
(444,576,l),
(428,564,l),
(420,520,l),
(408,520,l),
(408,520,o),
(360,588,o),
(264,588,cs),
(104,588,o),
(16,464,o),
(16,296,cs),
(16,124,o),
(104,4,o),
(264,4,cs),
(360,4,o),
(408,72,o),
(408,72,c),
(420,72,l),
(420,-52,o),
(376,-120,o),
(272,-120,cs)
);
},
{
closed = 1;
nodes = (
(420,160,o),
(360,104,o),
(272,104,cs),
(184,104,o),
(128,172,o),
(128,296,cs),
(128,416,o),
(184,484,o),
(272,484,cs),
(360,484,o),
(420,432,o),
(420,296,cs)
);
}
);
width = 588;
},
{
associatedMasterId = m004;
layerId = "940A91AB-0E26-4CB5-ADF7-182FFDCE70FD";
name = "Apr 14, 24 at 14:05";
shapes = (
{
closed = 1;
nodes = (
(532,-184,l),
(532,560,l),
(516,576,l),
(464,576,l),
(448,560,l),
(432,512,l),
(416,512,l),
(392,556,o),
(340,592,o),
(268,592,cs),
(120,592,o),
(32,464,o),
(32,288,cs),
(32,112,o),
(116,-16,o),
(268,-16,cs),
(340,-16,o),
(388,20,o),
(416,64,c),
(428,64,l),
(428,-184,l),
(444,-200,l),
(516,-200,l)
);
},
{
closed = 1;
nodes = (
(188,76,o),
(136,164,o),
(136,288,cs),
(136,416,o),
(188,500,o),
(284,500,cs),
(372,500,o),
(436,416,o),
(436,288,cs),
(436,164,o),
(372,76,o),
(284,76,cs)
);
}
);
width = 580;
},
{
associatedMasterId = m004;
layerId = "7C054898-A43A-4C35-959A-7D8A7B81F590";
name = "Jun 2, 24 at 20:25";
shapes = (
{
closed = 1;
nodes = (
(468,-220,o),
(532,-120,o),
(532,44,cs),
(532,560,l),
(516,576,l),
(464,576,l),
(448,560,l),
(432,512,l),
(416,512,l),
(392,556,o),
(340,592,o),
(268,592,cs),
(116,592,o),
(32,464,o),
(32,288,cs),
(32,112,o),
(120,-16,o),
(268,-16,cs),
(336,-16,o),
(396,16,o),
(416,64,c),
(428,64,l),
(428,52,ls),
(428,-104,o),
(368,-136,o),
(284,-136,cs),
(220,-136,o),
(172,-120,o),
(152,-72,c),
(136,-56,l),
(76,-56,l),
(60,-72,l),
(60,-88,l),
(72,-160,o),
(176,-220,o),
(272,-220,cs)
);
},
{
closed = 1;
nodes = (
(188,76,o),
(136,160,o),
(136,288,cs),
(136,412,o),
(188,500,o),
(284,500,cs),
(372,500,o),
(436,412,o),
(436,288,cs),
(436,160,o),
(372,76,o),
(284,76,cs)
);
}
);
width = 580;
}
);
unicode = 103;
},
{
color = 5;
glyphname = gcommaaccent;
lastChange = "2024-08-02 06:29:45 +0000";
layers = (
{
layerId = m01;
shapes = (
{
ref = g;
},
{
closed = 1;
nodes = (
(296,900,o),
(244,856,o),
(244,772,cs),
(244,668,l),
(260,652,l),
(368,652,l),
(384,668,l),
(384,756,l),
(368,772,l),
(332,772,l),
(320,784,l),
(320,812,o),
(332,832,o),
(368,844,c),
(384,860,l),
(384,892,l),
(368,908,l)
);
}
);
width = 600;
},
{
layerId = m002;
shapes = (
{
ref = g;
},
{
closed = 1;
nodes = (
(296,900,o),
(244,856,o),
(244,772,cs),
(244,668,l),
(260,652,l),
(368,652,l),
(384,668,l),
(384,756,l),
(368,772,l),
(332,772,l),
(320,784,l),
(320,812,o),
(332,832,o),
(368,844,c),
(384,860,l),
(384,892,l),
(368,908,l)
);
}
);
width = 600;
},
{
layerId = m003;
shapes = (
{
ref = g;
},
{
closed = 1;
nodes = (
(296,900,o),
(244,856,o),
(244,772,cs),
(244,668,l),
(260,652,l),
(368,652,l),
(384,668,l),
(384,756,l),
(368,772,l),
(332,772,l),
(320,784,l),
(320,812,o),
(332,832,o),
(368,844,c),
(384,860,l),
(384,892,l),
(368,908,l)
);
}
);
width = 600;
},
{
layerId = m004;
shapes = (
{
ref = g;
},
{
closed = 1;
nodes = (
(296,892,o),
(244,852,o),
(244,772,cs),
(244,668,l),
(260,652,l),
(368,652,l),
(384,668,l),
(384,756,l),
(368,772,l),
(336,772,l),
(324,784,l),
(324,812,o),
(332,836,o),
(368,848,c),
(384,864,l),
(384,892,l),
(368,908,l)
);
}
);
width = 608;
}
);
unicode = 291;
},
{
color = 5;
glyphname = h;
kernLeft = n;
kernRight = n;
lastChange = "2024-08-04 19:48:38 +0000";
layers = (
{
layerId = m01;
shapes = (
{
closed = 1;
nodes = (
(176,0,l),
(192,16,l),
(192,352,ls),
(192,448,o),
(236,504,o),
(332,504,cs),
(428,504,o),
(472,448,o),
(472,352,cs),
(472,16,l),
(488,0,l),
(560,0,l),
(576,16,l),
(576,336,ls),
(576,496,o),
(524,592,o),
(364,592,cs),
(292,592,o),
(240,560,o),
(204,512,c),
(192,512,l),
(192,784,l),
(176,800,l),
(104,800,l),
(88,784,l),
(88,16,l),
(104,0,l)
);
}
);
width = 648;
},
{
layerId = m002;
shapes = (
{
closed = 1;
nodes = (
(120,0,l),
(136,16,l),
(136,352,ls),
(136,448,o),
(180,504,o),
(276,504,cs),
(372,504,o),
(416,448,o),
(416,352,cs),
(416,16,l),
(432,0,l),
(504,0,l),
(520,16,l),
(520,336,ls),
(520,496,o),
(468,592,o),
(308,592,cs),
(236,592,o),
(184,560,o),
(148,512,c),
(136,512,l),
(136,784,l),
(120,800,l),
(48,800,l),
(32,784,l),
(32,16,l),
(48,0,l)
);
}
);
width = 548;
},
{
layerId = m003;
shapes = (
{
closed = 1;
nodes = (
(232,0,l),
(248,16,l),
(248,344,ls),
(248,400,o),
(284,440,o),
(344,440,cs),
(396,440,o),
(436,400,o),
(436,344,cs),
(436,16,l),
(452,0,l),
(604,0,l),
(620,16,l),
(620,336,ls),
(620,492,o),
(572,592,o),
(420,592,cs),
(348,592,o),
(300,564,o),
(264,512,c),
(248,512,l),
(248,784,l),
(232,800,l),
(80,800,l),
(64,784,l),
(64,16,l),
(80,0,l)
);
}
);
width = 676;
},
{
layerId = m004;
shapes = (
{
closed = 1;
nodes = (
(200,0,l),
(216,16,l),
(216,344,ls),
(216,400,o),
(252,440,o),
(312,440,cs),
(364,440,o),
(404,400,o),
(404,344,cs),
(404,16,l),
(420,0,l),
(572,0,l),
(588,16,l),
(588,336,ls),
(588,492,o),
(540,592,o),
(388,592,cs),
(316,592,o),
(268,564,o),
(232,512,c),
(216,512,l),
(216,784,l),
(200,800,l),
(48,800,l),
(32,784,l),
(32,16,l),
(48,0,l)
);
}
);
width = 616;
}
);
unicode = 104;
},
{
color = 4;
glyphname = hbar;
lastChange = "2024-08-03 01:49:19 +0000";
layers = (
{
layerId = m01;
shapes = (
{
closed = 1;
nodes = (
(240,0,l),
(256,16,l),
(256,344,ls),
(256,400,o),
(292,440,o),
(352,440,cs),
(404,440,o),
(444,400,o),
(444,344,cs),
(444,16,l),
(460,0,l),
(612,0,l),
(628,16,l),
(628,336,ls),
(628,492,o),
(580,592,o),
(428,592,cs),
(352,592,o),
(300,564,o),
(268,512,c),
(256,512,l),
(256,616,l),
(268,628,l),
(372,628,l),
(388,644,l),
(388,708,l),
(372,724,l),
(268,724,l),
(256,736,l),
(256,784,l),
(240,800,l),
(88,800,l),
(72,784,l),
(72,736,l),
(60,724,l),
(32,724,l),
(16,708,l),
(16,644,l),
(32,628,l),
(60,628,l),
(72,616,l),
(72,16,l),
(88,0,l)
);
}
);
width = 600;
},
{
layerId = m002;
shapes = (
{
closed = 1;
nodes = (
(240,0,l),
(256,16,l),
(256,344,ls),
(256,400,o),
(292,440,o),
(352,440,cs),
(404,440,o),
(444,400,o),
(444,344,cs),
(444,16,l),
(460,0,l),
(612,0,l),
(628,16,l),
(628,336,ls),
(628,492,o),
(580,592,o),
(428,592,cs),
(352,592,o),
(300,564,o),
(268,512,c),
(256,512,l),
(256,616,l),
(268,628,l),
(372,628,l),
(388,644,l),
(388,708,l),
(372,724,l),
(268,724,l),
(256,736,l),
(256,784,l),
(240,800,l),
(88,800,l),
(72,784,l),
(72,736,l),
(60,724,l),
(32,724,l),
(16,708,l),
(16,644,l),
(32,628,l),
(60,628,l),
(72,616,l),
(72,16,l),
(88,0,l)
);
}
);
width = 600;
},
{
layerId = m003;
shapes = (
{
closed = 1;
nodes = (
(240,0,l),
(256,16,l),
(256,344,ls),
(256,400,o),
(292,440,o),
(352,440,cs),
(404,440,o),
(444,400,o),
(444,344,cs),
(444,16,l),
(460,0,l),
(612,0,l),
(628,16,l),
(628,336,ls),
(628,492,o),
(580,592,o),
(428,592,cs),
(352,592,o),
(300,564,o),
(268,512,c),
(256,512,l),
(256,616,l),
(268,628,l),
(372,628,l),
(388,644,l),
(388,708,l),
(372,724,l),
(268,724,l),
(256,736,l),
(256,784,l),
(240,800,l),
(88,800,l),
(72,784,l),
(72,736,l),
(60,724,l),
(32,724,l),
(16,708,l),
(16,644,l),
(32,628,l),
(60,628,l),
(72,616,l),
(72,16,l),
(88,0,l)
);
}
);
width = 600;
},
{
layerId = m004;
shapes = (
{
closed = 1;
nodes = (
(240,0,l),
(256,16,l),
(256,344,ls),
(256,400,o),
(292,440,o),
(352,440,cs),
(404,440,o),
(444,400,o),
(444,344,cs),
(444,16,l),
(460,0,l),
(612,0,l),
(628,16,l),
(628,336,ls),
(628,492,o),
(580,592,o),
(428,592,cs),
(352,592,o),
(300,564,o),
(268,512,c),
(256,512,l),
(256,616,l),
(268,628,l),
(372,628,l),
(388,644,l),
(388,708,l),
(372,724,l),
(268,724,l),
(256,736,l),
(256,784,l),
(240,800,l),
(88,800,l),
(72,784,l),
(72,736,l),
(60,724,l),
(32,724,l),
(16,708,l),
(16,644,l),
(32,628,l),
(60,628,l),
(72,616,l),
(72,16,l),
(88,0,l)
);
}
);
width = 656;
}
);
unicode = 295;
},
{
color = 5;
glyphname = i;
lastChange = "2024-08-04 19:44:29 +0000";
layers = (
{
layerId = m01;
shapes = (
{
closed = 1;
nodes = (
(184,684,l),
(200,700,l),
(200,784,l),
(184,800,l),
(104,800,l),
(88,784,l),
(88,700,l),
(104,684,l)
);
},
{
closed = 1;
nodes = (
(180,0,l),
(196,16,l),
(196,560,l),
(180,576,l),
(108,576,l),
(92,560,l),
(92,16,l),
(108,0,l)
);
}
);
width = 288;
},
{
layerId = m002;
shapes = (
{
closed = 1;
nodes = (
(120,684,l),
(136,700,l),
(136,784,l),
(120,800,l),
(48,800,l),
(32,784,l),
(32,700,l),
(48,684,l)
);
},
{
closed = 1;
nodes = (
(120,0,l),
(136,16,l),
(136,560,l),
(120,576,l),
(48,576,l),
(32,560,l),
(32,16,l),
(48,0,l)
);
}
);
width = 168;
},
{
layerId = m003;
shapes = (
{
closed = 1;
nodes = (
(228,632,l),
(244,648,l),
(244,784,l),
(228,800,l),
(80,800,l),
(64,784,l),
(64,648,l),
(80,632,l)
);
},
{
closed = 1;
nodes = (
(228,0,l),
(244,16,l),
(244,560,l),
(228,576,l),
(80,576,l),
(64,560,l),
(64,16,l),
(80,0,l)
);
}
);
width = 308;
},
{
layerId = m004;
shapes = (
{
closed = 1;
nodes = (
(196,632,l),
(212,648,l),
(212,784,l),
(196,800,l),
(48,800,l),
(32,784,l),
(32,648,l),
(48,632,l)
);
},
{
closed = 1;
nodes = (
(196,0,l),
(212,16,l),
(212,560,l),
(196,576,l),
(48,576,l),
(32,560,l),
(32,16,l),
(48,0,l)
);
}
);
width = 244;
}
);
unicode = 105;
},
{
color = 5;
glyphname = idotless;
lastChange = "2024-08-04 19:44:29 +0000";
layers = (
{
anchors = (
{
name = bottom;
pos = (124,0);
},
{
name = ogonek;
pos = (216,68);
},
{
name = top;
pos = (124,576);
}
);
layerId = m01;
shapes = (
{
closed = 1;
nodes = (
(160,0,l),
(176,16,l),
(176,560,l),
(160,576,l),
(80,576,l),
(64,560,l),
(64,16,l),
(80,0,l)
);
}
);
width = 240;
},
{
anchors = (
{
name = bottom;
pos = (124,0);
},
{
name = ogonek;
pos = (216,68);
},
{
name = top;
pos = (124,576);
}
);
layerId = m002;
shapes = (
{
closed = 1;
nodes = (
(160,0,l),
(176,16,l),
(176,560,l),
(160,576,l),
(80,576,l),
(64,560,l),
(64,16,l),
(80,0,l)
);
}
);
width = 240;
},
{
anchors = (
{
name = bottom;
pos = (124,0);
},
{
name = ogonek;
pos = (216,68);
},
{
name = top;
pos = (124,576);
}
);
layerId = m003;
shapes = (
{
closed = 1;
nodes = (
(160,0,l),
(176,16,l),
(176,560,l),
(160,576,l),
(80,576,l),
(64,560,l),
(64,16,l),
(80,0,l)
);
}
);
width = 240;
},
{
anchors = (
{
name = bottom;
pos = (124,0);
},
{
name = ogonek;
pos = (216,68);
},
{
name = top;
pos = (124,576);
}
);
layerId = m004;
shapes = (
{
closed = 1;
nodes = (
(200,0,l),
(216,16,l),
(216,560,l),
(200,576,l),
(48,576,l),
(32,560,l),
(32,16,l),
(48,0,l)
);
}
);
width = 248;
}
);
unicode = 305;
},
{
color = 4;
glyphname = iogonek;
lastChange = "2024-08-03 02:03:09 +0000";
layers = (
{
layerId = m01;
shapes = (
{
closed = 1;
nodes = (
(196,632,l),
(212,648,l),
(212,784,l),
(196,800,l),
(48,800,l),
(32,784,l),
(32,648,l),
(48,632,l)
);
},
{
closed = 1;
nodes = (
(72,0,l),
(72,-12,l),
(28,-28,o),
(4,-60,o),
(4,-100,cs),
(4,-156,o),
(52,-196,o),
(128,-196,cs),
(164,-196,o),
(192,-188,o),
(208,-180,c),
(224,-164,l),
(224,-112,l),
(208,-96,l),
(192,-96,ls),
(164,-96,o),
(152,-88,o),
(152,-64,cs),
(152,-48,o),
(160,-28,o),
(196,0,c),
(212,16,l),
(212,560,l),
(196,576,l),
(48,576,l),
(32,560,l),
(32,16,l),
(48,0,l)
);
}
);
width = 600;
},
{
layerId = m002;
shapes = (
{
closed = 1;
nodes = (
(196,632,l),
(212,648,l),
(212,784,l),
(196,800,l),
(48,800,l),
(32,784,l),
(32,648,l),
(48,632,l)
);
},
{
closed = 1;
nodes = (
(72,0,l),
(72,-12,l),
(28,-28,o),
(4,-60,o),
(4,-100,cs),
(4,-156,o),
(52,-196,o),
(128,-196,cs),
(164,-196,o),
(192,-188,o),
(208,-180,c),
(224,-164,l),
(224,-112,l),
(208,-96,l),
(192,-96,ls),
(164,-96,o),
(152,-88,o),
(152,-64,cs),
(152,-48,o),
(160,-28,o),
(196,0,c),
(212,16,l),
(212,560,l),
(196,576,l),
(48,576,l),
(32,560,l),
(32,16,l),
(48,0,l)
);
}
);
width = 600;
},
{
layerId = m003;
shapes = (
{
closed = 1;
nodes = (
(196,632,l),
(212,648,l),
(212,784,l),
(196,800,l),
(48,800,l),
(32,784,l),
(32,648,l),
(48,632,l)
);
},
{
closed = 1;
nodes = (
(72,0,l),
(72,-12,l),
(28,-28,o),
(4,-60,o),
(4,-100,cs),
(4,-156,o),
(52,-196,o),
(128,-196,cs),
(164,-196,o),
(192,-188,o),
(208,-180,c),
(224,-164,l),
(224,-112,l),
(208,-96,l),
(192,-96,ls),
(164,-96,o),
(152,-88,o),
(152,-64,cs),
(152,-48,o),
(160,-28,o),
(196,0,c),
(212,16,l),
(212,560,l),
(196,576,l),
(48,576,l),
(32,560,l),
(32,16,l),
(48,0,l)
);
}
);
width = 600;
},
{
layerId = m004;
shapes = (
{
closed = 1;
nodes = (
(196,632,l),
(212,648,l),
(212,784,l),
(196,800,l),
(48,800,l),
(32,784,l),
(32,648,l),
(48,632,l)
);
},
{
closed = 1;
nodes = (
(72,0,l),
(72,-12,l),
(28,-28,o),
(4,-60,o),
(4,-100,cs),
(4,-156,o),
(52,-196,o),
(128,-196,cs),
(164,-196,o),
(192,-188,o),
(208,-180,c),
(224,-164,l),
(224,-112,l),
(208,-96,l),
(192,-96,ls),
(164,-96,o),
(152,-88,o),
(152,-64,cs),
(152,-48,o),
(160,-28,o),
(196,0,c),
(212,16,l),
(212,560,l),
(196,576,l),
(48,576,l),
(32,560,l),
(32,16,l),
(48,0,l)
);
}
);
width = 244;
}
);
unicode = 303;
},
{
color = 5;
glyphname = j;
lastChange = "2024-08-04 19:44:29 +0000";
layers = (
{
layerId = m01;
shapes = (
{
closed = 1;
nodes = (
(20,-200,ls),
(100,-200,o),
(172,-156,o),
(172,-52,cs),
(172,560,l),
(156,576,l),
(84,576,l),
(68,560,l),
(68,-52,ls),
(68,-88,o),
(56,-100,o),
(28,-100,cs),
(-24,-100,l),
(-40,-116,l),
(-40,-184,l),
(-24,-200,l)
);
},
{
closed = 1;
nodes = (
(160,684,l),
(176,700,l),
(176,784,l),
(160,800,l),
(80,800,l),
(64,784,l),
(64,700,l),
(80,684,l)
);
}
);
width = 240;
},
{
layerId = m002;
shapes = (
{
closed = 1;
nodes = (
(8,-200,ls),
(104,-200,o),
(136,-168,o),
(136,-72,cs),
(136,560,l),
(120,576,l),
(48,576,l),
(32,560,l),
(32,-80,ls),
(32,-104,o),
(24,-112,o),
(0,-112,cs),
(-64,-112,l),
(-80,-128,l),
(-80,-184,l),
(-64,-200,l)
);
},
{
closed = 1;
nodes = (
(120,684,l),
(136,700,l),
(136,784,l),
(120,800,l),
(48,800,l),
(32,784,l),
(32,700,l),
(48,684,l)
);
}
);
width = 168;
},
{
layerId = m003;
shapes = (
{
closed = 1;
nodes = (
(20,-200,ls),
(100,-200,o),
(172,-156,o),
(172,-52,cs),
(172,560,l),
(156,576,l),
(84,576,l),
(68,560,l),
(68,-52,ls),
(68,-88,o),
(56,-100,o),
(28,-100,cs),
(-24,-100,l),
(-40,-116,l),
(-40,-184,l),
(-24,-200,l)
);
},
{
closed = 1;
nodes = (
(160,684,l),
(176,700,l),
(176,784,l),
(160,800,l),
(80,800,l),
(64,784,l),
(64,700,l),
(80,684,l)
);
}
);
width = 240;
},
{
layerId = m004;
shapes = (
{
closed = 1;
nodes = (
(52,-188,ls),
(156,-188,o),
(216,-132,o),
(216,-28,cs),
(216,560,l),
(200,576,l),
(48,576,l),
(32,560,l),
(32,-20,ls),
(32,-44,o),
(20,-52,o),
(-4,-52,cs),
(-48,-52,l),
(-64,-68,l),
(-64,-172,l),
(-48,-188,l)
);
},
{
closed = 1;
nodes = (
(200,632,l),
(216,648,l),
(216,784,l),
(200,800,l),
(48,800,l),
(32,784,l),
(32,648,l),
(48,632,l)
);
}
);
width = 248;
}
);
unicode = 106;
},
{
color = 5;
glyphname = jdotless;
lastChange = "2024-08-04 19:44:29 +0000";
layers = (
{
layerId = m01;
shapes = (
{
closed = 1;
nodes = (
(20,-200,ls),
(100,-200,o),
(172,-156,o),
(172,-52,cs),
(172,560,l),
(156,576,l),
(84,576,l),
(68,560,l),
(68,-52,ls),
(68,-88,o),
(56,-100,o),
(28,-100,cs),
(-24,-100,l),
(-40,-116,l),
(-40,-184,l),
(-24,-200,l)
);
}
);
width = 236;
},
{
layerId = m002;
shapes = (
{
closed = 1;
nodes = (
(20,-200,ls),
(100,-200,o),
(172,-156,o),
(172,-52,cs),
(172,560,l),
(156,576,l),
(84,576,l),
(68,560,l),
(68,-52,ls),
(68,-88,o),
(56,-100,o),
(28,-100,cs),
(-24,-100,l),
(-40,-116,l),
(-40,-184,l),
(-24,-200,l)
);
}
);
width = 236;
},
{
layerId = m003;
shapes = (
{
closed = 1;
nodes = (
(20,-200,ls),
(100,-200,o),
(172,-156,o),
(172,-52,cs),
(172,560,l),
(156,576,l),
(84,576,l),
(68,560,l),
(68,-52,ls),
(68,-88,o),
(56,-100,o),
(28,-100,cs),
(-24,-100,l),
(-40,-116,l),
(-40,-184,l),
(-24,-200,l)
);
}
);
width = 236;
},
{
layerId = m004;
shapes = (
{
closed = 1;
nodes = (
(36,-188,ls),
(140,-188,o),
(200,-132,o),
(200,-28,cs),
(200,560,l),
(184,576,l),
(32,576,l),
(16,560,l),
(16,-20,ls),
(16,-44,o),
(4,-52,o),
(-20,-52,cs),
(-64,-52,l),
(-80,-68,l),
(-80,-172,l),
(-64,-188,l)
);
}
);
width = 232;
}
);
unicode = 567;
},
{
color = 5;
glyphname = k;
kernLeft = h;
kernRight = k;
lastChange = "2024-08-05 01:16:44 +0000";
layers = (
{
anchors = (
{
name = bottom;
pos = (276,0);
},
{
name = top;
pos = (276,800);
}
);
layerId = m01;
shapes = (
{
closed = 1;
nodes = (
(176,0,l),
(192,16,l),
(192,216,l),
(264,284,l),
(280,284,l),
(464,12,l),
(480,0,l),
(528,0,l),
(544,16,l),
(544,64,l),
(360,340,l),
(360,360,l),
(544,536,l),
(544,560,l),
(528,576,l),
(460,576,l),
(442,559,l),
(208,348,l),
(192,348,l),
(192,784,l),
(176,800,l),
(104,800,l),
(88,784,l),
(88,16,l),
(104,0,l)
);
}
);
width = 568;
},
{
anchors = (
{
name = bottom;
pos = (276,0);
},
{
name = top;
pos = (276,800);
}
);
layerId = m002;
shapes = (
{
closed = 1;
nodes = (
(120,0,l),
(136,16,l),
(136,216,l),
(208,284,l),
(224,284,l),
(408,12,l),
(424,0,l),
(472,0,l),
(488,16,l),
(488,64,l),
(296,336,l),
(296,352,l),
(488,528,l),
(488,560,l),
(472,576,l),
(408,576,l),
(390,560,l),
(152,348,l),
(136,348,l),
(136,784,l),
(120,800,l),
(48,800,l),
(32,784,l),
(32,16,l),
(48,0,l)
);
}
);
width = 500;
},
{
anchors = (
{
name = bottom;
pos = (308,0);
},
{
name = top;
pos = (308,800);
}
);
layerId = m003;
shapes = (
{
closed = 1;
nodes = (
(232,0,l),
(248,16,l),
(248,172,l),
(296,224,l),
(312,224,l),
(440,16,l),
(456,0,l),
(588,0,l),
(604,16,l),
(604,80,l),
(436,344,l),
(436,360,l),
(592,528,l),
(592,560,l),
(576,576,l),
(432,576,l),
(416,568,l),
(264,400,l),
(248,400,l),
(248,784,l),
(232,800,l),
(80,800,l),
(64,784,l),
(64,16,l),
(80,0,l)
);
}
);
width = 628;
},
{
anchors = (
{
name = bottom;
pos = (276,0);
},
{
name = top;
pos = (276,800);
}
);
layerId = m004;
shapes = (
{
closed = 1;
nodes = (
(200,0,l),
(216,16,l),
(216,172,l),
(264,224,l),
(280,224,l),
(408,16,l),
(424,0,l),
(556,0,l),
(572,16,l),
(572,80,l),
(404,344,l),
(404,360,l),
(560,528,l),
(560,560,l),
(544,576,l),
(400,576,l),
(384,568,l),
(232,400,l),
(216,400,l),
(216,784,l),
(200,800,l),
(48,800,l),
(32,784,l),
(32,16,l),
(48,0,l)
);
}
);
width = 584;
}
);
unicode = 107;
},
